<ttFont>
    <TTGlyph name="A" xMin="35" yMin="0" xMax="728" yMax="716">
      <contour>
        <pt x="529" y="715" on="1"/>
        <pt x="552" y="716" on="1"/>
        <pt x="553" y="716" on="1"/>
        <pt x="580" y="716" on="0"/>
        <pt x="582" y="710" on="1"/>
        <pt x="583" y="706" on="0"/>
        <pt x="609" y="386" on="1"/>
        <pt x="634" y="64" on="0"/>
        <pt x="636" y="62" on="1"/>
        <pt x="637" y="61" on="0"/>
        <pt x="643" y="59" on="1"/>
        <pt x="655" y="56" on="0"/>
        <pt x="701" y="56" on="1"/>
        <pt x="721" y="56" on="1"/>
        <pt x="725" y="53" on="1"/>
        <pt x="728" y="48" on="0"/>
        <pt x="728" y="46" on="1"/>
        <pt x="719" y="6" on="1"/>
        <pt x="716" y="0" on="0"/>
        <pt x="697" y="1" on="1"/>
        <pt x="693" y="1" on="0"/>
        <pt x="682" y="1" on="1"/>
        <pt x="537" y="5" on="0"/>
        <pt x="445" y="0" on="1"/>
        <pt x="433" y="0" on="1"/>
        <pt x="430" y="3" on="1"/>
        <pt x="426" y="7" on="0"/>
        <pt x="426" y="11" on="1"/>
        <pt x="426" y="27" on="0"/>
        <pt x="436" y="50" on="1"/>
        <pt x="438" y="56" on="0"/>
        <pt x="465" y="56" on="1"/>
        <pt x="489" y="58" on="0"/>
        <pt x="497" y="58" on="1"/>
        <pt x="520" y="62" on="0"/>
        <pt x="522" y="66" on="1"/>
        <pt x="523" y="67" on="0"/>
        <pt x="518" y="132" on="1"/>
        <pt x="513" y="190" on="0"/>
        <pt x="513" y="198" on="1"/>
        <pt x="513" y="200" on="0"/>
        <pt x="399" y="200" on="1"/>
        <pt x="284" y="200" on="1"/>
        <pt x="254" y="147" on="1"/>
        <pt x="222" y="93" on="0"/>
        <pt x="221" y="88" on="1"/>
        <pt x="217" y="78" on="0"/>
        <pt x="224" y="71" on="1"/>
        <pt x="234" y="59" on="0"/>
        <pt x="267" y="56" on="1"/>
        <pt x="281" y="56" on="0"/>
        <pt x="285" y="49" on="1"/>
        <pt x="286" y="46" on="1"/>
        <pt x="281" y="26" on="1"/>
        <pt x="277" y="7" on="0"/>
        <pt x="273" y="3" on="1"/>
        <pt x="270" y="0" on="1"/>
        <pt x="258" y="0" on="1"/>
        <pt x="175" y="4" on="0"/>
        <pt x="101" y="2" on="1"/>
        <pt x="50" y="0" on="0"/>
        <pt x="49" y="0" on="1"/>
        <pt x="42" y="0" on="1"/>
        <pt x="39" y="3" on="1"/>
        <pt x="35" y="7" on="0"/>
        <pt x="35" y="10" on="1"/>
        <pt x="44" y="50" on="1"/>
        <pt x="48" y="56" on="0"/>
        <pt x="67" y="56" on="1"/>
        <pt x="137" y="59" on="0"/>
        <pt x="164" y="96" on="1"/>
        <pt x="345" y="406" on="1"/>
        <pt x="519" y="707" on="0"/>
        <pt x="523" y="711" on="1"/>
        <pt x="524" y="712" on="0"/>
      </contour>
      <contour>
        <pt x="497" y="400" on="1"/>
        <pt x="486" y="543" on="0"/>
        <pt x="486" y="545" on="1"/>
        <pt x="486" y="549" on="0"/>
        <pt x="442" y="472" on="1"/>
        <pt x="358" y="327" on="1"/>
        <pt x="317" y="257" on="1"/>
        <pt x="412" y="256" on="1"/>
        <pt x="508" y="256" on="1"/>
        <pt x="508" y="255" on="0"/>
      </contour>
    </TTGlyph>
    <TTGlyph name="B" xMin="29" yMin="0" xMax="775" yMax="683">
      <contour>
        <pt x="200" y="682" on="1"/>
        <pt x="202" y="683" on="0"/>
        <pt x="401" y="683" on="1"/>
        <pt x="600" y="682" on="0"/>
        <pt x="613" y="680" on="1"/>
        <pt x="646" y="675" on="0"/>
        <pt x="677" y="660" on="1"/>
        <pt x="714" y="641" on="0"/>
        <pt x="734" y="611" on="1"/>
        <pt x="775" y="551" on="0"/>
        <pt x="741" y="482" on="1"/>
        <pt x="735" y="470" on="0"/>
        <pt x="727" y="459" on="1"/>
        <pt x="712" y="436" on="0"/>
        <pt x="681" y="412" on="1"/>
        <pt x="632" y="376" on="0"/>
        <pt x="565" y="359" on="1"/>
        <pt x="562" y="358" on="0"/>
        <pt x="562" y="357" on="1"/>
        <pt x="569" y="357" on="0"/>
        <pt x="598" y="348" on="1"/>
        <pt x="665" y="327" on="0"/>
        <pt x="690" y="275" on="1"/>
        <pt x="718" y="218" on="0"/>
        <pt x="685" y="150" on="1"/>
        <pt x="645" y="69" on="0"/>
        <pt x="549" y="26" on="1"/>
        <pt x="543" y="23" on="0"/>
        <pt x="538" y="21" on="1"/>
        <pt x="505" y="8" on="0"/>
        <pt x="470" y="3" on="1"/>
        <pt x="457" y="1" on="0"/>
        <pt x="247" y="0" on="1"/>
        <pt x="36" y="0" on="0"/>
        <pt x="32" y="3" on="1"/>
        <pt x="30" y="7" on="1"/>
        <pt x="29" y="10" on="0"/>
        <pt x="33" y="30" on="1"/>
        <pt x="39" y="50" on="0"/>
        <pt x="41" y="53" on="1"/>
        <pt x="45" y="56" on="1"/>
        <pt x="79" y="56" on="1"/>
        <pt x="135" y="57" on="0"/>
        <pt x="142" y="64" on="1"/>
        <pt x="145" y="66" on="0"/>
        <pt x="283" y="618" on="0"/>
        <pt x="283" y="620" on="1"/>
        <pt x="283" y="621" on="0"/>
        <pt x="281" y="623" on="1"/>
        <pt x="277" y="625" on="0"/>
        <pt x="227" y="627" on="1"/>
        <pt x="193" y="627" on="1"/>
        <pt x="190" y="630" on="1"/>
        <pt x="184" y="634" on="0"/>
        <pt x="190" y="658" on="1"/>
        <pt x="195" y="679" on="0"/>
      </contour>
      <contour>
        <pt x="574" y="626" on="1"/>
        <pt x="568" y="627" on="0"/>
        <pt x="487" y="627" on="1"/>
        <pt x="400" y="626" on="1"/>
        <pt x="390" y="625" on="0"/>
        <pt x="387" y="620" on="1"/>
        <pt x="387" y="618" on="0"/>
        <pt x="356" y="499" on="1"/>
        <pt x="326" y="379" on="1"/>
        <pt x="408" y="379" on="1"/>
        <pt x="491" y="380" on="1"/>
        <pt x="501" y="382" on="1"/>
        <pt x="562" y="397" on="0"/>
        <pt x="600" y="444" on="1"/>
        <pt x="620" y="466" on="0"/>
        <pt x="632" y="498" on="1"/>
        <pt x="638" y="520" on="0"/>
        <pt x="638" y="542" on="1"/>
        <pt x="638" y="559" on="0"/>
        <pt x="636" y="567" on="1"/>
        <pt x="630" y="589" on="0"/>
        <pt x="615" y="604" on="1"/>
        <pt x="599" y="620" on="0"/>
      </contour>
      <contour>
        <pt x="520" y="329" on="1"/>
        <pt x="512" y="331" on="1"/>
        <pt x="413" y="332" on="1"/>
        <pt x="315" y="332" on="1"/>
        <pt x="281" y="197" on="1"/>
        <pt x="247" y="63" on="0"/>
        <pt x="247" y="60" on="1"/>
        <pt x="247" y="58" on="0"/>
        <pt x="251" y="57" on="1"/>
        <pt x="344" y="57" on="1"/>
        <pt x="434" y="57" on="0"/>
        <pt x="444" y="59" on="1"/>
        <pt x="515" y="75" on="0"/>
        <pt x="556" y="136" on="1"/>
        <pt x="582" y="175" on="0"/>
        <pt x="585" y="223" on="1"/>
        <pt x="586" y="274" on="0"/>
        <pt x="559" y="306" on="1"/>
        <pt x="541" y="324" on="0"/>
      </contour>
    </TTGlyph>
    <TTGlyph name="C" xMin="47" yMin="-25" xMax="761" yMax="705">
      <contour>
        <pt x="476" y="704" on="1"/>
        <pt x="520" y="704" on="1"/>
        <pt x="602" y="696" on="0"/>
        <pt x="649" y="633" on="1"/>
        <pt x="654" y="627" on="0"/>
        <pt x="655" y="626" on="1"/>
        <pt x="654" y="626" on="0"/>
        <pt x="688" y="658" on="1"/>
        <pt x="731" y="699" on="0"/>
        <pt x="729" y="697" on="1"/>
        <pt x="737" y="705" on="1"/>
        <pt x="745" y="705" on="1"/>
        <pt x="758" y="705" on="0"/>
        <pt x="760" y="699" on="1"/>
        <pt x="761" y="697" on="0"/>
        <pt x="727" y="557" on="1"/>
        <pt x="691" y="413" on="0"/>
        <pt x="691" y="416" on="1"/>
        <pt x="689" y="410" on="0"/>
        <pt x="663" y="410" on="1"/>
        <pt x="642" y="410" on="1"/>
        <pt x="639" y="413" on="1"/>
        <pt x="635" y="417" on="0"/>
        <pt x="637" y="431" on="1"/>
        <pt x="637" y="432" on="0"/>
        <pt x="638" y="441" on="1"/>
        <pt x="648" y="513" on="0"/>
        <pt x="626" y="569" on="1"/>
        <pt x="602" y="635" on="0"/>
        <pt x="540" y="647" on="1"/>
        <pt x="522" y="651" on="0"/>
        <pt x="485" y="648" on="1"/>
        <pt x="482" y="647" on="0"/>
        <pt x="480" y="647" on="1"/>
        <pt x="391" y="634" on="0"/>
        <pt x="317" y="577" on="1"/>
        <pt x="217" y="495" on="0"/>
        <pt x="179" y="320" on="1"/>
        <pt x="166" y="267" on="0"/>
        <pt x="166" y="218" on="1"/>
        <pt x="166" y="172" on="0"/>
        <pt x="178" y="141" on="1"/>
        <pt x="182" y="128" on="0"/>
        <pt x="194" y="110" on="1"/>
        <pt x="238" y="44" on="0"/>
        <pt x="335" y="35" on="1"/>
        <pt x="392" y="29" on="0"/>
        <pt x="445" y="56" on="1"/>
        <pt x="530" y="97" on="0"/>
        <pt x="577" y="191" on="1"/>
        <pt x="589" y="216" on="0"/>
        <pt x="597" y="242" on="1"/>
        <pt x="602" y="258" on="0"/>
        <pt x="607" y="259" on="1"/>
        <pt x="610" y="260" on="0"/>
        <pt x="624" y="260" on="1"/>
        <pt x="647" y="260" on="0"/>
        <pt x="649" y="254" on="1"/>
        <pt x="650" y="250" on="0"/>
        <pt x="647" y="240" on="1"/>
        <pt x="630" y="181" on="0"/>
        <pt x="594" y="131" on="1"/>
        <pt x="566" y="91" on="0"/>
        <pt x="532" y="63" on="1"/>
        <pt x="447" y="-12" on="0"/>
        <pt x="343" y="-21" on="1"/>
        <pt x="313" y="-25" on="0"/>
        <pt x="281" y="-19" on="1"/>
        <pt x="183" y="-7" on="0"/>
        <pt x="123" y="58" on="1"/>
        <pt x="65" y="119" on="0"/>
        <pt x="53" y="210" on="1"/>
        <pt x="47" y="251" on="0"/>
        <pt x="54" y="303" on="1"/>
        <pt x="72" y="432" on="0"/>
        <pt x="166" y="541" on="1"/>
        <pt x="201" y="579" on="0"/>
        <pt x="224" y="597" on="1"/>
        <pt x="324" y="680" on="0"/>
        <pt x="439" y="700" on="1"/>
        <pt x="444" y="701" on="0"/>
      </contour>
    </TTGlyph>
    <TTGlyph name="D" xMin="28" yMin="0" xMax="805" yMax="683">
      <contour>
        <pt x="199" y="682" on="1"/>
        <pt x="201" y="683" on="0"/>
        <pt x="400" y="683" on="1"/>
        <pt x="605" y="682" on="0"/>
        <pt x="619" y="679" on="1"/>
        <pt x="620" y="679" on="0"/>
        <pt x="630" y="676" on="1"/>
        <pt x="671" y="667" on="0"/>
        <pt x="700" y="646" on="1"/>
        <pt x="794" y="583" on="0"/>
        <pt x="803" y="456" on="1"/>
        <pt x="805" y="439" on="0"/>
        <pt x="804" y="421" on="1"/>
        <pt x="799" y="275" on="0"/>
        <pt x="697" y="153" on="1"/>
        <pt x="673" y="123" on="0"/>
        <pt x="639" y="94" on="1"/>
        <pt x="545" y="18" on="0"/>
        <pt x="440" y="2" on="1"/>
        <pt x="430" y="1" on="0"/>
        <pt x="233" y="0" on="1"/>
        <pt x="35" y="0" on="0"/>
        <pt x="30" y="6" on="1"/>
        <pt x="28" y="9" on="0"/>
        <pt x="32" y="29" on="1"/>
        <pt x="37" y="51" on="0"/>
        <pt x="42" y="54" on="1"/>
        <pt x="47" y="56" on="0"/>
        <pt x="78" y="56" on="1"/>
        <pt x="134" y="57" on="0"/>
        <pt x="141" y="64" on="1"/>
        <pt x="144" y="66" on="0"/>
        <pt x="282" y="618" on="0"/>
        <pt x="282" y="620" on="1"/>
        <pt x="282" y="621" on="0"/>
        <pt x="280" y="623" on="1"/>
        <pt x="276" y="625" on="0"/>
        <pt x="226" y="627" on="1"/>
        <pt x="192" y="627" on="1"/>
        <pt x="188" y="631" on="1"/>
        <pt x="184" y="635" on="0"/>
        <pt x="189" y="657" on="1"/>
        <pt x="195" y="680" on="0"/>
      </contour>
      <contour>
        <pt x="550" y="626" on="1"/>
        <pt x="402" y="626" on="1"/>
        <pt x="392" y="625" on="0"/>
        <pt x="389" y="620" on="1"/>
        <pt x="249" y="60" on="1"/>
        <pt x="249" y="58" on="0"/>
        <pt x="253" y="57" on="1"/>
        <pt x="415" y="58" on="1"/>
        <pt x="417" y="58" on="0"/>
        <pt x="418" y="58" on="1"/>
        <pt x="486" y="67" on="0"/>
        <pt x="536" y="101" on="1"/>
        <pt x="556" y="114" on="0"/>
        <pt x="576" y="134" on="1"/>
        <pt x="632" y="190" on="0"/>
        <pt x="664" y="304" on="1"/>
        <pt x="684" y="376" on="0"/>
        <pt x="691" y="426" on="1"/>
        <pt x="697" y="473" on="0"/>
        <pt x="691" y="506" on="1"/>
        <pt x="682" y="552" on="0"/>
        <pt x="654" y="582" on="1"/>
        <pt x="614" y="620" on="0"/>
      </contour>
    </TTGlyph>
    <TTGlyph name="E" xMin="26" yMin="0" xMax="764" yMax="680">
      <contour>
        <pt x="195" y="678" on="1"/>
        <pt x="198" y="680" on="1"/>
        <pt x="478" y="680" on="1"/>
        <pt x="757" y="680" on="1"/>
        <pt x="761" y="677" on="1"/>
        <pt x="764" y="673" on="0"/>
        <pt x="764" y="669" on="1"/>
        <pt x="735" y="441" on="1"/>
        <pt x="735" y="436" on="0"/>
        <pt x="731" y="433" on="1"/>
        <pt x="728" y="430" on="1"/>
        <pt x="711" y="430" on="1"/>
        <pt x="693" y="430" on="0"/>
        <pt x="690" y="432" on="1"/>
        <pt x="685" y="435" on="0"/>
        <pt x="687" y="456" on="1"/>
        <pt x="687" y="458" on="0"/>
        <pt x="687" y="461" on="1"/>
        <pt x="692" y="502" on="0"/>
        <pt x="692" y="529" on="1"/>
        <pt x="689" y="589" on="0"/>
        <pt x="652" y="608" on="1"/>
        <pt x="634" y="616" on="0"/>
        <pt x="615" y="619" on="1"/>
        <pt x="587" y="624" on="0"/>
        <pt x="491" y="623" on="1"/>
        <pt x="395" y="623" on="0"/>
        <pt x="390" y="617" on="1"/>
        <pt x="330" y="381" on="1"/>
        <pt x="383" y="381" on="1"/>
        <pt x="449" y="382" on="0"/>
        <pt x="468" y="389" on="1"/>
        <pt x="490" y="396" on="0"/>
        <pt x="518" y="432" on="0"/>
        <pt x="530" y="479" on="1"/>
        <pt x="534" y="492" on="0"/>
        <pt x="537" y="495" on="1"/>
        <pt x="540" y="498" on="1"/>
        <pt x="557" y="498" on="1"/>
        <pt x="578" y="498" on="0"/>
        <pt x="582" y="491" on="1"/>
        <pt x="583" y="487" on="0"/>
        <pt x="550" y="352" on="1"/>
        <pt x="515" y="215" on="0"/>
        <pt x="514" y="214" on="1"/>
        <pt x="512" y="208" on="0"/>
        <pt x="490" y="208" on="1"/>
        <pt x="473" y="208" on="1"/>
        <pt x="469" y="211" on="1"/>
        <pt x="465" y="216" on="0"/>
        <pt x="469" y="234" on="1"/>
        <pt x="481" y="285" on="0"/>
        <pt x="472" y="304" on="1"/>
        <pt x="465" y="319" on="0"/>
        <pt x="432" y="323" on="1"/>
        <pt x="426" y="324" on="0"/>
        <pt x="370" y="324" on="1"/>
        <pt x="316" y="325" on="1"/>
        <pt x="283" y="194" on="1"/>
        <pt x="250" y="61" on="0"/>
        <pt x="250" y="59" on="0"/>
        <pt x="252" y="57" on="1"/>
        <pt x="433" y="57" on="1"/>
        <pt x="492" y="60" on="0"/>
        <pt x="534" y="79" on="1"/>
        <pt x="559" y="92" on="0"/>
        <pt x="579" y="110" on="1"/>
        <pt x="618" y="149" on="0"/>
        <pt x="662" y="255" on="1"/>
        <pt x="670" y="276" on="0"/>
        <pt x="674" y="280" on="1"/>
        <pt x="677" y="283" on="1"/>
        <pt x="695" y="283" on="1"/>
        <pt x="713" y="283" on="1"/>
        <pt x="716" y="280" on="1"/>
        <pt x="720" y="276" on="0"/>
        <pt x="716" y="264" on="1"/>
        <pt x="711" y="249" on="0"/>
        <pt x="666" y="138" on="1"/>
        <pt x="611" y="6" on="0"/>
        <pt x="611" y="5" on="1"/>
        <pt x="609" y="1" on="0"/>
        <pt x="582" y="1" on="1"/>
        <pt x="550" y="0" on="0"/>
        <pt x="319" y="0" on="1"/>
        <pt x="32" y="0" on="0"/>
        <pt x="28" y="6" on="1"/>
        <pt x="26" y="9" on="0"/>
        <pt x="30" y="29" on="1"/>
        <pt x="35" y="51" on="0"/>
        <pt x="40" y="54" on="1"/>
        <pt x="45" y="56" on="0"/>
        <pt x="76" y="56" on="1"/>
        <pt x="132" y="57" on="0"/>
        <pt x="139" y="64" on="1"/>
        <pt x="142" y="66" on="0"/>
        <pt x="280" y="618" on="0"/>
        <pt x="278" y="619" on="1"/>
        <pt x="276" y="621" on="0"/>
        <pt x="271" y="621" on="1"/>
        <pt x="254" y="624" on="0"/>
        <pt x="213" y="624" on="1"/>
        <pt x="187" y="624" on="0"/>
        <pt x="184" y="630" on="1"/>
        <pt x="182" y="633" on="0"/>
        <pt x="186" y="653" on="1"/>
        <pt x="191" y="674" on="0"/>
      </contour>
    </TTGlyph>
    <TTGlyph name="F" xMin="26" yMin="0" xMax="749" yMax="680">
      <contour>
        <pt x="195" y="678" on="1"/>
        <pt x="198" y="680" on="1"/>
        <pt x="470" y="680" on="1"/>
        <pt x="742" y="680" on="1"/>
        <pt x="746" y="677" on="1"/>
        <pt x="749" y="673" on="0"/>
        <pt x="749" y="669" on="1"/>
        <pt x="720" y="441" on="1"/>
        <pt x="720" y="436" on="0"/>
        <pt x="716" y="433" on="1"/>
        <pt x="713" y="430" on="1"/>
        <pt x="696" y="430" on="1"/>
        <pt x="678" y="430" on="0"/>
        <pt x="675" y="432" on="1"/>
        <pt x="670" y="435" on="0"/>
        <pt x="672" y="457" on="1"/>
        <pt x="676" y="486" on="0"/>
        <pt x="677" y="514" on="1"/>
        <pt x="678" y="555" on="0"/>
        <pt x="667" y="581" on="1"/>
        <pt x="658" y="597" on="0"/>
        <pt x="640" y="608" on="1"/>
        <pt x="626" y="615" on="0"/>
        <pt x="603" y="619" on="1"/>
        <pt x="575" y="624" on="0"/>
        <pt x="487" y="623" on="1"/>
        <pt x="395" y="623" on="0"/>
        <pt x="390" y="617" on="1"/>
        <pt x="327" y="369" on="1"/>
        <pt x="327" y="368" on="0"/>
        <pt x="378" y="368" on="1"/>
        <pt x="433" y="369" on="0"/>
        <pt x="439" y="370" on="1"/>
        <pt x="483" y="378" on="0"/>
        <pt x="502" y="412" on="1"/>
        <pt x="511" y="430" on="0"/>
        <pt x="520" y="463" on="1"/>
        <pt x="523" y="475" on="0"/>
        <pt x="526" y="481" on="1"/>
        <pt x="529" y="485" on="0"/>
        <pt x="569" y="485" on="0"/>
        <pt x="572" y="478" on="1"/>
        <pt x="574" y="475" on="1"/>
        <pt x="540" y="340" on="1"/>
        <pt x="508" y="207" on="0"/>
        <pt x="505" y="201" on="1"/>
        <pt x="503" y="195" on="0"/>
        <pt x="461" y="195" on="0"/>
        <pt x="458" y="202" on="1"/>
        <pt x="456" y="205" on="0"/>
        <pt x="459" y="220" on="1"/>
        <pt x="473" y="275" on="0"/>
        <pt x="462" y="294" on="1"/>
        <pt x="454" y="305" on="0"/>
        <pt x="428" y="310" on="1"/>
        <pt x="423" y="311" on="0"/>
        <pt x="366" y="312" on="1"/>
        <pt x="313" y="312" on="1"/>
        <pt x="281" y="188" on="1"/>
        <pt x="251" y="67" on="0"/>
        <pt x="251" y="62" on="1"/>
        <pt x="257" y="57" on="0"/>
        <pt x="324" y="56" on="1"/>
        <pt x="364" y="56" on="0"/>
        <pt x="368" y="54" on="1"/>
        <pt x="372" y="54" on="0"/>
        <pt x="372" y="49" on="1"/>
        <pt x="374" y="46" on="0"/>
        <pt x="369" y="26" on="1"/>
        <pt x="363" y="5" on="0"/>
        <pt x="361" y="3" on="1"/>
        <pt x="358" y="0" on="1"/>
        <pt x="340" y="0" on="1"/>
        <pt x="213" y="5" on="0"/>
        <pt x="64" y="1" on="1"/>
        <pt x="32" y="0" on="0"/>
        <pt x="28" y="6" on="1"/>
        <pt x="26" y="9" on="0"/>
        <pt x="30" y="29" on="1"/>
        <pt x="35" y="51" on="0"/>
        <pt x="40" y="54" on="1"/>
        <pt x="45" y="56" on="0"/>
        <pt x="76" y="56" on="1"/>
        <pt x="132" y="57" on="0"/>
        <pt x="139" y="64" on="1"/>
        <pt x="142" y="66" on="0"/>
        <pt x="280" y="618" on="0"/>
        <pt x="279" y="619" on="1"/>
        <pt x="277" y="621" on="0"/>
        <pt x="272" y="621" on="1"/>
        <pt x="260" y="624" on="0"/>
        <pt x="213" y="624" on="1"/>
        <pt x="187" y="624" on="0"/>
        <pt x="184" y="630" on="1"/>
        <pt x="182" y="633" on="0"/>
        <pt x="186" y="653" on="1"/>
        <pt x="191" y="674" on="0"/>
      </contour>
    </TTGlyph>
    <TTGlyph name="G" xMin="47" yMin="-24" xMax="761" yMax="705">
      <contour>
        <pt x="476" y="704" on="1"/>
        <pt x="520" y="704" on="1"/>
        <pt x="602" y="696" on="0"/>
        <pt x="649" y="633" on="1"/>
        <pt x="654" y="627" on="0"/>
        <pt x="655" y="626" on="1"/>
        <pt x="654" y="626" on="0"/>
        <pt x="688" y="658" on="1"/>
        <pt x="731" y="699" on="0"/>
        <pt x="729" y="697" on="1"/>
        <pt x="737" y="705" on="1"/>
        <pt x="745" y="705" on="1"/>
        <pt x="758" y="705" on="0"/>
        <pt x="760" y="699" on="1"/>
        <pt x="761" y="697" on="0"/>
        <pt x="727" y="557" on="1"/>
        <pt x="691" y="413" on="0"/>
        <pt x="691" y="416" on="1"/>
        <pt x="689" y="410" on="0"/>
        <pt x="663" y="410" on="1"/>
        <pt x="642" y="410" on="1"/>
        <pt x="639" y="413" on="1"/>
        <pt x="635" y="417" on="0"/>
        <pt x="637" y="431" on="1"/>
        <pt x="637" y="432" on="0"/>
        <pt x="638" y="441" on="1"/>
        <pt x="648" y="513" on="0"/>
        <pt x="626" y="569" on="1"/>
        <pt x="602" y="635" on="0"/>
        <pt x="540" y="647" on="1"/>
        <pt x="522" y="651" on="0"/>
        <pt x="485" y="648" on="1"/>
        <pt x="482" y="647" on="0"/>
        <pt x="480" y="647" on="1"/>
        <pt x="391" y="634" on="0"/>
        <pt x="317" y="577" on="1"/>
        <pt x="235" y="511" on="0"/>
        <pt x="196" y="384" on="1"/>
        <pt x="179" y="332" on="0"/>
        <pt x="172" y="284" on="1"/>
        <pt x="155" y="183" on="0"/>
        <pt x="184" y="126" on="1"/>
        <pt x="201" y="92" on="0"/>
        <pt x="233" y="70" on="1"/>
        <pt x="261" y="49" on="0"/>
        <pt x="305" y="39" on="1"/>
        <pt x="402" y="20" on="0"/>
        <pt x="468" y="67" on="1"/>
        <pt x="472" y="70" on="0"/>
        <pt x="476" y="73" on="1"/>
        <pt x="498" y="92" on="0"/>
        <pt x="506" y="112" on="1"/>
        <pt x="531" y="212" on="0"/>
        <pt x="531" y="210" on="1"/>
        <pt x="531" y="212" on="0"/>
        <pt x="527" y="212" on="1"/>
        <pt x="519" y="216" on="0"/>
        <pt x="460" y="217" on="1"/>
        <pt x="416" y="217" on="0"/>
        <pt x="412" y="224" on="1"/>
        <pt x="411" y="227" on="0"/>
        <pt x="415" y="247" on="1"/>
        <pt x="420" y="266" on="0"/>
        <pt x="424" y="270" on="1"/>
        <pt x="427" y="273" on="1"/>
        <pt x="444" y="273" on="1"/>
        <pt x="572" y="268" on="0"/>
        <pt x="691" y="272" on="1"/>
        <pt x="717" y="273" on="0"/>
        <pt x="721" y="266" on="1"/>
        <pt x="722" y="263" on="0"/>
        <pt x="718" y="243" on="1"/>
        <pt x="713" y="224" on="0"/>
        <pt x="709" y="220" on="1"/>
        <pt x="706" y="217" on="1"/>
        <pt x="691" y="217" on="1"/>
        <pt x="654" y="217" on="0"/>
        <pt x="646" y="213" on="1"/>
        <pt x="644" y="212" on="0"/>
        <pt x="638" y="206" on="0"/>
        <pt x="614" y="106" on="1"/>
        <pt x="589" y="6" on="0"/>
        <pt x="586" y="3" on="1"/>
        <pt x="580" y="-3" on="0"/>
        <pt x="561" y="12" on="1"/>
        <pt x="540" y="29" on="0"/>
        <pt x="530" y="41" on="1"/>
        <pt x="524" y="49" on="1"/>
        <pt x="516" y="42" on="1"/>
        <pt x="486" y="15" on="0"/>
        <pt x="440" y="-1" on="1"/>
        <pt x="407" y="-14" on="0"/>
        <pt x="359" y="-20" on="1"/>
        <pt x="326" y="-24" on="0"/>
        <pt x="286" y="-20" on="1"/>
        <pt x="283" y="-20" on="0"/>
        <pt x="281" y="-20" on="1"/>
        <pt x="184" y="-6" on="0"/>
        <pt x="123" y="58" on="1"/>
        <pt x="65" y="119" on="0"/>
        <pt x="53" y="210" on="1"/>
        <pt x="47" y="251" on="0"/>
        <pt x="54" y="303" on="1"/>
        <pt x="72" y="432" on="0"/>
        <pt x="166" y="541" on="1"/>
        <pt x="201" y="579" on="0"/>
        <pt x="224" y="597" on="1"/>
        <pt x="324" y="680" on="0"/>
        <pt x="439" y="700" on="1"/>
        <pt x="444" y="701" on="0"/>
      </contour>
    </TTGlyph>
    <TTGlyph name="H" xMin="26" yMin="0" xMax="894" yMax="683">
      <contour>
        <pt x="197" y="682" on="1"/>
        <pt x="199" y="683" on="0"/>
        <pt x="215" y="683" on="1"/>
        <pt x="336" y="678" on="0"/>
        <pt x="467" y="682" on="1"/>
        <pt x="499" y="683" on="0"/>
        <pt x="503" y="676" on="1"/>
        <pt x="505" y="673" on="0"/>
        <pt x="500" y="653" on="1"/>
        <pt x="495" y="634" on="0"/>
        <pt x="493" y="630" on="1"/>
        <pt x="490" y="627" on="1"/>
        <pt x="455" y="627" on="1"/>
        <pt x="405" y="626" on="0"/>
        <pt x="397" y="622" on="1"/>
        <pt x="391" y="620" on="0"/>
        <pt x="389" y="612" on="1"/>
        <pt x="384" y="600" on="0"/>
        <pt x="359" y="499" on="1"/>
        <pt x="330" y="383" on="1"/>
        <pt x="470" y="383" on="1"/>
        <pt x="610" y="384" on="1"/>
        <pt x="640" y="501" on="1"/>
        <pt x="669" y="617" on="0"/>
        <pt x="669" y="620" on="1"/>
        <pt x="669" y="621" on="0"/>
        <pt x="667" y="623" on="1"/>
        <pt x="663" y="625" on="0"/>
        <pt x="613" y="627" on="1"/>
        <pt x="579" y="627" on="1"/>
        <pt x="575" y="631" on="1"/>
        <pt x="572" y="634" on="0"/>
        <pt x="572" y="637" on="1"/>
        <pt x="583" y="678" on="1"/>
        <pt x="586" y="683" on="0"/>
        <pt x="609" y="682" on="1"/>
        <pt x="613" y="682" on="0"/>
        <pt x="625" y="682" on="1"/>
        <pt x="707" y="678" on="0"/>
        <pt x="833" y="681" on="1"/>
        <pt x="845" y="682" on="0"/>
        <pt x="853" y="682" on="1"/>
        <pt x="888" y="683" on="0"/>
        <pt x="892" y="676" on="1"/>
        <pt x="894" y="673" on="0"/>
        <pt x="889" y="653" on="1"/>
        <pt x="884" y="634" on="0"/>
        <pt x="882" y="630" on="1"/>
        <pt x="879" y="627" on="1"/>
        <pt x="844" y="627" on="1"/>
        <pt x="794" y="626" on="0"/>
        <pt x="786" y="622" on="1"/>
        <pt x="781" y="620" on="0"/>
        <pt x="780" y="616" on="1"/>
        <pt x="774" y="601" on="0"/>
        <pt x="709" y="341" on="1"/>
        <pt x="640" y="65" on="0"/>
        <pt x="639" y="64" on="1"/>
        <pt x="638" y="60" on="0"/>
        <pt x="648" y="59" on="1"/>
        <pt x="660" y="57" on="0"/>
        <pt x="695" y="56" on="1"/>
        <pt x="732" y="56" on="0"/>
        <pt x="736" y="49" on="1"/>
        <pt x="737" y="46" on="0"/>
        <pt x="733" y="26" on="1"/>
        <pt x="728" y="7" on="0"/>
        <pt x="724" y="3" on="1"/>
        <pt x="721" y="0" on="1"/>
        <pt x="705" y="0" on="1"/>
        <pt x="596" y="5" on="0"/>
        <pt x="453" y="1" on="1"/>
        <pt x="420" y="0" on="0"/>
        <pt x="416" y="7" on="1"/>
        <pt x="415" y="10" on="0"/>
        <pt x="419" y="30" on="1"/>
        <pt x="425" y="50" on="0"/>
        <pt x="427" y="53" on="1"/>
        <pt x="431" y="56" on="1"/>
        <pt x="465" y="56" on="1"/>
        <pt x="521" y="57" on="0"/>
        <pt x="528" y="64" on="1"/>
        <pt x="531" y="66" on="0"/>
        <pt x="564" y="196" on="1"/>
        <pt x="596" y="326" on="1"/>
        <pt x="596" y="327" on="0"/>
        <pt x="456" y="327" on="1"/>
        <pt x="316" y="327" on="1"/>
        <pt x="283" y="195" on="1"/>
        <pt x="250" y="62" on="0"/>
        <pt x="251" y="61" on="1"/>
        <pt x="253" y="59" on="0"/>
        <pt x="258" y="59" on="1"/>
        <pt x="270" y="56" on="0"/>
        <pt x="318" y="56" on="1"/>
        <pt x="343" y="56" on="0"/>
        <pt x="347" y="49" on="1"/>
        <pt x="348" y="45" on="0"/>
        <pt x="344" y="26" on="1"/>
        <pt x="339" y="7" on="0"/>
        <pt x="335" y="3" on="1"/>
        <pt x="332" y="0" on="1"/>
        <pt x="316" y="0" on="1"/>
        <pt x="207" y="5" on="0"/>
        <pt x="64" y="1" on="1"/>
        <pt x="31" y="0" on="0"/>
        <pt x="27" y="7" on="1"/>
        <pt x="26" y="10" on="0"/>
        <pt x="30" y="30" on="1"/>
        <pt x="36" y="50" on="0"/>
        <pt x="38" y="53" on="1"/>
        <pt x="42" y="56" on="1"/>
        <pt x="76" y="56" on="1"/>
        <pt x="132" y="57" on="0"/>
        <pt x="139" y="64" on="1"/>
        <pt x="142" y="66" on="0"/>
        <pt x="280" y="618" on="0"/>
        <pt x="280" y="620" on="1"/>
        <pt x="280" y="621" on="0"/>
        <pt x="278" y="623" on="1"/>
        <pt x="274" y="625" on="0"/>
        <pt x="224" y="627" on="1"/>
        <pt x="190" y="627" on="1"/>
        <pt x="186" y="631" on="1"/>
        <pt x="183" y="634" on="0"/>
        <pt x="183" y="637" on="1"/>
        <pt x="194" y="678" on="1"/>
        <pt x="194" y="679" on="0"/>
      </contour>
    </TTGlyph>
    <TTGlyph name="I" xMin="21" yMin="0" xMax="509" yMax="683">
      <contour>
        <pt x="191" y="681" on="1"/>
        <pt x="194" y="683" on="0"/>
        <pt x="208" y="683" on="1"/>
        <pt x="301" y="679" on="0"/>
        <pt x="415" y="681" on="1"/>
        <pt x="491" y="683" on="1"/>
        <pt x="502" y="683" on="1"/>
        <pt x="505" y="680" on="1"/>
        <pt x="509" y="676" on="0"/>
        <pt x="509" y="672" on="1"/>
        <pt x="509" y="656" on="0"/>
        <pt x="499" y="633" on="1"/>
        <pt x="497" y="627" on="0"/>
        <pt x="470" y="627" on="1"/>
        <pt x="465" y="627" on="0"/>
        <pt x="458" y="627" on="1"/>
        <pt x="399" y="626" on="0"/>
        <pt x="392" y="619" on="1"/>
        <pt x="388" y="616" on="1"/>
        <pt x="320" y="340" on="1"/>
        <pt x="251" y="66" on="0"/>
        <pt x="251" y="63" on="1"/>
        <pt x="250" y="60" on="0"/>
        <pt x="260" y="59" on="1"/>
        <pt x="273" y="57" on="0"/>
        <pt x="310" y="56" on="1"/>
        <pt x="348" y="56" on="0"/>
        <pt x="352" y="49" on="1"/>
        <pt x="353" y="46" on="0"/>
        <pt x="349" y="26" on="1"/>
        <pt x="344" y="7" on="0"/>
        <pt x="340" y="3" on="1"/>
        <pt x="337" y="0" on="1"/>
        <pt x="321" y="0" on="1"/>
        <pt x="206" y="5" on="0"/>
        <pt x="60" y="1" on="1"/>
        <pt x="26" y="0" on="0"/>
        <pt x="22" y="7" on="1"/>
        <pt x="21" y="10" on="0"/>
        <pt x="25" y="30" on="1"/>
        <pt x="31" y="50" on="0"/>
        <pt x="33" y="53" on="1"/>
        <pt x="37" y="56" on="1"/>
        <pt x="72" y="56" on="1"/>
        <pt x="125" y="57" on="0"/>
        <pt x="135" y="62" on="1"/>
        <pt x="138" y="63" on="0"/>
        <pt x="142" y="67" on="1"/>
        <pt x="280" y="620" on="1"/>
        <pt x="280" y="621" on="0"/>
        <pt x="278" y="623" on="1"/>
        <pt x="270" y="626" on="0"/>
        <pt x="222" y="627" on="1"/>
        <pt x="183" y="627" on="0"/>
        <pt x="180" y="633" on="1"/>
        <pt x="178" y="636" on="0"/>
        <pt x="182" y="656" on="1"/>
        <pt x="187" y="677" on="0"/>
      </contour>
    </TTGlyph>
    <TTGlyph name="J" xMin="48" yMin="-40" xMax="633" yMax="683">
      <contour>
        <pt x="322" y="680" on="1"/>
        <pt x="325" y="683" on="1"/>
        <pt x="343" y="683" on="1"/>
        <pt x="476" y="678" on="0"/>
        <pt x="601" y="682" on="1"/>
        <pt x="628" y="683" on="0"/>
        <pt x="631" y="677" on="1"/>
        <pt x="633" y="674" on="0"/>
        <pt x="629" y="654" on="1"/>
        <pt x="623" y="630" on="0"/>
        <pt x="618" y="628" on="1"/>
        <pt x="614" y="627" on="0"/>
        <pt x="600" y="627" on="1"/>
        <pt x="564" y="627" on="0"/>
        <pt x="553" y="624" on="1"/>
        <pt x="547" y="623" on="0"/>
        <pt x="546" y="619" on="1"/>
        <pt x="541" y="609" on="0"/>
        <pt x="482" y="374" on="1"/>
        <pt x="422" y="134" on="0"/>
        <pt x="418" y="123" on="1"/>
        <pt x="396" y="64" on="0"/>
        <pt x="332" y="21" on="1"/>
        <pt x="303" y="2" on="0"/>
        <pt x="274" y="-8" on="1"/>
        <pt x="180" y="-40" on="0"/>
        <pt x="109" y="-4" on="1"/>
        <pt x="73" y="14" on="0"/>
        <pt x="57" y="46" on="1"/>
        <pt x="48" y="63" on="0"/>
        <pt x="48" y="87" on="1"/>
        <pt x="48" y="113" on="0"/>
        <pt x="54" y="127" on="1"/>
        <pt x="62" y="144" on="0"/>
        <pt x="73" y="155" on="1"/>
        <pt x="102" y="184" on="0"/>
        <pt x="140" y="178" on="1"/>
        <pt x="170" y="172" on="0"/>
        <pt x="180" y="146" on="1"/>
        <pt x="182" y="141" on="0"/>
        <pt x="182" y="129" on="1"/>
        <pt x="182" y="105" on="0"/>
        <pt x="169" y="85" on="1"/>
        <pt x="151" y="60" on="0"/>
        <pt x="126" y="53" on="1"/>
        <pt x="122" y="51" on="1"/>
        <pt x="138" y="39" on="1"/>
        <pt x="161" y="26" on="0"/>
        <pt x="194" y="26" on="1"/>
        <pt x="216" y="26" on="0"/>
        <pt x="233" y="34" on="1"/>
        <pt x="283" y="57" on="0"/>
        <pt x="308" y="115" on="1"/>
        <pt x="312" y="124" on="0"/>
        <pt x="315" y="134" on="1"/>
        <pt x="315" y="135" on="0"/>
        <pt x="378" y="382" on="1"/>
        <pt x="437" y="620" on="0"/>
        <pt x="436" y="621" on="1"/>
        <pt x="429" y="626" on="0"/>
        <pt x="361" y="627" on="1"/>
        <pt x="314" y="627" on="0"/>
        <pt x="310" y="634" on="1"/>
        <pt x="309" y="637" on="0"/>
        <pt x="313" y="657" on="1"/>
        <pt x="318" y="676" on="0"/>
      </contour>
    </TTGlyph>
    <TTGlyph name="K" xMin="26" yMin="0" xMax="890" yMax="683">
      <contour>
        <pt x="197" y="682" on="1"/>
        <pt x="199" y="683" on="0"/>
        <pt x="215" y="683" on="1"/>
        <pt x="335" y="678" on="0"/>
        <pt x="467" y="682" on="1"/>
        <pt x="499" y="683" on="0"/>
        <pt x="504" y="676" on="1"/>
        <pt x="505" y="673" on="1"/>
        <pt x="500" y="653" on="1"/>
        <pt x="495" y="634" on="0"/>
        <pt x="493" y="630" on="1"/>
        <pt x="490" y="627" on="1"/>
        <pt x="455" y="627" on="1"/>
        <pt x="405" y="626" on="0"/>
        <pt x="397" y="622" on="1"/>
        <pt x="392" y="620" on="0"/>
        <pt x="389" y="614" on="1"/>
        <pt x="385" y="601" on="0"/>
        <pt x="351" y="467" on="1"/>
        <pt x="314" y="318" on="1"/>
        <pt x="314" y="317" on="0"/>
        <pt x="487" y="454" on="1"/>
        <pt x="659" y="591" on="0"/>
        <pt x="666" y="598" on="1"/>
        <pt x="678" y="612" on="0"/>
        <pt x="672" y="619" on="1"/>
        <pt x="667" y="625" on="0"/>
        <pt x="650" y="627" on="1"/>
        <pt x="642" y="627" on="0"/>
        <pt x="638" y="631" on="1"/>
        <pt x="635" y="634" on="0"/>
        <pt x="635" y="638" on="1"/>
        <pt x="635" y="654" on="0"/>
        <pt x="645" y="677" on="1"/>
        <pt x="648" y="683" on="0"/>
        <pt x="664" y="682" on="1"/>
        <pt x="669" y="682" on="0"/>
        <pt x="687" y="682" on="1"/>
        <pt x="772" y="678" on="0"/>
        <pt x="852" y="681" on="1"/>
        <pt x="859" y="682" on="0"/>
        <pt x="863" y="682" on="1"/>
        <pt x="884" y="683" on="0"/>
        <pt x="888" y="676" on="1"/>
        <pt x="890" y="673" on="0"/>
        <pt x="885" y="653" on="1"/>
        <pt x="879" y="630" on="0"/>
        <pt x="874" y="629" on="1"/>
        <pt x="872" y="628" on="0"/>
        <pt x="858" y="627" on="1"/>
        <pt x="780" y="624" on="0"/>
        <pt x="726" y="585" on="1"/>
        <pt x="716" y="579" on="0"/>
        <pt x="715" y="578" on="1"/>
        <pt x="713" y="578" on="0"/>
        <pt x="613" y="498" on="1"/>
        <pt x="512" y="418" on="1"/>
        <pt x="514" y="413" on="1"/>
        <pt x="511" y="418" on="0"/>
        <pt x="583" y="244" on="1"/>
        <pt x="651" y="78" on="0"/>
        <pt x="655" y="74" on="1"/>
        <pt x="666" y="58" on="0"/>
        <pt x="708" y="56" on="1"/>
        <pt x="712" y="56" on="0"/>
        <pt x="717" y="56" on="1"/>
        <pt x="742" y="56" on="0"/>
        <pt x="746" y="49" on="1"/>
        <pt x="747" y="46" on="0"/>
        <pt x="743" y="26" on="1"/>
        <pt x="738" y="7" on="0"/>
        <pt x="734" y="3" on="1"/>
        <pt x="731" y="0" on="1"/>
        <pt x="718" y="0" on="1"/>
        <pt x="633" y="4" on="0"/>
        <pt x="498" y="1" on="1"/>
        <pt x="465" y="0" on="0"/>
        <pt x="461" y="6" on="1"/>
        <pt x="459" y="9" on="0"/>
        <pt x="463" y="29" on="1"/>
        <pt x="468" y="50" on="0"/>
        <pt x="472" y="54" on="1"/>
        <pt x="475" y="56" on="0"/>
        <pt x="485" y="56" on="1"/>
        <pt x="514" y="56" on="0"/>
        <pt x="527" y="66" on="1"/>
        <pt x="532" y="72" on="0"/>
        <pt x="529" y="82" on="1"/>
        <pt x="525" y="97" on="0"/>
        <pt x="477" y="213" on="1"/>
        <pt x="422" y="345" on="1"/>
        <pt x="422" y="348" on="0"/>
        <pt x="359" y="296" on="1"/>
        <pt x="297" y="247" on="1"/>
        <pt x="273" y="155" on="1"/>
        <pt x="250" y="62" on="0"/>
        <pt x="251" y="61" on="1"/>
        <pt x="253" y="59" on="0"/>
        <pt x="258" y="59" on="1"/>
        <pt x="270" y="56" on="0"/>
        <pt x="317" y="56" on="1"/>
        <pt x="340" y="56" on="0"/>
        <pt x="342" y="54" on="1"/>
        <pt x="348" y="52" on="0"/>
        <pt x="348" y="45" on="1"/>
        <pt x="338" y="6" on="1"/>
        <pt x="334" y="0" on="0"/>
        <pt x="318" y="1" on="1"/>
        <pt x="313" y="1" on="0"/>
        <pt x="295" y="1" on="1"/>
        <pt x="212" y="5" on="0"/>
        <pt x="86" y="2" on="1"/>
        <pt x="74" y="1" on="0"/>
        <pt x="67" y="1" on="1"/>
        <pt x="32" y="0" on="0"/>
        <pt x="28" y="6" on="1"/>
        <pt x="26" y="9" on="0"/>
        <pt x="30" y="29" on="1"/>
        <pt x="35" y="51" on="0"/>
        <pt x="40" y="54" on="1"/>
        <pt x="45" y="56" on="0"/>
        <pt x="76" y="56" on="1"/>
        <pt x="132" y="57" on="0"/>
        <pt x="139" y="64" on="1"/>
        <pt x="142" y="66" on="0"/>
        <pt x="280" y="618" on="0"/>
        <pt x="280" y="620" on="1"/>
        <pt x="280" y="621" on="0"/>
        <pt x="278" y="623" on="1"/>
        <pt x="274" y="625" on="0"/>
        <pt x="224" y="627" on="1"/>
        <pt x="190" y="627" on="1"/>
        <pt x="186" y="631" on="1"/>
        <pt x="182" y="635" on="0"/>
        <pt x="187" y="657" on="1"/>
        <pt x="193" y="679" on="0"/>
      </contour>
    </TTGlyph>
    <TTGlyph name="L" xMin="26" yMin="0" xMax="650" yMax="683">
      <contour>
        <pt x="197" y="682" on="1"/>
        <pt x="199" y="683" on="0"/>
        <pt x="213" y="683" on="1"/>
        <pt x="291" y="679" on="0"/>
        <pt x="424" y="681" on="1"/>
        <pt x="512" y="683" on="0"/>
        <pt x="511" y="683" on="1"/>
        <pt x="523" y="683" on="1"/>
        <pt x="526" y="680" on="1"/>
        <pt x="531" y="675" on="0"/>
        <pt x="527" y="657" on="1"/>
        <pt x="527" y="655" on="0"/>
        <pt x="526" y="653" on="1"/>
        <pt x="521" y="631" on="0"/>
        <pt x="517" y="629" on="1"/>
        <pt x="514" y="627" on="0"/>
        <pt x="486" y="627" on="1"/>
        <pt x="427" y="627" on="0"/>
        <pt x="409" y="624" on="1"/>
        <pt x="393" y="622" on="0"/>
        <pt x="389" y="616" on="1"/>
        <pt x="250" y="60" on="1"/>
        <pt x="250" y="58" on="0"/>
        <pt x="254" y="57" on="1"/>
        <pt x="321" y="57" on="1"/>
        <pt x="395" y="57" on="0"/>
        <pt x="418" y="63" on="1"/>
        <pt x="420" y="63" on="0"/>
        <pt x="422" y="64" on="1"/>
        <pt x="490" y="80" on="0"/>
        <pt x="534" y="135" on="1"/>
        <pt x="562" y="170" on="0"/>
        <pt x="594" y="256" on="1"/>
        <pt x="603" y="280" on="0"/>
        <pt x="606" y="281" on="1"/>
        <pt x="613" y="286" on="0"/>
        <pt x="639" y="282" on="1"/>
        <pt x="643" y="282" on="0"/>
        <pt x="644" y="281" on="1"/>
        <pt x="650" y="279" on="0"/>
        <pt x="650" y="272" on="1"/>
        <pt x="555" y="5" on="1"/>
        <pt x="553" y="1" on="0"/>
        <pt x="529" y="1" on="1"/>
        <pt x="499" y="0" on="0"/>
        <pt x="291" y="0" on="1"/>
        <pt x="34" y="0" on="0"/>
        <pt x="31" y="2" on="1"/>
        <pt x="28" y="5" on="0"/>
        <pt x="27" y="7" on="1"/>
        <pt x="26" y="11" on="0"/>
        <pt x="30" y="30" on="1"/>
        <pt x="36" y="50" on="0"/>
        <pt x="38" y="53" on="1"/>
        <pt x="42" y="56" on="1"/>
        <pt x="76" y="56" on="1"/>
        <pt x="132" y="57" on="0"/>
        <pt x="139" y="64" on="1"/>
        <pt x="142" y="66" on="0"/>
        <pt x="280" y="618" on="0"/>
        <pt x="280" y="620" on="1"/>
        <pt x="280" y="621" on="0"/>
        <pt x="278" y="623" on="1"/>
        <pt x="274" y="625" on="0"/>
        <pt x="224" y="627" on="1"/>
        <pt x="190" y="627" on="1"/>
        <pt x="187" y="630" on="1"/>
        <pt x="181" y="634" on="0"/>
        <pt x="187" y="658" on="1"/>
        <pt x="192" y="679" on="0"/>
      </contour>
    </TTGlyph>
    <TTGlyph name="M" xMin="30" yMin="0" xMax="1057" yMax="683">
      <contour>
        <pt x="200" y="681" on="1"/>
        <pt x="203" y="683" on="0"/>
        <pt x="310" y="683" on="1"/>
        <pt x="416" y="683" on="0"/>
        <pt x="422" y="679" on="0"/>
        <pt x="424" y="676" on="1"/>
        <pt x="426" y="672" on="0"/>
        <pt x="458" y="403" on="1"/>
        <pt x="491" y="133" on="1"/>
        <pt x="660" y="403" on="1"/>
        <pt x="825" y="672" on="0"/>
        <pt x="830" y="677" on="1"/>
        <pt x="836" y="681" on="1"/>
        <pt x="837" y="681" on="1"/>
        <pt x="841" y="683" on="0"/>
        <pt x="1049" y="683" on="0"/>
        <pt x="1052" y="681" on="1"/>
        <pt x="1054" y="680" on="0"/>
        <pt x="1056" y="676" on="1"/>
        <pt x="1057" y="671" on="0"/>
        <pt x="1052" y="653" on="1"/>
        <pt x="1047" y="634" on="0"/>
        <pt x="1045" y="630" on="1"/>
        <pt x="1042" y="627" on="1"/>
        <pt x="1007" y="627" on="1"/>
        <pt x="957" y="626" on="0"/>
        <pt x="949" y="622" on="1"/>
        <pt x="944" y="620" on="0"/>
        <pt x="943" y="616" on="1"/>
        <pt x="937" y="601" on="0"/>
        <pt x="872" y="341" on="1"/>
        <pt x="803" y="65" on="0"/>
        <pt x="802" y="64" on="1"/>
        <pt x="801" y="61" on="0"/>
        <pt x="811" y="59" on="1"/>
        <pt x="822" y="57" on="0"/>
        <pt x="859" y="56" on="1"/>
        <pt x="890" y="56" on="0"/>
        <pt x="894" y="54" on="1"/>
        <pt x="900" y="52" on="0"/>
        <pt x="900" y="45" on="1"/>
        <pt x="890" y="6" on="1"/>
        <pt x="886" y="0" on="0"/>
        <pt x="869" y="1" on="1"/>
        <pt x="864" y="1" on="0"/>
        <pt x="848" y="1" on="1"/>
        <pt x="768" y="5" on="0"/>
        <pt x="645" y="2" on="1"/>
        <pt x="633" y="1" on="0"/>
        <pt x="626" y="1" on="1"/>
        <pt x="592" y="0" on="0"/>
        <pt x="588" y="6" on="1"/>
        <pt x="586" y="9" on="0"/>
        <pt x="590" y="29" on="1"/>
        <pt x="595" y="51" on="0"/>
        <pt x="600" y="54" on="1"/>
        <pt x="605" y="56" on="0"/>
        <pt x="636" y="56" on="1"/>
        <pt x="692" y="57" on="0"/>
        <pt x="699" y="64" on="1"/>
        <pt x="702" y="66" on="0"/>
        <pt x="771" y="342" on="1"/>
        <pt x="839" y="616" on="1"/>
        <pt x="651" y="314" on="1"/>
        <pt x="464" y="11" on="0"/>
        <pt x="461" y="8" on="1"/>
        <pt x="457" y="4" on="0"/>
        <pt x="454" y="3" on="1"/>
        <pt x="449" y="0" on="0"/>
        <pt x="433" y="0" on="1"/>
        <pt x="412" y="0" on="0"/>
        <pt x="410" y="7" on="1"/>
        <pt x="409" y="10" on="0"/>
        <pt x="373" y="307" on="1"/>
        <pt x="336" y="605" on="0"/>
        <pt x="336" y="606" on="1"/>
        <pt x="215" y="122" on="1"/>
        <pt x="206" y="87" on="0"/>
        <pt x="206" y="85" on="1"/>
        <pt x="206" y="59" on="0"/>
        <pt x="271" y="56" on="1"/>
        <pt x="287" y="56" on="0"/>
        <pt x="291" y="54" on="1"/>
        <pt x="297" y="52" on="0"/>
        <pt x="297" y="45" on="1"/>
        <pt x="287" y="6" on="1"/>
        <pt x="283" y="0" on="0"/>
        <pt x="267" y="1" on="1"/>
        <pt x="263" y="1" on="0"/>
        <pt x="250" y="1" on="1"/>
        <pt x="182" y="5" on="0"/>
        <pt x="81" y="2" on="1"/>
        <pt x="71" y="1" on="0"/>
        <pt x="65" y="1" on="1"/>
        <pt x="36" y="0" on="0"/>
        <pt x="32" y="6" on="1"/>
        <pt x="30" y="9" on="0"/>
        <pt x="34" y="29" on="1"/>
        <pt x="39" y="50" on="0"/>
        <pt x="43" y="54" on="1"/>
        <pt x="46" y="56" on="0"/>
        <pt x="57" y="56" on="1"/>
        <pt x="100" y="56" on="0"/>
        <pt x="129" y="69" on="1"/>
        <pt x="148" y="80" on="0"/>
        <pt x="151" y="90" on="1"/>
        <pt x="284" y="620" on="1"/>
        <pt x="284" y="621" on="0"/>
        <pt x="282" y="623" on="1"/>
        <pt x="278" y="625" on="0"/>
        <pt x="228" y="627" on="1"/>
        <pt x="194" y="627" on="1"/>
        <pt x="190" y="631" on="1"/>
        <pt x="186" y="635" on="0"/>
        <pt x="191" y="655" on="1"/>
        <pt x="197" y="679" on="0"/>
      </contour>
    </TTGlyph>
    <TTGlyph name="N" xMin="26" yMin="0" xMax="894" yMax="683">
      <contour>
        <pt x="197" y="682" on="1"/>
        <pt x="401" y="682" on="1"/>
        <pt x="403" y="682" on="1"/>
        <pt x="407" y="680" on="0"/>
        <pt x="407" y="679" on="1"/>
        <pt x="409" y="675" on="0"/>
        <pt x="512" y="431" on="1"/>
        <pt x="616" y="183" on="0"/>
        <pt x="616" y="188" on="1"/>
        <pt x="718" y="597" on="1"/>
        <pt x="718" y="612" on="0"/>
        <pt x="702" y="618" on="1"/>
        <pt x="684" y="627" on="0"/>
        <pt x="645" y="627" on="1"/>
        <pt x="634" y="627" on="1"/>
        <pt x="630" y="630" on="1"/>
        <pt x="627" y="634" on="0"/>
        <pt x="627" y="637" on="1"/>
        <pt x="638" y="678" on="1"/>
        <pt x="641" y="683" on="0"/>
        <pt x="665" y="682" on="1"/>
        <pt x="668" y="682" on="0"/>
        <pt x="674" y="682" on="1"/>
        <pt x="742" y="678" on="0"/>
        <pt x="843" y="681" on="1"/>
        <pt x="853" y="682" on="0"/>
        <pt x="859" y="682" on="1"/>
        <pt x="888" y="683" on="0"/>
        <pt x="892" y="676" on="1"/>
        <pt x="894" y="673" on="0"/>
        <pt x="884" y="633" on="0"/>
        <pt x="881" y="630" on="1"/>
        <pt x="878" y="627" on="1"/>
        <pt x="867" y="627" on="1"/>
        <pt x="794" y="627" on="0"/>
        <pt x="773" y="595" on="1"/>
        <pt x="769" y="584" on="0"/>
        <pt x="699" y="300" on="1"/>
        <pt x="625" y="4" on="0"/>
        <pt x="625" y="7" on="1"/>
        <pt x="617" y="0" on="0"/>
        <pt x="599" y="0" on="1"/>
        <pt x="580" y="0" on="1"/>
        <pt x="577" y="3" on="1"/>
        <pt x="573" y="7" on="0"/>
        <pt x="451" y="298" on="1"/>
        <pt x="327" y="591" on="0"/>
        <pt x="327" y="588" on="1"/>
        <pt x="326" y="587" on="0"/>
        <pt x="264" y="338" on="1"/>
        <pt x="202" y="88" on="0"/>
        <pt x="202" y="85" on="1"/>
        <pt x="202" y="59" on="0"/>
        <pt x="267" y="56" on="1"/>
        <pt x="288" y="56" on="0"/>
        <pt x="292" y="49" on="1"/>
        <pt x="293" y="46" on="0"/>
        <pt x="289" y="26" on="1"/>
        <pt x="284" y="7" on="0"/>
        <pt x="280" y="3" on="1"/>
        <pt x="277" y="0" on="1"/>
        <pt x="264" y="0" on="1"/>
        <pt x="172" y="5" on="0"/>
        <pt x="59" y="1" on="1"/>
        <pt x="31" y="0" on="0"/>
        <pt x="27" y="7" on="1"/>
        <pt x="26" y="10" on="0"/>
        <pt x="30" y="30" on="1"/>
        <pt x="35" y="49" on="0"/>
        <pt x="39" y="53" on="1"/>
        <pt x="42" y="56" on="1"/>
        <pt x="53" y="56" on="1"/>
        <pt x="113" y="56" on="0"/>
        <pt x="137" y="77" on="1"/>
        <pt x="144" y="84" on="0"/>
        <pt x="148" y="97" on="1"/>
        <pt x="155" y="118" on="0"/>
        <pt x="215" y="358" on="1"/>
        <pt x="282" y="625" on="1"/>
        <pt x="279" y="625" on="1"/>
        <pt x="233" y="627" on="1"/>
        <pt x="190" y="627" on="1"/>
        <pt x="186" y="631" on="1"/>
        <pt x="183" y="634" on="0"/>
        <pt x="183" y="637" on="1"/>
        <pt x="194" y="678" on="1"/>
        <pt x="194" y="679" on="0"/>
      </contour>
    </TTGlyph>
    <TTGlyph name="O" xMin="47" yMin="-48" xMax="757" yMax="706">
      <contour>
        <pt x="459" y="704" on="1"/>
        <pt x="484" y="706" on="0"/>
        <pt x="524" y="703" on="1"/>
        <pt x="610" y="691" on="0"/>
        <pt x="666" y="633" on="1"/>
        <pt x="721" y="578" on="0"/>
        <pt x="735" y="492" on="1"/>
        <pt x="757" y="362" on="0"/>
        <pt x="684" y="228" on="1"/>
        <pt x="670" y="203" on="0"/>
        <pt x="653" y="179" on="1"/>
        <pt x="596" y="97" on="0"/>
        <pt x="515" y="46" on="1"/>
        <pt x="461" y="11" on="0"/>
        <pt x="408" y="-5" on="1"/>
        <pt x="269" y="-48" on="0"/>
        <pt x="165" y="16" on="1"/>
        <pt x="144" y="29" on="0"/>
        <pt x="126" y="46" on="1"/>
        <pt x="66" y="105" on="0"/>
        <pt x="51" y="201" on="1"/>
        <pt x="47" y="233" on="0"/>
        <pt x="50" y="282" on="1"/>
        <pt x="51" y="286" on="0"/>
        <pt x="51" y="289" on="1"/>
        <pt x="69" y="426" on="0"/>
        <pt x="167" y="541" on="1"/>
        <pt x="195" y="573" on="0"/>
        <pt x="227" y="601" on="1"/>
        <pt x="338" y="693" on="0"/>
      </contour>
      <contour>
        <pt x="504" y="652" on="1"/>
        <pt x="479" y="656" on="0"/>
        <pt x="453" y="654" on="1"/>
        <pt x="388" y="646" on="0"/>
        <pt x="334" y="604" on="1"/>
        <pt x="255" y="544" on="0"/>
        <pt x="213" y="437" on="1"/>
        <pt x="182" y="360" on="0"/>
        <pt x="169" y="264" on="1"/>
        <pt x="165" y="225" on="0"/>
        <pt x="168" y="180" on="1"/>
        <pt x="169" y="176" on="0"/>
        <pt x="169" y="174" on="1"/>
        <pt x="184" y="79" on="0"/>
        <pt x="253" y="44" on="1"/>
        <pt x="320" y="10" on="0"/>
        <pt x="407" y="52" on="1"/>
        <pt x="519" y="107" on="0"/>
        <pt x="580" y="259" on="1"/>
        <pt x="615" y="349" on="0"/>
        <pt x="625" y="439" on="1"/>
        <pt x="629" y="472" on="0"/>
        <pt x="625" y="509" on="1"/>
        <pt x="625" y="511" on="0"/>
        <pt x="625" y="513" on="1"/>
        <pt x="614" y="577" on="0"/>
        <pt x="581" y="610" on="1"/>
        <pt x="549" y="643" on="0"/>
      </contour>
    </TTGlyph>
    <TTGlyph name="P" xMin="28" yMin="0" xMax="754" yMax="683">
      <contour>
        <pt x="198" y="681" on="1"/>
        <pt x="201" y="683" on="0"/>
        <pt x="387" y="683" on="1"/>
        <pt x="576" y="683" on="0"/>
        <pt x="583" y="682" on="1"/>
        <pt x="662" y="674" on="0"/>
        <pt x="711" y="626" on="1"/>
        <pt x="739" y="597" on="0"/>
        <pt x="748" y="554" on="1"/>
        <pt x="754" y="533" on="0"/>
        <pt x="750" y="506" on="1"/>
        <pt x="740" y="421" on="0"/>
        <pt x="655" y="356" on="1"/>
        <pt x="604" y="317" on="0"/>
        <pt x="541" y="301" on="1"/>
        <pt x="505" y="291" on="0"/>
        <pt x="448" y="291" on="1"/>
        <pt x="434" y="291" on="0"/>
        <pt x="396" y="291" on="1"/>
        <pt x="309" y="291" on="1"/>
        <pt x="281" y="177" on="1"/>
        <pt x="252" y="62" on="0"/>
        <pt x="254" y="61" on="1"/>
        <pt x="256" y="59" on="0"/>
        <pt x="261" y="59" on="1"/>
        <pt x="277" y="56" on="0"/>
        <pt x="319" y="56" on="1"/>
        <pt x="342" y="56" on="0"/>
        <pt x="344" y="54" on="1"/>
        <pt x="350" y="52" on="0"/>
        <pt x="350" y="45" on="1"/>
        <pt x="340" y="6" on="1"/>
        <pt x="336" y="0" on="0"/>
        <pt x="320" y="1" on="1"/>
        <pt x="315" y="1" on="0"/>
        <pt x="297" y="1" on="1"/>
        <pt x="214" y="5" on="0"/>
        <pt x="88" y="2" on="1"/>
        <pt x="76" y="1" on="0"/>
        <pt x="69" y="1" on="1"/>
        <pt x="34" y="0" on="0"/>
        <pt x="30" y="6" on="1"/>
        <pt x="28" y="9" on="0"/>
        <pt x="32" y="29" on="1"/>
        <pt x="37" y="51" on="0"/>
        <pt x="42" y="54" on="1"/>
        <pt x="47" y="56" on="0"/>
        <pt x="78" y="56" on="1"/>
        <pt x="134" y="57" on="0"/>
        <pt x="141" y="64" on="1"/>
        <pt x="144" y="66" on="0"/>
        <pt x="282" y="618" on="0"/>
        <pt x="282" y="620" on="1"/>
        <pt x="282" y="621" on="0"/>
        <pt x="280" y="623" on="1"/>
        <pt x="276" y="625" on="0"/>
        <pt x="226" y="627" on="1"/>
        <pt x="192" y="627" on="1"/>
        <pt x="188" y="631" on="1"/>
        <pt x="184" y="635" on="0"/>
        <pt x="189" y="655" on="1"/>
        <pt x="195" y="679" on="0"/>
      </contour>
      <contour>
        <pt x="544" y="626" on="1"/>
        <pt x="402" y="626" on="1"/>
        <pt x="392" y="625" on="0"/>
        <pt x="389" y="620" on="1"/>
        <pt x="354" y="482" on="1"/>
        <pt x="319" y="345" on="0"/>
        <pt x="319" y="344" on="1"/>
        <pt x="319" y="342" on="0"/>
        <pt x="397" y="342" on="1"/>
        <pt x="483" y="343" on="0"/>
        <pt x="506" y="348" on="1"/>
        <pt x="560" y="359" on="0"/>
        <pt x="587" y="393" on="1"/>
        <pt x="609" y="422" on="0"/>
        <pt x="624" y="486" on="1"/>
        <pt x="635" y="529" on="0"/>
        <pt x="635" y="552" on="1"/>
        <pt x="635" y="578" on="0"/>
        <pt x="624" y="593" on="1"/>
        <pt x="600" y="622" on="0"/>
      </contour>
    </TTGlyph>
    <TTGlyph name="Q" xMin="47" yMin="-205" xMax="757" yMax="706">
      <contour>
        <pt x="459" y="704" on="1"/>
        <pt x="484" y="706" on="0"/>
        <pt x="524" y="703" on="1"/>
        <pt x="610" y="691" on="0"/>
        <pt x="666" y="633" on="1"/>
        <pt x="721" y="578" on="0"/>
        <pt x="735" y="492" on="1"/>
        <pt x="757" y="362" on="0"/>
        <pt x="684" y="228" on="1"/>
        <pt x="670" y="203" on="0"/>
        <pt x="653" y="179" on="1"/>
        <pt x="627" y="142" on="0"/>
        <pt x="592" y="107" on="1"/>
        <pt x="532" y="49" on="0"/>
        <pt x="463" y="17" on="1"/>
        <pt x="448" y="9" on="0"/>
        <pt x="448" y="8" on="1"/>
        <pt x="448" y="6" on="0"/>
        <pt x="450" y="-4" on="1"/>
        <pt x="463" y="-58" on="0"/>
        <pt x="494" y="-69" on="1"/>
        <pt x="511" y="-75" on="0"/>
        <pt x="536" y="-71" on="1"/>
        <pt x="595" y="-60" on="0"/>
        <pt x="620" y="-17" on="1"/>
        <pt x="624" y="-10" on="0"/>
        <pt x="626" y="-3" on="1"/>
        <pt x="630" y="11" on="0"/>
        <pt x="638" y="11" on="1"/>
        <pt x="647" y="11" on="0"/>
        <pt x="649" y="2" on="1"/>
        <pt x="649" y="-4" on="0"/>
        <pt x="642" y="-27" on="1"/>
        <pt x="625" y="-77" on="0"/>
        <pt x="605" y="-109" on="1"/>
        <pt x="574" y="-161" on="0"/>
        <pt x="531" y="-183" on="1"/>
        <pt x="482" y="-205" on="0"/>
        <pt x="444" y="-186" on="1"/>
        <pt x="423" y="-176" on="0"/>
        <pt x="412" y="-155" on="1"/>
        <pt x="400" y="-133" on="0"/>
        <pt x="399" y="-88" on="1"/>
        <pt x="399" y="-29" on="0"/>
        <pt x="402" y="-11" on="1"/>
        <pt x="402" y="-7" on="1"/>
        <pt x="387" y="-11" on="1"/>
        <pt x="246" y="-47" on="0"/>
        <pt x="146" y="29" on="1"/>
        <pt x="136" y="37" on="0"/>
        <pt x="126" y="46" on="1"/>
        <pt x="66" y="105" on="0"/>
        <pt x="51" y="201" on="1"/>
        <pt x="47" y="233" on="0"/>
        <pt x="50" y="282" on="1"/>
        <pt x="51" y="286" on="0"/>
        <pt x="51" y="289" on="1"/>
        <pt x="69" y="426" on="0"/>
        <pt x="167" y="541" on="1"/>
        <pt x="195" y="573" on="0"/>
        <pt x="227" y="601" on="1"/>
        <pt x="338" y="693" on="0"/>
      </contour>
      <contour>
        <pt x="505" y="652" on="1"/>
        <pt x="475" y="658" on="0"/>
        <pt x="458" y="654" on="1"/>
        <pt x="451" y="654" on="0"/>
        <pt x="447" y="653" on="1"/>
        <pt x="386" y="645" on="0"/>
        <pt x="325" y="597" on="1"/>
        <pt x="288" y="566" on="0"/>
        <pt x="258" y="524" on="1"/>
        <pt x="197" y="435" on="0"/>
        <pt x="172" y="305" on="1"/>
        <pt x="161" y="246" on="0"/>
        <pt x="162" y="204" on="1"/>
        <pt x="163" y="166" on="0"/>
        <pt x="173" y="134" on="1"/>
        <pt x="189" y="86" on="0"/>
        <pt x="224" y="59" on="1"/>
        <pt x="231" y="53" on="1"/>
        <pt x="233" y="62" on="1"/>
        <pt x="239" y="108" on="0"/>
        <pt x="283" y="139" on="1"/>
        <pt x="316" y="162" on="0"/>
        <pt x="351" y="160" on="1"/>
        <pt x="403" y="157" on="0"/>
        <pt x="425" y="104" on="1"/>
        <pt x="435" y="77" on="0"/>
        <pt x="436" y="70" on="1"/>
        <pt x="436" y="66" on="0"/>
        <pt x="437" y="66" on="1"/>
        <pt x="447" y="73" on="1"/>
        <pt x="568" y="158" on="0"/>
        <pt x="613" y="359" on="1"/>
        <pt x="626" y="412" on="0"/>
        <pt x="627" y="460" on="1"/>
        <pt x="627" y="498" on="0"/>
        <pt x="622" y="524" on="1"/>
        <pt x="602" y="621" on="0"/>
        <pt x="522" y="647" on="1"/>
        <pt x="514" y="650" on="0"/>
      </contour>
      <contour>
        <pt x="356" y="112" on="1"/>
        <pt x="330" y="116" on="0"/>
        <pt x="308" y="103" on="1"/>
        <pt x="291" y="91" on="0"/>
        <pt x="286" y="79" on="1"/>
        <pt x="271" y="50" on="0"/>
        <pt x="291" y="33" on="1"/>
        <pt x="293" y="31" on="0"/>
        <pt x="296" y="30" on="1"/>
        <pt x="307" y="25" on="0"/>
        <pt x="334" y="29" on="1"/>
        <pt x="367" y="33" on="0"/>
        <pt x="396" y="45" on="1"/>
        <pt x="401" y="47" on="1"/>
        <pt x="401" y="54" on="1"/>
        <pt x="397" y="75" on="0"/>
        <pt x="392" y="86" on="1"/>
        <pt x="381" y="108" on="0"/>
      </contour>
    </TTGlyph>
    <TTGlyph name="R" xMin="28" yMin="-21" xMax="760" yMax="683">
      <contour>
        <pt x="199" y="682" on="1"/>
        <pt x="201" y="683" on="0"/>
        <pt x="375" y="683" on="1"/>
        <pt x="557" y="682" on="0"/>
        <pt x="574" y="679" on="1"/>
        <pt x="576" y="678" on="0"/>
        <pt x="583" y="677" on="1"/>
        <pt x="675" y="660" on="0"/>
        <pt x="716" y="598" on="1"/>
        <pt x="739" y="564" on="0"/>
        <pt x="738" y="524" on="1"/>
        <pt x="737" y="496" on="0"/>
        <pt x="723" y="467" on="1"/>
        <pt x="709" y="439" on="0"/>
        <pt x="684" y="415" on="1"/>
        <pt x="635" y="366" on="0"/>
        <pt x="549" y="336" on="1"/>
        <pt x="548" y="336" on="0"/>
        <pt x="552" y="333" on="1"/>
        <pt x="554" y="331" on="0"/>
        <pt x="556" y="330" on="1"/>
        <pt x="591" y="306" on="0"/>
        <pt x="605" y="266" on="1"/>
        <pt x="614" y="238" on="0"/>
        <pt x="610" y="188" on="1"/>
        <pt x="609" y="177" on="0"/>
        <pt x="607" y="160" on="1"/>
        <pt x="602" y="108" on="0"/>
        <pt x="602" y="84" on="1"/>
        <pt x="603" y="47" on="0"/>
        <pt x="616" y="34" on="1"/>
        <pt x="625" y="26" on="0"/>
        <pt x="643" y="26" on="1"/>
        <pt x="654" y="26" on="0"/>
        <pt x="659" y="28" on="1"/>
        <pt x="671" y="33" on="0"/>
        <pt x="683" y="47" on="1"/>
        <pt x="696" y="66" on="0"/>
        <pt x="703" y="86" on="1"/>
        <pt x="708" y="102" on="0"/>
        <pt x="715" y="104" on="1"/>
        <pt x="719" y="105" on="0"/>
        <pt x="730" y="105" on="1"/>
        <pt x="749" y="105" on="0"/>
        <pt x="753" y="100" on="1"/>
        <pt x="760" y="92" on="0"/>
        <pt x="743" y="58" on="1"/>
        <pt x="713" y="-5" on="0"/>
        <pt x="661" y="-19" on="1"/>
        <pt x="653" y="-21" on="0"/>
        <pt x="631" y="-21" on="1"/>
        <pt x="605" y="-21" on="0"/>
        <pt x="597" y="-20" on="1"/>
        <pt x="500" y="-7" on="0"/>
        <pt x="480" y="60" on="1"/>
        <pt x="474" y="80" on="0"/>
        <pt x="478" y="105" on="1"/>
        <pt x="483" y="130" on="0"/>
        <pt x="492" y="166" on="1"/>
        <pt x="502" y="206" on="0"/>
        <pt x="506" y="226" on="1"/>
        <pt x="511" y="253" on="0"/>
        <pt x="498" y="279" on="1"/>
        <pt x="493" y="288" on="0"/>
        <pt x="485" y="296" on="1"/>
        <pt x="468" y="312" on="0"/>
        <pt x="443" y="317" on="1"/>
        <pt x="439" y="318" on="0"/>
        <pt x="375" y="318" on="1"/>
        <pt x="313" y="318" on="1"/>
        <pt x="312" y="314" on="1"/>
        <pt x="312" y="315" on="0"/>
        <pt x="280" y="187" on="1"/>
        <pt x="249" y="62" on="0"/>
        <pt x="250" y="61" on="1"/>
        <pt x="252" y="59" on="0"/>
        <pt x="257" y="59" on="1"/>
        <pt x="269" y="56" on="0"/>
        <pt x="317" y="56" on="1"/>
        <pt x="342" y="56" on="0"/>
        <pt x="346" y="49" on="1"/>
        <pt x="347" y="45" on="0"/>
        <pt x="343" y="26" on="1"/>
        <pt x="338" y="7" on="0"/>
        <pt x="334" y="3" on="1"/>
        <pt x="331" y="0" on="1"/>
        <pt x="316" y="0" on="1"/>
        <pt x="207" y="5" on="0"/>
        <pt x="66" y="1" on="1"/>
        <pt x="33" y="0" on="0"/>
        <pt x="29" y="7" on="1"/>
        <pt x="28" y="10" on="0"/>
        <pt x="32" y="30" on="1"/>
        <pt x="38" y="50" on="0"/>
        <pt x="40" y="53" on="1"/>
        <pt x="44" y="56" on="1"/>
        <pt x="78" y="56" on="1"/>
        <pt x="134" y="57" on="0"/>
        <pt x="141" y="64" on="1"/>
        <pt x="144" y="66" on="0"/>
        <pt x="282" y="618" on="0"/>
        <pt x="282" y="620" on="1"/>
        <pt x="282" y="621" on="0"/>
        <pt x="280" y="623" on="1"/>
        <pt x="276" y="625" on="0"/>
        <pt x="226" y="627" on="1"/>
        <pt x="192" y="627" on="1"/>
        <pt x="188" y="631" on="1"/>
        <pt x="185" y="634" on="0"/>
        <pt x="185" y="637" on="1"/>
        <pt x="196" y="678" on="1"/>
        <pt x="196" y="679" on="0"/>
      </contour>
      <contour>
        <pt x="538" y="625" on="1"/>
        <pt x="532" y="626" on="0"/>
        <pt x="468" y="627" on="1"/>
        <pt x="402" y="626" on="1"/>
        <pt x="392" y="625" on="0"/>
        <pt x="389" y="620" on="1"/>
        <pt x="325" y="365" on="1"/>
        <pt x="392" y="365" on="1"/>
        <pt x="465" y="366" on="0"/>
        <pt x="472" y="367" on="1"/>
        <pt x="563" y="380" on="0"/>
        <pt x="593" y="441" on="1"/>
        <pt x="609" y="474" on="0"/>
        <pt x="619" y="527" on="1"/>
        <pt x="623" y="553" on="0"/>
        <pt x="619" y="571" on="1"/>
        <pt x="607" y="615" on="0"/>
      </contour>
    </TTGlyph>
    <TTGlyph name="S" xMin="52" yMin="-23" xMax="646" yMax="708">
      <contour>
        <pt x="407" y="704" on="1"/>
        <pt x="459" y="703" on="1"/>
        <pt x="487" y="698" on="0"/>
        <pt x="512" y="686" on="1"/>
        <pt x="538" y="674" on="0"/>
        <pt x="557" y="650" on="1"/>
        <pt x="561" y="646" on="0"/>
        <pt x="562" y="645" on="1"/>
        <pt x="591" y="674" on="1"/>
        <pt x="620" y="703" on="0"/>
        <pt x="621" y="704" on="1"/>
        <pt x="626" y="708" on="0"/>
        <pt x="641" y="704" on="1"/>
        <pt x="644" y="701" on="0"/>
        <pt x="645" y="699" on="1"/>
        <pt x="646" y="695" on="0"/>
        <pt x="617" y="579" on="1"/>
        <pt x="587" y="461" on="0"/>
        <pt x="585" y="459" on="1"/>
        <pt x="582" y="456" on="1"/>
        <pt x="564" y="456" on="1"/>
        <pt x="541" y="456" on="0"/>
        <pt x="539" y="462" on="1"/>
        <pt x="538" y="465" on="0"/>
        <pt x="540" y="475" on="1"/>
        <pt x="549" y="545" on="0"/>
        <pt x="529" y="590" on="1"/>
        <pt x="505" y="640" on="0"/>
        <pt x="445" y="650" on="1"/>
        <pt x="421" y="654" on="0"/>
        <pt x="392" y="650" on="1"/>
        <pt x="354" y="642" on="0"/>
        <pt x="321" y="610" on="1"/>
        <pt x="264" y="554" on="0"/>
        <pt x="275" y="491" on="1"/>
        <pt x="281" y="448" on="0"/>
        <pt x="321" y="432" on="1"/>
        <pt x="390" y="413" on="1"/>
        <pt x="429" y="403" on="0"/>
        <pt x="464" y="393" on="1"/>
        <pt x="490" y="382" on="0"/>
        <pt x="512" y="360" on="1"/>
        <pt x="528" y="344" on="0"/>
        <pt x="538" y="323" on="1"/>
        <pt x="566" y="264" on="0"/>
        <pt x="548" y="192" on="1"/>
        <pt x="525" y="94" on="0"/>
        <pt x="440" y="28" on="1"/>
        <pt x="433" y="23" on="0"/>
        <pt x="426" y="18" on="1"/>
        <pt x="391" y="-3" on="0"/>
        <pt x="367" y="-11" on="1"/>
        <pt x="330" y="-23" on="0"/>
        <pt x="291" y="-22" on="1"/>
        <pt x="229" y="-19" on="0"/>
        <pt x="187" y="2" on="1"/>
        <pt x="167" y="11" on="0"/>
        <pt x="146" y="31" on="1"/>
        <pt x="137" y="40" on="1"/>
        <pt x="136" y="40" on="0"/>
        <pt x="108" y="10" on="1"/>
        <pt x="77" y="-21" on="1"/>
        <pt x="67" y="-22" on="1"/>
        <pt x="66" y="-22" on="1"/>
        <pt x="58" y="-22" on="0"/>
        <pt x="52" y="-16" on="0"/>
        <pt x="52" y="-14" on="1"/>
        <pt x="52" y="-11" on="0"/>
        <pt x="110" y="221" on="1"/>
        <pt x="112" y="227" on="0"/>
        <pt x="135" y="227" on="1"/>
        <pt x="153" y="227" on="1"/>
        <pt x="156" y="224" on="1"/>
        <pt x="160" y="220" on="0"/>
        <pt x="157" y="203" on="1"/>
        <pt x="157" y="201" on="0"/>
        <pt x="156" y="198" on="1"/>
        <pt x="149" y="161" on="0"/>
        <pt x="154" y="136" on="1"/>
        <pt x="174" y="39" on="0"/>
        <pt x="301" y="34" on="1"/>
        <pt x="327" y="34" on="0"/>
        <pt x="345" y="40" on="1"/>
        <pt x="401" y="58" on="0"/>
        <pt x="435" y="118" on="1"/>
        <pt x="449" y="141" on="0"/>
        <pt x="454" y="166" on="1"/>
        <pt x="466" y="226" on="0"/>
        <pt x="435" y="262" on="1"/>
        <pt x="425" y="272" on="0"/>
        <pt x="409" y="279" on="1"/>
        <pt x="340" y="298" on="1"/>
        <pt x="264" y="318" on="0"/>
        <pt x="247" y="327" on="1"/>
        <pt x="179" y="366" on="0"/>
        <pt x="176" y="451" on="1"/>
        <pt x="174" y="487" on="0"/>
        <pt x="187" y="525" on="1"/>
        <pt x="218" y="619" on="0"/>
        <pt x="308" y="671" on="1"/>
        <pt x="320" y="678" on="0"/>
        <pt x="333" y="684" on="1"/>
        <pt x="367" y="700" on="0"/>
        <pt x="396" y="703" on="1"/>
        <pt x="400" y="704" on="0"/>
      </contour>
    </TTGlyph>
    <TTGlyph name="T" xMin="17" yMin="0" xMax="705" yMax="677">
      <contour>
        <pt x="98" y="674" on="1"/>
        <pt x="101" y="677" on="1"/>
        <pt x="398" y="677" on="1"/>
        <pt x="698" y="677" on="0"/>
        <pt x="703" y="671" on="1"/>
        <pt x="705" y="666" on="0"/>
        <pt x="686" y="551" on="1"/>
        <pt x="666" y="433" on="0"/>
        <pt x="665" y="432" on="1"/>
        <pt x="661" y="427" on="0"/>
        <pt x="641" y="427" on="1"/>
        <pt x="620" y="427" on="0"/>
        <pt x="618" y="433" on="1"/>
        <pt x="616" y="437" on="0"/>
        <pt x="619" y="458" on="1"/>
        <pt x="634" y="549" on="0"/>
        <pt x="625" y="580" on="1"/>
        <pt x="616" y="610" on="0"/>
        <pt x="562" y="619" on="1"/>
        <pt x="553" y="620" on="0"/>
        <pt x="504" y="620" on="1"/>
        <pt x="447" y="621" on="0"/>
        <pt x="442" y="615" on="1"/>
        <pt x="440" y="613" on="0"/>
        <pt x="372" y="338" on="1"/>
        <pt x="303" y="63" on="1"/>
        <pt x="306" y="61" on="1"/>
        <pt x="319" y="56" on="0"/>
        <pt x="405" y="56" on="1"/>
        <pt x="436" y="56" on="1"/>
        <pt x="440" y="53" on="1"/>
        <pt x="443" y="49" on="0"/>
        <pt x="443" y="46" on="1"/>
        <pt x="434" y="6" on="1"/>
        <pt x="431" y="0" on="0"/>
        <pt x="414" y="1" on="1"/>
        <pt x="408" y="1" on="0"/>
        <pt x="385" y="1" on="1"/>
        <pt x="176" y="5" on="0"/>
        <pt x="59" y="0" on="1"/>
        <pt x="44" y="0" on="1"/>
        <pt x="41" y="3" on="1"/>
        <pt x="36" y="8" on="0"/>
        <pt x="40" y="26" on="1"/>
        <pt x="40" y="28" on="0"/>
        <pt x="41" y="30" on="1"/>
        <pt x="46" y="52" on="0"/>
        <pt x="50" y="54" on="1"/>
        <pt x="53" y="56" on="0"/>
        <pt x="85" y="56" on="1"/>
        <pt x="152" y="56" on="0"/>
        <pt x="172" y="59" on="1"/>
        <pt x="188" y="60" on="0"/>
        <pt x="194" y="66" on="1"/>
        <pt x="196" y="69" on="0"/>
        <pt x="264" y="343" on="1"/>
        <pt x="333" y="618" on="0"/>
        <pt x="333" y="619" on="1"/>
        <pt x="329" y="621" on="0"/>
        <pt x="271" y="621" on="1"/>
        <pt x="225" y="620" on="0"/>
        <pt x="215" y="618" on="1"/>
        <pt x="157" y="609" on="0"/>
        <pt x="130" y="576" on="1"/>
        <pt x="104" y="544" on="0"/>
        <pt x="74" y="455" on="1"/>
        <pt x="66" y="433" on="0"/>
        <pt x="66" y="432" on="1"/>
        <pt x="62" y="427" on="0"/>
        <pt x="22" y="427" on="0"/>
        <pt x="18" y="434" on="1"/>
        <pt x="17" y="437" on="1"/>
        <pt x="55" y="554" on="1"/>
        <pt x="95" y="671" on="0"/>
      </contour>
    </TTGlyph>
    <TTGlyph name="U" xMin="51" yMin="-25" xMax="773" yMax="683">
      <contour>
        <pt x="76" y="682" on="1"/>
        <pt x="78" y="683" on="0"/>
        <pt x="94" y="683" on="1"/>
        <pt x="215" y="678" on="0"/>
        <pt x="346" y="682" on="1"/>
        <pt x="378" y="683" on="0"/>
        <pt x="382" y="676" on="1"/>
        <pt x="384" y="673" on="0"/>
        <pt x="379" y="653" on="1"/>
        <pt x="374" y="634" on="0"/>
        <pt x="372" y="630" on="1"/>
        <pt x="369" y="627" on="1"/>
        <pt x="334" y="627" on="1"/>
        <pt x="284" y="626" on="0"/>
        <pt x="276" y="622" on="1"/>
        <pt x="271" y="620" on="0"/>
        <pt x="269" y="615" on="1"/>
        <pt x="263" y="601" on="0"/>
        <pt x="216" y="411" on="1"/>
        <pt x="164" y="202" on="0"/>
        <pt x="163" y="196" on="1"/>
        <pt x="143" y="94" on="0"/>
        <pt x="195" y="56" on="1"/>
        <pt x="211" y="43" on="0"/>
        <pt x="244" y="36" on="1"/>
        <pt x="275" y="32" on="0"/>
        <pt x="307" y="37" on="1"/>
        <pt x="398" y="52" on="0"/>
        <pt x="455" y="127" on="1"/>
        <pt x="481" y="162" on="0"/>
        <pt x="496" y="206" on="1"/>
        <pt x="594" y="597" on="1"/>
        <pt x="594" y="612" on="0"/>
        <pt x="578" y="618" on="1"/>
        <pt x="560" y="627" on="0"/>
        <pt x="521" y="627" on="1"/>
        <pt x="510" y="627" on="1"/>
        <pt x="506" y="630" on="1"/>
        <pt x="503" y="634" on="0"/>
        <pt x="503" y="637" on="1"/>
        <pt x="514" y="678" on="1"/>
        <pt x="517" y="683" on="0"/>
        <pt x="541" y="682" on="1"/>
        <pt x="544" y="682" on="0"/>
        <pt x="550" y="682" on="1"/>
        <pt x="618" y="678" on="0"/>
        <pt x="721" y="681" on="1"/>
        <pt x="731" y="682" on="0"/>
        <pt x="737" y="682" on="1"/>
        <pt x="767" y="683" on="0"/>
        <pt x="771" y="676" on="1"/>
        <pt x="773" y="673" on="0"/>
        <pt x="763" y="633" on="0"/>
        <pt x="760" y="630" on="1"/>
        <pt x="757" y="627" on="1"/>
        <pt x="746" y="627" on="1"/>
        <pt x="673" y="627" on="0"/>
        <pt x="652" y="595" on="1"/>
        <pt x="647" y="580" on="0"/>
        <pt x="604" y="404" on="1"/>
        <pt x="554" y="209" on="0"/>
        <pt x="554" y="208" on="1"/>
        <pt x="522" y="110" on="0"/>
        <pt x="442" y="46" on="1"/>
        <pt x="352" y="-25" on="0"/>
        <pt x="255" y="-22" on="1"/>
        <pt x="200" y="-19" on="0"/>
        <pt x="158" y="2" on="1"/>
        <pt x="131" y="16" on="0"/>
        <pt x="112" y="35" on="1"/>
        <pt x="71" y="75" on="0"/>
        <pt x="59" y="130" on="1"/>
        <pt x="51" y="166" on="0"/>
        <pt x="58" y="208" on="1"/>
        <pt x="58" y="210" on="0"/>
        <pt x="109" y="418" on="1"/>
        <pt x="159" y="614" on="0"/>
        <pt x="159" y="620" on="1"/>
        <pt x="159" y="621" on="0"/>
        <pt x="157" y="623" on="1"/>
        <pt x="153" y="625" on="0"/>
        <pt x="103" y="627" on="1"/>
        <pt x="69" y="627" on="1"/>
        <pt x="65" y="631" on="1"/>
        <pt x="62" y="634" on="0"/>
        <pt x="62" y="637" on="1"/>
        <pt x="73" y="678" on="1"/>
        <pt x="73" y="679" on="0"/>
      </contour>
    </TTGlyph>
    <TTGlyph name="V" xMin="49" yMin="-22" xMax="769" yMax="683">
      <contour>
        <pt x="62" y="681" on="1"/>
        <pt x="65" y="683" on="1"/>
        <pt x="79" y="683" on="1"/>
        <pt x="173" y="678" on="0"/>
        <pt x="309" y="682" on="1"/>
        <pt x="342" y="683" on="0"/>
        <pt x="346" y="676" on="1"/>
        <pt x="348" y="673" on="0"/>
        <pt x="343" y="653" on="1"/>
        <pt x="337" y="631" on="0"/>
        <pt x="333" y="629" on="1"/>
        <pt x="330" y="628" on="0"/>
        <pt x="310" y="627" on="1"/>
        <pt x="286" y="625" on="0"/>
        <pt x="278" y="625" on="1"/>
        <pt x="257" y="621" on="0"/>
        <pt x="253" y="618" on="1"/>
        <pt x="252" y="617" on="0"/>
        <pt x="278" y="379" on="1"/>
        <pt x="304" y="140" on="0"/>
        <pt x="305" y="137" on="1"/>
        <pt x="305" y="136" on="0"/>
        <pt x="308" y="140" on="1"/>
        <pt x="317" y="153" on="0"/>
        <pt x="444" y="360" on="1"/>
        <pt x="585" y="594" on="0"/>
        <pt x="584" y="591" on="1"/>
        <pt x="588" y="601" on="0"/>
        <pt x="587" y="607" on="1"/>
        <pt x="582" y="624" on="0"/>
        <pt x="543" y="627" on="1"/>
        <pt x="528" y="627" on="0"/>
        <pt x="524" y="634" on="1"/>
        <pt x="523" y="637" on="0"/>
        <pt x="527" y="657" on="1"/>
        <pt x="532" y="676" on="0"/>
        <pt x="536" y="680" on="1"/>
        <pt x="539" y="683" on="1"/>
        <pt x="551" y="683" on="1"/>
        <pt x="634" y="679" on="0"/>
        <pt x="706" y="681" on="1"/>
        <pt x="755" y="683" on="1"/>
        <pt x="762" y="683" on="1"/>
        <pt x="765" y="680" on="1"/>
        <pt x="769" y="676" on="0"/>
        <pt x="769" y="672" on="1"/>
        <pt x="769" y="656" on="0"/>
        <pt x="759" y="633" on="1"/>
        <pt x="757" y="627" on="0"/>
        <pt x="737" y="627" on="1"/>
        <pt x="687" y="624" on="0"/>
        <pt x="659" y="604" on="1"/>
        <pt x="651" y="597" on="0"/>
        <pt x="640" y="583" on="1"/>
        <pt x="633" y="573" on="0"/>
        <pt x="456" y="283" on="1"/>
        <pt x="275" y="-13" on="0"/>
        <pt x="274" y="-14" on="1"/>
        <pt x="274" y="-15" on="0"/>
        <pt x="266" y="-20" on="1"/>
        <pt x="261" y="-22" on="0"/>
        <pt x="239" y="-22" on="1"/>
        <pt x="218" y="-22" on="0"/>
        <pt x="213" y="-19" on="1"/>
        <pt x="210" y="-16" on="0"/>
        <pt x="210" y="-14" on="1"/>
        <pt x="210" y="-8" on="0"/>
        <pt x="174" y="303" on="1"/>
        <pt x="140" y="619" on="0"/>
        <pt x="138" y="621" on="1"/>
        <pt x="137" y="622" on="0"/>
        <pt x="131" y="624" on="1"/>
        <pt x="119" y="627" on="0"/>
        <pt x="77" y="627" on="1"/>
        <pt x="53" y="627" on="0"/>
        <pt x="51" y="633" on="1"/>
        <pt x="49" y="636" on="0"/>
        <pt x="53" y="656" on="1"/>
        <pt x="58" y="677" on="0"/>
      </contour>
    </TTGlyph>
    <TTGlyph name="W" xMin="48" yMin="-22" xMax="1048" yMax="683">
      <contour>
        <pt x="61" y="680" on="1"/>
        <pt x="64" y="683" on="1"/>
        <pt x="77" y="683" on="1"/>
        <pt x="166" y="678" on="0"/>
        <pt x="303" y="682" on="1"/>
        <pt x="336" y="683" on="0"/>
        <pt x="340" y="676" on="1"/>
        <pt x="341" y="673" on="0"/>
        <pt x="336" y="653" on="1"/>
        <pt x="332" y="634" on="0"/>
        <pt x="328" y="630" on="1"/>
        <pt x="325" y="627" on="1"/>
        <pt x="311" y="627" on="1"/>
        <pt x="264" y="627" on="0"/>
        <pt x="246" y="619" on="1"/>
        <pt x="242" y="617" on="1"/>
        <pt x="242" y="610" on="1"/>
        <pt x="243" y="606" on="0"/>
        <pt x="258" y="380" on="1"/>
        <pt x="272" y="155" on="1"/>
        <pt x="495" y="548" on="1"/>
        <pt x="489" y="620" on="1"/>
        <pt x="489" y="621" on="1"/>
        <pt x="489" y="622" on="0"/>
        <pt x="484" y="624" on="1"/>
        <pt x="473" y="627" on="0"/>
        <pt x="434" y="627" on="1"/>
        <pt x="412" y="627" on="0"/>
        <pt x="409" y="634" on="1"/>
        <pt x="407" y="637" on="0"/>
        <pt x="412" y="657" on="1"/>
        <pt x="418" y="678" on="0"/>
        <pt x="420" y="680" on="1"/>
        <pt x="423" y="683" on="1"/>
        <pt x="436" y="683" on="1"/>
        <pt x="524" y="678" on="0"/>
        <pt x="662" y="682" on="1"/>
        <pt x="695" y="683" on="0"/>
        <pt x="699" y="676" on="1"/>
        <pt x="700" y="673" on="0"/>
        <pt x="696" y="653" on="1"/>
        <pt x="691" y="634" on="0"/>
        <pt x="687" y="630" on="1"/>
        <pt x="684" y="627" on="1"/>
        <pt x="670" y="627" on="1"/>
        <pt x="624" y="627" on="0"/>
        <pt x="606" y="619" on="1"/>
        <pt x="601" y="617" on="1"/>
        <pt x="601" y="611" on="1"/>
        <pt x="602" y="607" on="0"/>
        <pt x="617" y="381" on="1"/>
        <pt x="631" y="166" on="0"/>
        <pt x="631" y="155" on="1"/>
        <pt x="633" y="151" on="0"/>
        <pt x="850" y="540" on="1"/>
        <pt x="878" y="592" on="0"/>
        <pt x="879" y="594" on="1"/>
        <pt x="883" y="603" on="0"/>
        <pt x="875" y="611" on="1"/>
        <pt x="857" y="627" on="0"/>
        <pt x="818" y="627" on="1"/>
        <pt x="808" y="627" on="0"/>
        <pt x="805" y="634" on="1"/>
        <pt x="803" y="637" on="0"/>
        <pt x="808" y="657" on="1"/>
        <pt x="814" y="678" on="0"/>
        <pt x="816" y="680" on="1"/>
        <pt x="819" y="683" on="1"/>
        <pt x="832" y="683" on="1"/>
        <pt x="898" y="681" on="1"/>
        <pt x="952" y="680" on="0"/>
        <pt x="990" y="681" on="1"/>
        <pt x="1035" y="683" on="1"/>
        <pt x="1041" y="683" on="0"/>
        <pt x="1044" y="680" on="1"/>
        <pt x="1048" y="676" on="0"/>
        <pt x="1048" y="673" on="1"/>
        <pt x="1038" y="634" on="1"/>
        <pt x="1038" y="633" on="1"/>
        <pt x="1035" y="627" on="0"/>
        <pt x="1024" y="627" on="1"/>
        <pt x="989" y="627" on="0"/>
        <pt x="963" y="615" on="1"/>
        <pt x="942" y="605" on="0"/>
        <pt x="928" y="584" on="1"/>
        <pt x="924" y="578" on="0"/>
        <pt x="594" y="-6" on="0"/>
        <pt x="586" y="-18" on="0"/>
        <pt x="582" y="-19" on="1"/>
        <pt x="577" y="-22" on="0"/>
        <pt x="559" y="-22" on="1"/>
        <pt x="540" y="-22" on="0"/>
        <pt x="537" y="-20" on="1"/>
        <pt x="533" y="-16" on="1"/>
        <pt x="532" y="-15" on="0"/>
        <pt x="516" y="223" on="1"/>
        <pt x="501" y="467" on="0"/>
        <pt x="501" y="462" on="1"/>
        <pt x="501" y="463" on="0"/>
        <pt x="473" y="415" on="1"/>
        <pt x="444" y="364" on="0"/>
        <pt x="366" y="226" on="1"/>
        <pt x="229" y="-14" on="0"/>
        <pt x="227" y="-16" on="1"/>
        <pt x="221" y="-22" on="0"/>
        <pt x="197" y="-22" on="1"/>
        <pt x="179" y="-21" on="1"/>
        <pt x="176" y="-18" on="1"/>
        <pt x="173" y="-15" on="0"/>
        <pt x="173" y="-10" on="1"/>
        <pt x="172" y="-8" on="0"/>
        <pt x="152" y="306" on="1"/>
        <pt x="133" y="617" on="0"/>
        <pt x="131" y="620" on="1"/>
        <pt x="130" y="622" on="0"/>
        <pt x="125" y="624" on="1"/>
        <pt x="107" y="627" on="0"/>
        <pt x="75" y="627" on="1"/>
        <pt x="53" y="627" on="0"/>
        <pt x="49" y="634" on="1"/>
        <pt x="48" y="637" on="1"/>
        <pt x="53" y="657" on="1"/>
        <pt x="57" y="676" on="0"/>
      </contour>
    </TTGlyph>
    <TTGlyph name="X" xMin="26" yMin="0" xMax="852" yMax="683">
      <contour>
        <pt x="209" y="680" on="1"/>
        <pt x="212" y="683" on="1"/>
        <pt x="224" y="683" on="1"/>
        <pt x="285" y="679" on="0"/>
        <pt x="407" y="681" on="1"/>
        <pt x="485" y="683" on="0"/>
        <pt x="484" y="683" on="1"/>
        <pt x="494" y="683" on="1"/>
        <pt x="497" y="680" on="1"/>
        <pt x="501" y="676" on="0"/>
        <pt x="501" y="672" on="1"/>
        <pt x="501" y="656" on="0"/>
        <pt x="491" y="633" on="1"/>
        <pt x="488" y="627" on="0"/>
        <pt x="473" y="627" on="1"/>
        <pt x="453" y="626" on="0"/>
        <pt x="433" y="620" on="1"/>
        <pt x="422" y="617" on="1"/>
        <pt x="424" y="612" on="1"/>
        <pt x="491" y="438" on="1"/>
        <pt x="630" y="595" on="1"/>
        <pt x="636" y="605" on="0"/>
        <pt x="629" y="613" on="1"/>
        <pt x="618" y="626" on="0"/>
        <pt x="595" y="627" on="1"/>
        <pt x="585" y="627" on="0"/>
        <pt x="582" y="631" on="1"/>
        <pt x="579" y="634" on="0"/>
        <pt x="579" y="637" on="1"/>
        <pt x="589" y="676" on="1"/>
        <pt x="589" y="677" on="1"/>
        <pt x="592" y="683" on="0"/>
        <pt x="610" y="682" on="1"/>
        <pt x="614" y="682" on="0"/>
        <pt x="627" y="682" on="1"/>
        <pt x="771" y="678" on="0"/>
        <pt x="836" y="683" on="1"/>
        <pt x="845" y="683" on="1"/>
        <pt x="848" y="680" on="1"/>
        <pt x="852" y="676" on="0"/>
        <pt x="852" y="672" on="1"/>
        <pt x="852" y="656" on="0"/>
        <pt x="842" y="633" on="1"/>
        <pt x="840" y="627" on="0"/>
        <pt x="826" y="627" on="1"/>
        <pt x="742" y="627" on="0"/>
        <pt x="700" y="593" on="1"/>
        <pt x="682" y="579" on="0"/>
        <pt x="595" y="479" on="1"/>
        <pt x="511" y="385" on="1"/>
        <pt x="572" y="225" on="1"/>
        <pt x="633" y="66" on="0"/>
        <pt x="636" y="63" on="1"/>
        <pt x="645" y="57" on="0"/>
        <pt x="698" y="56" on="1"/>
        <pt x="731" y="56" on="1"/>
        <pt x="734" y="52" on="1"/>
        <pt x="737" y="49" on="0"/>
        <pt x="737" y="45" on="1"/>
        <pt x="737" y="29" on="0"/>
        <pt x="727" y="6" on="1"/>
        <pt x="724" y="0" on="0"/>
        <pt x="706" y="1" on="1"/>
        <pt x="702" y="1" on="0"/>
        <pt x="689" y="1" on="1"/>
        <pt x="617" y="5" on="0"/>
        <pt x="493" y="2" on="1"/>
        <pt x="482" y="1" on="0"/>
        <pt x="474" y="1" on="1"/>
        <pt x="437" y="0" on="0"/>
        <pt x="433" y="7" on="1"/>
        <pt x="432" y="10" on="0"/>
        <pt x="436" y="30" on="1"/>
        <pt x="441" y="49" on="0"/>
        <pt x="445" y="53" on="1"/>
        <pt x="448" y="56" on="0"/>
        <pt x="454" y="56" on="1"/>
        <pt x="471" y="56" on="0"/>
        <pt x="487" y="60" on="1"/>
        <pt x="511" y="65" on="0"/>
        <pt x="511" y="67" on="1"/>
        <pt x="426" y="288" on="1"/>
        <pt x="424" y="290" on="0"/>
        <pt x="273" y="116" on="1"/>
        <pt x="249" y="89" on="0"/>
        <pt x="248" y="87" on="1"/>
        <pt x="245" y="83" on="0"/>
        <pt x="245" y="78" on="1"/>
        <pt x="246" y="72" on="0"/>
        <pt x="251" y="68" on="1"/>
        <pt x="265" y="56" on="0"/>
        <pt x="287" y="56" on="1"/>
        <pt x="293" y="56" on="0"/>
        <pt x="296" y="53" on="1"/>
        <pt x="299" y="49" on="0"/>
        <pt x="299" y="46" on="1"/>
        <pt x="290" y="6" on="1"/>
        <pt x="287" y="0" on="0"/>
        <pt x="268" y="1" on="1"/>
        <pt x="263" y="1" on="0"/>
        <pt x="251" y="1" on="1"/>
        <pt x="107" y="5" on="0"/>
        <pt x="42" y="0" on="1"/>
        <pt x="33" y="0" on="1"/>
        <pt x="30" y="3" on="1"/>
        <pt x="26" y="7" on="0"/>
        <pt x="26" y="10" on="1"/>
        <pt x="35" y="49" on="1"/>
        <pt x="38" y="56" on="0"/>
        <pt x="52" y="56" on="1"/>
        <pt x="74" y="56" on="0"/>
        <pt x="100" y="60" on="1"/>
        <pt x="143" y="66" on="0"/>
        <pt x="171" y="85" on="1"/>
        <pt x="187" y="95" on="0"/>
        <pt x="281" y="201" on="1"/>
        <pt x="290" y="211" on="0"/>
        <pt x="301" y="224" on="1"/>
        <pt x="402" y="338" on="0"/>
        <pt x="404" y="339" on="1"/>
        <pt x="406" y="342" on="1"/>
        <pt x="353" y="480" on="1"/>
        <pt x="299" y="618" on="0"/>
        <pt x="299" y="619" on="1"/>
        <pt x="291" y="626" on="0"/>
        <pt x="237" y="627" on="1"/>
        <pt x="201" y="627" on="0"/>
        <pt x="197" y="634" on="1"/>
        <pt x="196" y="637" on="0"/>
        <pt x="200" y="657" on="1"/>
        <pt x="205" y="676" on="0"/>
      </contour>
    </TTGlyph>
    <TTGlyph name="Y" xMin="26" yMin="0" xMax="763" yMax="683">
      <contour>
        <pt x="42" y="682" on="1"/>
        <pt x="44" y="683" on="0"/>
        <pt x="57" y="683" on="1"/>
        <pt x="126" y="679" on="0"/>
        <pt x="239" y="681" on="1"/>
        <pt x="317" y="683" on="0"/>
        <pt x="316" y="683" on="1"/>
        <pt x="327" y="683" on="1"/>
        <pt x="330" y="680" on="1"/>
        <pt x="334" y="676" on="0"/>
        <pt x="334" y="673" on="1"/>
        <pt x="325" y="634" on="1"/>
        <pt x="323" y="627" on="0"/>
        <pt x="305" y="627" on="1"/>
        <pt x="256" y="627" on="0"/>
        <pt x="252" y="619" on="1"/>
        <pt x="346" y="344" on="1"/>
        <pt x="538" y="572" on="1"/>
        <pt x="557" y="595" on="0"/>
        <pt x="558" y="597" on="1"/>
        <pt x="561" y="603" on="0"/>
        <pt x="563" y="609" on="1"/>
        <pt x="563" y="614" on="0"/>
        <pt x="559" y="618" on="1"/>
        <pt x="552" y="626" on="0"/>
        <pt x="532" y="627" on="1"/>
        <pt x="518" y="627" on="0"/>
        <pt x="515" y="634" on="1"/>
        <pt x="513" y="637" on="0"/>
        <pt x="518" y="657" on="1"/>
        <pt x="522" y="676" on="0"/>
        <pt x="526" y="680" on="1"/>
        <pt x="529" y="683" on="1"/>
        <pt x="543" y="683" on="1"/>
        <pt x="641" y="678" on="0"/>
        <pt x="735" y="682" on="1"/>
        <pt x="758" y="683" on="0"/>
        <pt x="761" y="677" on="1"/>
        <pt x="763" y="674" on="0"/>
        <pt x="759" y="654" on="1"/>
        <pt x="753" y="630" on="0"/>
        <pt x="747" y="628" on="1"/>
        <pt x="745" y="628" on="0"/>
        <pt x="731" y="627" on="1"/>
        <pt x="670" y="624" on="0"/>
        <pt x="636" y="602" on="1"/>
        <pt x="621" y="591" on="0"/>
        <pt x="558" y="517" on="1"/>
        <pt x="536" y="491" on="0"/>
        <pt x="481" y="425" on="1"/>
        <pt x="353" y="273" on="1"/>
        <pt x="327" y="170" on="1"/>
        <pt x="301" y="65" on="0"/>
        <pt x="301" y="64" on="1"/>
        <pt x="301" y="62" on="0"/>
        <pt x="303" y="60" on="1"/>
        <pt x="307" y="58" on="0"/>
        <pt x="357" y="56" on="1"/>
        <pt x="391" y="56" on="1"/>
        <pt x="394" y="53" on="1"/>
        <pt x="400" y="49" on="0"/>
        <pt x="394" y="27" on="1"/>
        <pt x="391" y="12" on="0"/>
        <pt x="385" y="0" on="0"/>
        <pt x="369" y="1" on="1"/>
        <pt x="364" y="1" on="0"/>
        <pt x="346" y="1" on="1"/>
        <pt x="265" y="5" on="0"/>
        <pt x="138" y="2" on="1"/>
        <pt x="126" y="1" on="0"/>
        <pt x="119" y="1" on="1"/>
        <pt x="84" y="0" on="0"/>
        <pt x="80" y="7" on="1"/>
        <pt x="79" y="10" on="0"/>
        <pt x="83" y="30" on="1"/>
        <pt x="89" y="50" on="0"/>
        <pt x="91" y="53" on="1"/>
        <pt x="95" y="56" on="1"/>
        <pt x="129" y="56" on="1"/>
        <pt x="188" y="57" on="0"/>
        <pt x="194" y="66" on="1"/>
        <pt x="196" y="68" on="0"/>
        <pt x="197" y="72" on="1"/>
        <pt x="223" y="176" on="1"/>
        <pt x="247" y="274" on="1"/>
        <pt x="189" y="446" on="1"/>
        <pt x="130" y="618" on="0"/>
        <pt x="121" y="623" on="1"/>
        <pt x="112" y="626" on="0"/>
        <pt x="67" y="627" on="1"/>
        <pt x="35" y="627" on="1"/>
        <pt x="31" y="631" on="1"/>
        <pt x="26" y="636" on="0"/>
        <pt x="32" y="658" on="1"/>
        <pt x="38" y="679" on="0"/>
      </contour>
    </TTGlyph>
    <TTGlyph name="Z" xMin="57" yMin="0" xMax="725" yMax="683">
      <contour>
        <pt x="254" y="681" on="1"/>
        <pt x="256" y="683" on="0"/>
        <pt x="487" y="683" on="1"/>
        <pt x="718" y="683" on="1"/>
        <pt x="720" y="681" on="1"/>
        <pt x="725" y="677" on="0"/>
        <pt x="719" y="657" on="1"/>
        <pt x="716" y="643" on="1"/>
        <pt x="702" y="628" on="1"/>
        <pt x="699" y="624" on="0"/>
        <pt x="445" y="336" on="1"/>
        <pt x="201" y="60" on="1"/>
        <pt x="269" y="59" on="1"/>
        <pt x="353" y="59" on="0"/>
        <pt x="385" y="63" on="1"/>
        <pt x="458" y="73" on="0"/>
        <pt x="501" y="118" on="1"/>
        <pt x="539" y="157" on="0"/>
        <pt x="570" y="252" on="1"/>
        <pt x="582" y="288" on="0"/>
        <pt x="588" y="292" on="0"/>
        <pt x="606" y="292" on="1"/>
        <pt x="623" y="292" on="1"/>
        <pt x="627" y="289" on="1"/>
        <pt x="630" y="285" on="0"/>
        <pt x="630" y="282" on="1"/>
        <pt x="545" y="7" on="1"/>
        <pt x="544" y="5" on="0"/>
        <pt x="541" y="2" on="1"/>
        <pt x="538" y="0" on="0"/>
        <pt x="300" y="0" on="1"/>
        <pt x="63" y="0" on="0"/>
        <pt x="61" y="2" on="1"/>
        <pt x="57" y="5" on="0"/>
        <pt x="61" y="22" on="1"/>
        <pt x="65" y="40" on="1"/>
        <pt x="68" y="46" on="0"/>
        <pt x="324" y="335" on="1"/>
        <pt x="581" y="627" on="1"/>
        <pt x="517" y="627" on="1"/>
        <pt x="437" y="627" on="0"/>
        <pt x="406" y="623" on="1"/>
        <pt x="305" y="608" on="0"/>
        <pt x="258" y="517" on="1"/>
        <pt x="244" y="488" on="0"/>
        <pt x="235" y="459" on="1"/>
        <pt x="229" y="439" on="0"/>
        <pt x="226" y="436" on="1"/>
        <pt x="223" y="433" on="1"/>
        <pt x="205" y="433" on="1"/>
        <pt x="187" y="433" on="1"/>
        <pt x="184" y="436" on="1"/>
        <pt x="183" y="437" on="0"/>
        <pt x="180" y="442" on="1"/>
        <pt x="180" y="448" on="0"/>
        <pt x="214" y="560" on="1"/>
        <pt x="248" y="673" on="0"/>
        <pt x="250" y="677" on="1"/>
        <pt x="250" y="681" on="0"/>
      </contour>
    </TTGlyph>
    <TTGlyph name="a" xMin="25" yMin="-26" xMax="514" yMax="442">
      <contour>
        <pt x="266" y="441" on="1"/>
        <pt x="267" y="442" on="0"/>
        <pt x="284" y="442" on="1"/>
        <pt x="302" y="440" on="0"/>
        <pt x="309" y="439" on="1"/>
        <pt x="342" y="429" on="0"/>
        <pt x="363" y="405" on="1"/>
        <pt x="368" y="398" on="1"/>
        <pt x="375" y="405" on="1"/>
        <pt x="402" y="430" on="0"/>
        <pt x="431" y="419" on="1"/>
        <pt x="446" y="414" on="0"/>
        <pt x="451" y="400" on="1"/>
        <pt x="455" y="388" on="0"/>
        <pt x="446" y="350" on="1"/>
        <pt x="440" y="324" on="0"/>
        <pt x="418" y="237" on="1"/>
        <pt x="383" y="100" on="0"/>
        <pt x="381" y="86" on="1"/>
        <pt x="377" y="64" on="0"/>
        <pt x="382" y="50" on="1"/>
        <pt x="388" y="34" on="0"/>
        <pt x="405" y="36" on="1"/>
        <pt x="417" y="37" on="0"/>
        <pt x="430" y="55" on="1"/>
        <pt x="444" y="76" on="0"/>
        <pt x="459" y="133" on="1"/>
        <pt x="463" y="150" on="0"/>
        <pt x="468" y="152" on="1"/>
        <pt x="471" y="153" on="0"/>
        <pt x="487" y="153" on="1"/>
        <pt x="506" y="153" on="0"/>
        <pt x="508" y="151" on="1"/>
        <pt x="514" y="147" on="0"/>
        <pt x="508" y="128" on="1"/>
        <pt x="482" y="35" on="0"/>
        <pt x="441" y="5" on="1"/>
        <pt x="425" y="-7" on="0"/>
        <pt x="409" y="-10" on="1"/>
        <pt x="388" y="-13" on="0"/>
        <pt x="364" y="-7" on="1"/>
        <pt x="319" y="3" on="0"/>
        <pt x="300" y="40" on="1"/>
        <pt x="297" y="47" on="1"/>
        <pt x="291" y="42" on="1"/>
        <pt x="212" y="-26" on="0"/>
        <pt x="135" y="-6" on="1"/>
        <pt x="113" y="0" on="0"/>
        <pt x="94" y="12" on="1"/>
        <pt x="37" y="52" on="0"/>
        <pt x="29" y="131" on="1"/>
        <pt x="25" y="158" on="0"/>
        <pt x="30" y="189" on="1"/>
        <pt x="43" y="273" on="0"/>
        <pt x="99" y="343" on="1"/>
        <pt x="118" y="366" on="0"/>
        <pt x="141" y="385" on="1"/>
        <pt x="198" y="432" on="0"/>
        <pt x="256" y="440" on="1"/>
        <pt x="260" y="441" on="0"/>
      </contour>
      <contour>
        <pt x="295" y="392" on="1"/>
        <pt x="275" y="397" on="0"/>
        <pt x="262" y="394" on="1"/>
        <pt x="231" y="388" on="0"/>
        <pt x="202" y="359" on="1"/>
        <pt x="173" y="328" on="0"/>
        <pt x="151" y="249" on="1"/>
        <pt x="146" y="231" on="0"/>
        <pt x="140" y="207" on="1"/>
        <pt x="123" y="139" on="0"/>
        <pt x="123" y="106" on="1"/>
        <pt x="123" y="75" on="0"/>
        <pt x="136" y="57" on="1"/>
        <pt x="155" y="32" on="0"/>
        <pt x="189" y="37" on="1"/>
        <pt x="227" y="41" on="0"/>
        <pt x="267" y="81" on="1"/>
        <pt x="285" y="99" on="0"/>
        <pt x="294" y="114" on="1"/>
        <pt x="294" y="111" on="0"/>
        <pt x="321" y="219" on="1"/>
        <pt x="346" y="322" on="1"/>
        <pt x="345" y="329" on="1"/>
        <pt x="332" y="379" on="0"/>
      </contour>
    </TTGlyph>
    <TTGlyph name="ampersand" xMin="31" yMin="-110" xMax="401" yMax="445">
      <contour>
        <pt x="275" y="441" on="1"/>
        <pt x="309" y="445" on="0"/>
        <pt x="335" y="439" on="1"/>
        <pt x="373" y="431" on="0"/>
        <pt x="392" y="413" on="1"/>
        <pt x="401" y="404" on="0"/>
        <pt x="401" y="392" on="1"/>
        <pt x="401" y="383" on="0"/>
        <pt x="398" y="377" on="1"/>
        <pt x="387" y="357" on="0"/>
        <pt x="369" y="359" on="1"/>
        <pt x="367" y="359" on="0"/>
        <pt x="365" y="360" on="1"/>
        <pt x="361" y="362" on="0"/>
        <pt x="354" y="368" on="1"/>
        <pt x="321" y="395" on="0"/>
        <pt x="295" y="395" on="1"/>
        <pt x="248" y="395" on="0"/>
        <pt x="204" y="373" on="1"/>
        <pt x="173" y="359" on="0"/>
        <pt x="146" y="332" on="1"/>
        <pt x="108" y="292" on="0"/>
        <pt x="108" y="245" on="1"/>
        <pt x="108" y="218" on="0"/>
        <pt x="121" y="198" on="1"/>
        <pt x="136" y="180" on="0"/>
        <pt x="150" y="170" on="1"/>
        <pt x="157" y="167" on="0"/>
        <pt x="227" y="127" on="1"/>
        <pt x="298" y="88" on="0"/>
        <pt x="303" y="84" on="1"/>
        <pt x="319" y="73" on="0"/>
        <pt x="329" y="54" on="1"/>
        <pt x="338" y="38" on="0"/>
        <pt x="339" y="17" on="1"/>
        <pt x="340" y="-9" on="0"/>
        <pt x="327" y="-39" on="1"/>
        <pt x="300" y="-93" on="0"/>
        <pt x="245" y="-106" on="1"/>
        <pt x="242" y="-106" on="0"/>
        <pt x="239" y="-107" on="1"/>
        <pt x="224" y="-110" on="0"/>
        <pt x="202" y="-106" on="1"/>
        <pt x="161" y="-96" on="0"/>
        <pt x="154" y="-85" on="1"/>
        <pt x="146" y="-72" on="0"/>
        <pt x="161" y="-58" on="1"/>
        <pt x="164" y="-56" on="0"/>
        <pt x="168" y="-54" on="1"/>
        <pt x="178" y="-48" on="0"/>
        <pt x="189" y="-52" on="1"/>
        <pt x="204" y="-59" on="0"/>
        <pt x="216" y="-60" on="1"/>
        <pt x="236" y="-63" on="0"/>
        <pt x="243" y="-57" on="1"/>
        <pt x="258" y="-48" on="0"/>
        <pt x="258" y="-27" on="1"/>
        <pt x="258" y="-10" on="0"/>
        <pt x="242" y="3" on="1"/>
        <pt x="238" y="6" on="0"/>
        <pt x="171" y="44" on="1"/>
        <pt x="101" y="83" on="0"/>
        <pt x="96" y="87" on="1"/>
        <pt x="72" y="102" on="0"/>
        <pt x="58" y="123" on="1"/>
        <pt x="39" y="150" on="0"/>
        <pt x="33" y="180" on="1"/>
        <pt x="31" y="189" on="0"/>
        <pt x="31" y="210" on="1"/>
        <pt x="31" y="230" on="0"/>
        <pt x="33" y="241" on="1"/>
        <pt x="38" y="267" on="0"/>
        <pt x="51" y="292" on="1"/>
        <pt x="68" y="327" on="0"/>
        <pt x="101" y="360" on="1"/>
        <pt x="172" y="428" on="0"/>
      </contour>
    </TTGlyph>
    <TTGlyph name="asciicircum" xMin="49" yMin="131" xMax="951" yMax="385">
      <contour>
        <pt x="72" y="382" on="1"/>
        <pt x="80" y="385" on="0"/>
        <pt x="91" y="381" on="1"/>
        <pt x="94" y="379" on="0"/>
        <pt x="107" y="364" on="1"/>
        <pt x="154" y="305" on="0"/>
        <pt x="223" y="267" on="1"/>
        <pt x="349" y="197" on="0"/>
        <pt x="527" y="204" on="1"/>
        <pt x="579" y="206" on="0"/>
        <pt x="629" y="215" on="1"/>
        <pt x="799" y="248" on="0"/>
        <pt x="892" y="364" on="1"/>
        <pt x="903" y="379" on="0"/>
        <pt x="909" y="381" on="1"/>
        <pt x="913" y="383" on="0"/>
        <pt x="920" y="383" on="1"/>
        <pt x="930" y="381" on="1"/>
        <pt x="951" y="369" on="0"/>
        <pt x="942" y="347" on="1"/>
        <pt x="932" y="329" on="0"/>
        <pt x="886" y="283" on="1"/>
        <pt x="831" y="228" on="0"/>
        <pt x="754" y="190" on="1"/>
        <pt x="665" y="147" on="0"/>
        <pt x="554" y="135" on="1"/>
        <pt x="506" y="131" on="0"/>
        <pt x="449" y="135" on="1"/>
        <pt x="447" y="135" on="0"/>
        <pt x="445" y="135" on="1"/>
        <pt x="334" y="147" on="0"/>
        <pt x="245" y="190" on="1"/>
        <pt x="168" y="228" on="0"/>
        <pt x="113" y="283" on="1"/>
        <pt x="67" y="329" on="0"/>
        <pt x="57" y="347" on="1"/>
        <pt x="49" y="365" on="0"/>
        <pt x="64" y="378" on="1"/>
        <pt x="68" y="381" on="0"/>
      </contour>
    </TTGlyph>
    <TTGlyph name="asciitilde" xMin="175" yMin="511" xMax="624" yMax="716">
      <contour>
        <pt x="543" y="713" on="1"/>
        <pt x="555" y="716" on="0"/>
        <pt x="562" y="709" on="1"/>
        <pt x="567" y="705" on="0"/>
        <pt x="572" y="690" on="1"/>
        <pt x="582" y="653" on="0"/>
        <pt x="613" y="633" on="1"/>
        <pt x="624" y="626" on="0"/>
        <pt x="624" y="615" on="1"/>
        <pt x="624" y="608" on="0"/>
        <pt x="622" y="605" on="1"/>
        <pt x="618" y="600" on="0"/>
        <pt x="607" y="594" on="1"/>
        <pt x="564" y="572" on="0"/>
        <pt x="532" y="531" on="1"/>
        <pt x="522" y="520" on="0"/>
        <pt x="518" y="518" on="1"/>
        <pt x="500" y="511" on="0"/>
        <pt x="492" y="528" on="1"/>
        <pt x="487" y="540" on="0"/>
        <pt x="505" y="563" on="1"/>
        <pt x="514" y="573" on="0"/>
        <pt x="530" y="589" on="1"/>
        <pt x="537" y="595" on="1"/>
        <pt x="366" y="595" on="1"/>
        <pt x="195" y="596" on="1"/>
        <pt x="191" y="599" on="1"/>
        <pt x="175" y="610" on="0"/>
        <pt x="185" y="625" on="1"/>
        <pt x="187" y="628" on="0"/>
        <pt x="191" y="631" on="1"/>
        <pt x="195" y="635" on="1"/>
        <pt x="374" y="635" on="1"/>
        <pt x="554" y="635" on="1"/>
        <pt x="549" y="643" on="1"/>
        <pt x="530" y="673" on="0"/>
        <pt x="530" y="694" on="1"/>
        <pt x="530" y="708" on="0"/>
      </contour>
    </TTGlyph>
    <TTGlyph name="asterisk" xMin="56" yMin="230" xMax="944" yMax="514">
      <contour>
        <pt x="697" y="509" on="1"/>
        <pt x="704" y="514" on="0"/>
        <pt x="725" y="509" on="1"/>
        <pt x="728" y="508" on="0"/>
        <pt x="735" y="491" on="1"/>
        <pt x="744" y="469" on="0"/>
        <pt x="768" y="425" on="1"/>
        <pt x="824" y="333" on="0"/>
        <pt x="912" y="276" on="1"/>
        <pt x="932" y="264" on="0"/>
        <pt x="933" y="263" on="1"/>
        <pt x="944" y="252" on="0"/>
        <pt x="944" y="245" on="1"/>
        <pt x="944" y="237" on="0"/>
        <pt x="940" y="233" on="1"/>
        <pt x="937" y="230" on="1"/>
        <pt x="504" y="230" on="1"/>
        <pt x="70" y="230" on="1"/>
        <pt x="66" y="232" on="1"/>
        <pt x="60" y="236" on="0"/>
        <pt x="59" y="239" on="1"/>
        <pt x="56" y="243" on="0"/>
        <pt x="56" y="257" on="0"/>
        <pt x="59" y="261" on="1"/>
        <pt x="60" y="264" on="0"/>
        <pt x="66" y="268" on="1"/>
        <pt x="70" y="270" on="1"/>
        <pt x="461" y="270" on="1"/>
        <pt x="852" y="270" on="1"/>
        <pt x="848" y="273" on="1"/>
        <pt x="830" y="287" on="0"/>
        <pt x="808" y="309" on="1"/>
        <pt x="732" y="387" on="0"/>
        <pt x="696" y="484" on="1"/>
        <pt x="691" y="497" on="0"/>
        <pt x="691" y="500" on="1"/>
        <pt x="691" y="507" on="0"/>
      </contour>
    </TTGlyph>
    <TTGlyph name="at" xMin="33" yMin="-21" xMax="567" yMax="717">
      <contour>
        <pt x="328" y="715" on="1"/>
        <pt x="350" y="717" on="0"/>
        <pt x="384" y="714" on="1"/>
        <pt x="487" y="695" on="0"/>
        <pt x="534" y="601" on="1"/>
        <pt x="563" y="543" on="0"/>
        <pt x="566" y="467" on="1"/>
        <pt x="567" y="404" on="0"/>
        <pt x="544" y="316" on="1"/>
        <pt x="525" y="244" on="0"/>
        <pt x="492" y="179" on="1"/>
        <pt x="463" y="121" on="0"/>
        <pt x="423" y="74" on="1"/>
        <pt x="363" y="8" on="0"/>
        <pt x="285" y="-14" on="1"/>
        <pt x="257" y="-21" on="0"/>
        <pt x="225" y="-21" on="1"/>
        <pt x="194" y="-21" on="0"/>
        <pt x="171" y="-16" on="1"/>
        <pt x="111" y="-1" on="0"/>
        <pt x="73" y="57" on="1"/>
        <pt x="51" y="91" on="0"/>
        <pt x="45" y="121" on="1"/>
        <pt x="33" y="180" on="0"/>
        <pt x="61" y="262" on="1"/>
        <pt x="79" y="313" on="0"/>
        <pt x="111" y="354" on="1"/>
        <pt x="139" y="388" on="0"/>
        <pt x="167" y="410" on="1"/>
        <pt x="216" y="451" on="0"/>
        <pt x="268" y="464" on="1"/>
        <pt x="290" y="469" on="0"/>
        <pt x="320" y="469" on="1"/>
        <pt x="342" y="469" on="0"/>
        <pt x="351" y="467" on="1"/>
        <pt x="416" y="453" on="0"/>
        <pt x="445" y="393" on="1"/>
        <pt x="449" y="385" on="0"/>
        <pt x="450" y="386" on="1"/>
        <pt x="451" y="389" on="0"/>
        <pt x="455" y="409" on="1"/>
        <pt x="469" y="467" on="0"/>
        <pt x="470" y="511" on="1"/>
        <pt x="471" y="552" on="0"/>
        <pt x="461" y="583" on="1"/>
        <pt x="442" y="638" on="0"/>
        <pt x="388" y="658" on="1"/>
        <pt x="339" y="676" on="0"/>
        <pt x="291" y="656" on="1"/>
        <pt x="287" y="655" on="0"/>
        <pt x="284" y="653" on="1"/>
        <pt x="257" y="640" on="0"/>
        <pt x="242" y="620" on="1"/>
        <pt x="236" y="613" on="0"/>
        <pt x="235" y="612" on="1"/>
        <pt x="235" y="611" on="0"/>
        <pt x="239" y="611" on="1"/>
        <pt x="249" y="608" on="1"/>
        <pt x="250" y="607" on="1"/>
        <pt x="279" y="594" on="0"/>
        <pt x="273" y="558" on="1"/>
        <pt x="269" y="536" on="0"/>
        <pt x="253" y="519" on="1"/>
        <pt x="234" y="500" on="0"/>
        <pt x="207" y="498" on="1"/>
        <pt x="169" y="497" on="0"/>
        <pt x="158" y="527" on="1"/>
        <pt x="156" y="534" on="0"/>
        <pt x="156" y="542" on="1"/>
        <pt x="156" y="554" on="0"/>
        <pt x="165" y="581" on="1"/>
        <pt x="178" y="618" on="0"/>
        <pt x="206" y="652" on="1"/>
        <pt x="254" y="706" on="0"/>
      </contour>
      <contour>
        <pt x="347" y="422" on="1"/>
        <pt x="331" y="424" on="0"/>
        <pt x="311" y="422" on="1"/>
        <pt x="262" y="416" on="0"/>
        <pt x="225" y="379" on="1"/>
        <pt x="197" y="351" on="0"/>
        <pt x="177" y="281" on="1"/>
        <pt x="170" y="259" on="0"/>
        <pt x="161" y="223" on="1"/>
        <pt x="135" y="115" on="0"/>
        <pt x="145" y="83" on="1"/>
        <pt x="148" y="73" on="0"/>
        <pt x="154" y="64" on="1"/>
        <pt x="173" y="34" on="0"/>
        <pt x="227" y="31" on="1"/>
        <pt x="283" y="29" on="0"/>
        <pt x="330" y="69" on="1"/>
        <pt x="366" y="100" on="0"/>
        <pt x="391" y="169" on="1"/>
        <pt x="398" y="189" on="0"/>
        <pt x="406" y="217" on="1"/>
        <pt x="420" y="267" on="0"/>
        <pt x="420" y="307" on="1"/>
        <pt x="420" y="337" on="0"/>
        <pt x="415" y="357" on="1"/>
        <pt x="410" y="375" on="0"/>
        <pt x="401" y="387" on="1"/>
        <pt x="381" y="418" on="0"/>
      </contour>
    </TTGlyph>
    <TTGlyph name="b" xMin="33" yMin="-22" xMax="434" yMax="694">
      <contour>
        <pt x="161" y="688" on="1"/>
        <pt x="241" y="694" on="0"/>
        <pt x="239" y="694" on="1"/>
        <pt x="248" y="694" on="0"/>
        <pt x="251" y="687" on="1"/>
        <pt x="252" y="683" on="0"/>
        <pt x="218" y="546" on="1"/>
        <pt x="183" y="406" on="0"/>
        <pt x="183" y="407" on="1"/>
        <pt x="183" y="405" on="0"/>
        <pt x="193" y="412" on="1"/>
        <pt x="225" y="432" on="0"/>
        <pt x="257" y="440" on="1"/>
        <pt x="286" y="444" on="0"/>
        <pt x="311" y="439" on="1"/>
        <pt x="353" y="430" on="0"/>
        <pt x="381" y="402" on="1"/>
        <pt x="406" y="377" on="0"/>
        <pt x="417" y="341" on="1"/>
        <pt x="434" y="291" on="0"/>
        <pt x="422" y="232" on="1"/>
        <pt x="402" y="123" on="0"/>
        <pt x="319" y="51" on="1"/>
        <pt x="304" y="38" on="0"/>
        <pt x="289" y="28" on="1"/>
        <pt x="258" y="8" on="0"/>
        <pt x="231" y="-1" on="1"/>
        <pt x="166" y="-22" on="0"/>
        <pt x="116" y="2" on="1"/>
        <pt x="47" y="35" on="0"/>
        <pt x="36" y="125" on="1"/>
        <pt x="33" y="142" on="0"/>
        <pt x="36" y="182" on="1"/>
        <pt x="39" y="202" on="0"/>
        <pt x="91" y="409" on="1"/>
        <pt x="141" y="611" on="0"/>
        <pt x="137" y="619" on="1"/>
        <pt x="130" y="626" on="0"/>
        <pt x="94" y="627" on="1"/>
        <pt x="70" y="627" on="0"/>
        <pt x="67" y="634" on="1"/>
        <pt x="65" y="637" on="0"/>
        <pt x="70" y="657" on="1"/>
        <pt x="75" y="678" on="0"/>
        <pt x="78" y="680" on="1"/>
        <pt x="81" y="683" on="0"/>
        <pt x="84" y="683" on="1"/>
      </contour>
      <contour>
        <pt x="293" y="392" on="1"/>
        <pt x="272" y="398" on="0"/>
        <pt x="245" y="390" on="1"/>
        <pt x="204" y="373" on="0"/>
        <pt x="166" y="325" on="1"/>
        <pt x="161" y="318" on="1"/>
        <pt x="144" y="248" on="1"/>
        <pt x="118" y="145" on="0"/>
        <pt x="118" y="115" on="1"/>
        <pt x="118" y="73" on="0"/>
        <pt x="139" y="52" on="1"/>
        <pt x="164" y="27" on="0"/>
        <pt x="204" y="40" on="1"/>
        <pt x="243" y="53" on="0"/>
        <pt x="269" y="93" on="1"/>
        <pt x="284" y="116" on="0"/>
        <pt x="301" y="170" on="1"/>
        <pt x="318" y="234" on="0"/>
        <pt x="325" y="271" on="1"/>
        <pt x="338" y="331" on="0"/>
        <pt x="327" y="359" on="1"/>
        <pt x="317" y="384" on="0"/>
      </contour>
    </TTGlyph>
    <TTGlyph name="backslash" xMin="55" yMin="-227" xMax="334" yMax="740">
      <contour>
        <pt x="90" y="738" on="1"/>
        <pt x="99" y="740" on="0"/>
        <pt x="103" y="733" on="1"/>
        <pt x="104" y="592" on="1"/>
        <pt x="104" y="590" on="1"/>
        <pt x="105" y="448" on="1"/>
        <pt x="213" y="493" on="1"/>
        <pt x="321" y="537" on="0"/>
        <pt x="327" y="537" on="0"/>
        <pt x="330" y="534" on="1"/>
        <pt x="334" y="531" on="1"/>
        <pt x="334" y="161" on="1"/>
        <pt x="334" y="-210" on="1"/>
        <pt x="331" y="-212" on="1"/>
        <pt x="324" y="-219" on="0"/>
        <pt x="294" y="-227" on="1"/>
        <pt x="288" y="-227" on="0"/>
        <pt x="285" y="-222" on="1"/>
        <pt x="284" y="-121" on="1"/>
        <pt x="284" y="-119" on="1"/>
        <pt x="284" y="-17" on="1"/>
        <pt x="176" y="-62" on="1"/>
        <pt x="66" y="-106" on="0"/>
        <pt x="64" y="-106" on="1"/>
        <pt x="61" y="-106" on="0"/>
        <pt x="58" y="-103" on="1"/>
        <pt x="55" y="-100" on="1"/>
        <pt x="55" y="310" on="1"/>
        <pt x="55" y="721" on="1"/>
        <pt x="57" y="723" on="1"/>
        <pt x="61" y="727" on="0"/>
      </contour>
      <contour>
        <pt x="283" y="91" on="1"/>
        <pt x="284" y="91" on="0"/>
        <pt x="284" y="253" on="1"/>
        <pt x="284" y="414" on="1"/>
        <pt x="194" y="377" on="1"/>
        <pt x="105" y="340" on="1"/>
        <pt x="104" y="179" on="1"/>
        <pt x="104" y="17" on="1"/>
        <pt x="106" y="18" on="1"/>
      </contour>
    </TTGlyph>
    <TTGlyph name="bar" xMin="-14" yMin="-207" xMax="373" yMax="443">
      <contour>
        <pt x="256" y="441" on="1"/>
        <pt x="269" y="443" on="0"/>
        <pt x="295" y="440" on="1"/>
        <pt x="345" y="429" on="0"/>
        <pt x="365" y="389" on="1"/>
        <pt x="373" y="372" on="0"/>
        <pt x="373" y="348" on="1"/>
        <pt x="373" y="332" on="1"/>
        <pt x="324" y="135" on="1"/>
        <pt x="274" y="-65" on="0"/>
        <pt x="272" y="-69" on="1"/>
        <pt x="267" y="-88" on="0"/>
        <pt x="254" y="-108" on="1"/>
        <pt x="229" y="-147" on="0"/>
        <pt x="188" y="-174" on="1"/>
        <pt x="134" y="-207" on="0"/>
        <pt x="80" y="-205" on="1"/>
        <pt x="43" y="-204" on="0"/>
        <pt x="17" y="-185" on="1"/>
        <pt x="-14" y="-164" on="0"/>
        <pt x="-9" y="-126" on="1"/>
        <pt x="-6" y="-100" on="0"/>
        <pt x="13" y="-81" on="1"/>
        <pt x="20" y="-74" on="0"/>
        <pt x="30" y="-69" on="1"/>
        <pt x="62" y="-54" on="0"/>
        <pt x="87" y="-68" on="1"/>
        <pt x="110" y="-79" on="0"/>
        <pt x="108" y="-108" on="1"/>
        <pt x="106" y="-133" on="0"/>
        <pt x="89" y="-152" on="1"/>
        <pt x="84" y="-158" on="1"/>
        <pt x="90" y="-158" on="1"/>
        <pt x="128" y="-158" on="0"/>
        <pt x="158" y="-113" on="1"/>
        <pt x="170" y="-95" on="0"/>
        <pt x="179" y="-70" on="1"/>
        <pt x="191" y="-37" on="0"/>
        <pt x="275" y="310" on="1"/>
        <pt x="283" y="341" on="0"/>
        <pt x="283" y="344" on="1"/>
        <pt x="289" y="390" on="0"/>
        <pt x="267" y="395" on="1"/>
        <pt x="245" y="397" on="0"/>
        <pt x="224" y="385" on="1"/>
        <pt x="178" y="360" on="0"/>
        <pt x="151" y="294" on="1"/>
        <pt x="143" y="281" on="0"/>
        <pt x="143" y="280" on="1"/>
        <pt x="141" y="278" on="0"/>
        <pt x="122" y="278" on="1"/>
        <pt x="103" y="278" on="1"/>
        <pt x="100" y="281" on="1"/>
        <pt x="95" y="286" on="0"/>
        <pt x="102" y="301" on="1"/>
        <pt x="136" y="386" on="0"/>
        <pt x="204" y="423" on="1"/>
        <pt x="206" y="425" on="0"/>
        <pt x="209" y="426" on="1"/>
        <pt x="234" y="439" on="0"/>
      </contour>
    </TTGlyph>
    <TTGlyph name="braceleft" xMin="14" yMin="-10" xMax="308" yMax="443">
      <contour>
        <pt x="143" y="440" on="1"/>
        <pt x="157" y="443" on="0"/>
        <pt x="179" y="441" on="1"/>
        <pt x="237" y="430" on="0"/>
        <pt x="252" y="378" on="1"/>
        <pt x="257" y="357" on="0"/>
        <pt x="252" y="334" on="1"/>
        <pt x="207" y="212" on="1"/>
        <pt x="162" y="94" on="0"/>
        <pt x="161" y="89" on="1"/>
        <pt x="149" y="50" on="0"/>
        <pt x="160" y="39" on="1"/>
        <pt x="163" y="37" on="0"/>
        <pt x="171" y="37" on="1"/>
        <pt x="182" y="37" on="0"/>
        <pt x="185" y="38" on="1"/>
        <pt x="228" y="53" on="0"/>
        <pt x="251" y="127" on="1"/>
        <pt x="253" y="131" on="0"/>
        <pt x="254" y="136" on="1"/>
        <pt x="259" y="151" on="0"/>
        <pt x="264" y="152" on="1"/>
        <pt x="267" y="153" on="0"/>
        <pt x="282" y="153" on="1"/>
        <pt x="301" y="153" on="0"/>
        <pt x="303" y="151" on="1"/>
        <pt x="308" y="147" on="0"/>
        <pt x="305" y="134" on="1"/>
        <pt x="286" y="68" on="0"/>
        <pt x="245" y="27" on="1"/>
        <pt x="217" y="1" on="0"/>
        <pt x="188" y="-8" on="1"/>
        <pt x="178" y="-10" on="0"/>
        <pt x="161" y="-10" on="1"/>
        <pt x="143" y="-10" on="0"/>
        <pt x="135" y="-8" on="1"/>
        <pt x="103" y="0" on="0"/>
        <pt x="87" y="21" on="1"/>
        <pt x="75" y="35" on="0"/>
        <pt x="71" y="53" on="1"/>
        <pt x="66" y="75" on="0"/>
        <pt x="71" y="98" on="1"/>
        <pt x="117" y="221" on="1"/>
        <pt x="163" y="344" on="0"/>
        <pt x="166" y="356" on="1"/>
        <pt x="170" y="373" on="0"/>
        <pt x="166" y="386" on="1"/>
        <pt x="161" y="398" on="0"/>
        <pt x="144" y="394" on="1"/>
        <pt x="114" y="388" on="0"/>
        <pt x="90" y="348" on="1"/>
        <pt x="75" y="323" on="0"/>
        <pt x="66" y="287" on="1"/>
        <pt x="63" y="281" on="0"/>
        <pt x="62" y="280" on="1"/>
        <pt x="60" y="278" on="0"/>
        <pt x="41" y="278" on="1"/>
        <pt x="22" y="278" on="1"/>
        <pt x="19" y="281" on="1"/>
        <pt x="14" y="285" on="0"/>
        <pt x="20" y="302" on="1"/>
        <pt x="45" y="386" on="0"/>
        <pt x="101" y="423" on="1"/>
        <pt x="106" y="426" on="0"/>
        <pt x="112" y="429" on="1"/>
        <pt x="130" y="439" on="0"/>
      </contour>
    </TTGlyph>
    <TTGlyph name="braceright" xMin="61" yMin="-218" xMax="632" yMax="453">
      <contour>
        <pt x="235" y="451" on="1"/>
        <pt x="241" y="453" on="0"/>
        <pt x="253" y="453" on="0"/>
        <pt x="259" y="447" on="0"/>
        <pt x="259" y="444" on="1"/>
        <pt x="249" y="410" on="1"/>
        <pt x="249" y="409" on="1"/>
        <pt x="248" y="406" on="0"/>
        <pt x="242" y="406" on="1"/>
        <pt x="234" y="405" on="0"/>
        <pt x="221" y="395" on="1"/>
        <pt x="196" y="370" on="0"/>
        <pt x="177" y="322" on="1"/>
        <pt x="159" y="274" on="0"/>
        <pt x="152" y="225" on="1"/>
        <pt x="147" y="198" on="0"/>
        <pt x="151" y="184" on="1"/>
        <pt x="151" y="183" on="0"/>
        <pt x="153" y="185" on="1"/>
        <pt x="154" y="187" on="0"/>
        <pt x="155" y="189" on="1"/>
        <pt x="179" y="228" on="0"/>
        <pt x="211" y="265" on="1"/>
        <pt x="252" y="312" on="0"/>
        <pt x="293" y="341" on="1"/>
        <pt x="393" y="413" on="0"/>
        <pt x="494" y="410" on="1"/>
        <pt x="562" y="407" on="0"/>
        <pt x="598" y="357" on="1"/>
        <pt x="621" y="326" on="0"/>
        <pt x="628" y="284" on="1"/>
        <pt x="632" y="264" on="0"/>
        <pt x="629" y="228" on="1"/>
        <pt x="628" y="224" on="0"/>
        <pt x="628" y="222" on="1"/>
        <pt x="610" y="114" on="0"/>
        <pt x="526" y="44" on="1"/>
        <pt x="521" y="39" on="0"/>
        <pt x="515" y="35" on="1"/>
        <pt x="450" y="-13" on="0"/>
        <pt x="385" y="-11" on="1"/>
        <pt x="321" y="-8" on="0"/>
        <pt x="304" y="54" on="1"/>
        <pt x="303" y="57" on="0"/>
        <pt x="301" y="77" on="1"/>
        <pt x="301" y="95" on="0"/>
        <pt x="303" y="104" on="1"/>
        <pt x="309" y="131" on="0"/>
        <pt x="328" y="139" on="1"/>
        <pt x="336" y="143" on="0"/>
        <pt x="345" y="143" on="1"/>
        <pt x="359" y="143" on="0"/>
        <pt x="367" y="134" on="1"/>
        <pt x="374" y="127" on="0"/>
        <pt x="374" y="113" on="1"/>
        <pt x="372" y="92" on="0"/>
        <pt x="356" y="81" on="1"/>
        <pt x="350" y="79" on="0"/>
        <pt x="354" y="68" on="1"/>
        <pt x="357" y="56" on="0"/>
        <pt x="365" y="48" on="1"/>
        <pt x="379" y="34" on="0"/>
        <pt x="404" y="37" on="1"/>
        <pt x="464" y="44" on="0"/>
        <pt x="500" y="110" on="1"/>
        <pt x="506" y="121" on="0"/>
        <pt x="510" y="132" on="1"/>
        <pt x="532" y="187" on="0"/>
        <pt x="544" y="260" on="1"/>
        <pt x="545" y="266" on="0"/>
        <pt x="545" y="271" on="1"/>
        <pt x="549" y="298" on="0"/>
        <pt x="543" y="316" on="1"/>
        <pt x="530" y="363" on="0"/>
        <pt x="480" y="363" on="1"/>
        <pt x="443" y="363" on="0"/>
        <pt x="404" y="350" on="1"/>
        <pt x="335" y="326" on="0"/>
        <pt x="272" y="265" on="1"/>
        <pt x="226" y="219" on="0"/>
        <pt x="186" y="151" on="1"/>
        <pt x="177" y="135" on="1"/>
        <pt x="181" y="129" on="1"/>
        <pt x="259" y="30" on="0"/>
        <pt x="266" y="18" on="1"/>
        <pt x="276" y="-4" on="0"/>
        <pt x="277" y="-29" on="1"/>
        <pt x="277" y="-52" on="0"/>
        <pt x="272" y="-75" on="1"/>
        <pt x="261" y="-126" on="0"/>
        <pt x="228" y="-168" on="1"/>
        <pt x="196" y="-204" on="0"/>
        <pt x="163" y="-213" on="1"/>
        <pt x="143" y="-218" on="0"/>
        <pt x="121" y="-214" on="1"/>
        <pt x="106" y="-209" on="0"/>
        <pt x="94" y="-201" on="1"/>
        <pt x="67" y="-181" on="0"/>
        <pt x="61" y="-132" on="1"/>
        <pt x="61" y="-78" on="1"/>
        <pt x="68" y="-6" on="0"/>
        <pt x="95" y="65" on="1"/>
        <pt x="101" y="83" on="0"/>
        <pt x="100" y="86" on="1"/>
        <pt x="90" y="101" on="0"/>
        <pt x="86" y="117" on="1"/>
        <pt x="80" y="139" on="0"/>
        <pt x="80" y="168" on="1"/>
        <pt x="80" y="208" on="0"/>
        <pt x="92" y="257" on="1"/>
        <pt x="112" y="334" on="0"/>
        <pt x="154" y="390" on="1"/>
        <pt x="166" y="408" on="0"/>
        <pt x="190" y="429" on="1"/>
        <pt x="212" y="446" on="0"/>
      </contour>
      <contour>
        <pt x="171" y="-6" on="1"/>
        <pt x="139" y="34" on="0"/>
        <pt x="138" y="35" on="1"/>
        <pt x="136" y="38" on="1"/>
        <pt x="133" y="26" on="1"/>
        <pt x="117" y="-19" on="0"/>
        <pt x="109" y="-76" on="1"/>
        <pt x="105" y="-109" on="0"/>
        <pt x="109" y="-137" on="1"/>
        <pt x="117" y="-168" on="0"/>
        <pt x="147" y="-168" on="1"/>
        <pt x="156" y="-168" on="0"/>
        <pt x="161" y="-165" on="1"/>
        <pt x="190" y="-147" on="0"/>
        <pt x="202" y="-94" on="1"/>
        <pt x="207" y="-69" on="0"/>
        <pt x="203" y="-50" on="1"/>
        <pt x="200" y="-44" on="0"/>
      </contour>
    </TTGlyph>
    <TTGlyph name="bracketleft" xMin="55" yMin="-22" xMax="333" yMax="750">
      <contour>
        <pt x="60" y="748" on="1"/>
        <pt x="63" y="750" on="0"/>
        <pt x="81" y="750" on="1"/>
        <pt x="98" y="750" on="1"/>
        <pt x="101" y="747" on="1"/>
        <pt x="105" y="744" on="1"/>
        <pt x="105" y="594" on="1"/>
        <pt x="105" y="443" on="1"/>
        <pt x="113" y="448" on="1"/>
        <pt x="148" y="469" on="0"/>
        <pt x="197" y="471" on="1"/>
        <pt x="216" y="471" on="0"/>
        <pt x="224" y="470" on="1"/>
        <pt x="285" y="459" on="0"/>
        <pt x="316" y="397" on="1"/>
        <pt x="333" y="362" on="0"/>
        <pt x="333" y="322" on="1"/>
        <pt x="333" y="208" on="0"/>
        <pt x="238" y="99" on="1"/>
        <pt x="212" y="68" on="0"/>
        <pt x="179" y="40" on="1"/>
        <pt x="140" y="8" on="0"/>
        <pt x="112" y="-11" on="1"/>
        <pt x="98" y="-22" on="1"/>
        <pt x="80" y="-22" on="1"/>
        <pt x="62" y="-22" on="1"/>
        <pt x="59" y="-19" on="1"/>
        <pt x="56" y="-16" on="1"/>
        <pt x="55" y="362" on="1"/>
        <pt x="55" y="741" on="0"/>
        <pt x="57" y="745" on="0"/>
      </contour>
      <contour>
        <pt x="198" y="410" on="1"/>
        <pt x="175" y="421" on="0"/>
        <pt x="140" y="403" on="1"/>
        <pt x="111" y="390" on="0"/>
        <pt x="106" y="365" on="1"/>
        <pt x="105" y="360" on="0"/>
        <pt x="105" y="204" on="1"/>
        <pt x="106" y="50" on="1"/>
        <pt x="115" y="61" on="1"/>
        <pt x="206" y="173" on="0"/>
        <pt x="222" y="273" on="1"/>
        <pt x="237" y="356" on="0"/>
        <pt x="211" y="397" on="1"/>
        <pt x="206" y="406" on="0"/>
      </contour>
    </TTGlyph>
    <TTGlyph name="bracketright" xMin="55" yMin="-227" xMax="333" yMax="729">
      <contour>
        <pt x="288" y="727" on="1"/>
        <pt x="296" y="729" on="0"/>
        <pt x="301" y="722" on="1"/>
        <pt x="302" y="720" on="0"/>
        <pt x="302" y="625" on="1"/>
        <pt x="302" y="530" on="1"/>
        <pt x="303" y="530" on="0"/>
        <pt x="311" y="534" on="1"/>
        <pt x="324" y="539" on="0"/>
        <pt x="329" y="534" on="1"/>
        <pt x="333" y="531" on="1"/>
        <pt x="333" y="484" on="1"/>
        <pt x="333" y="437" on="1"/>
        <pt x="330" y="435" on="1"/>
        <pt x="329" y="433" on="0"/>
        <pt x="315" y="427" on="1"/>
        <pt x="302" y="422" on="1"/>
        <pt x="302" y="260" on="1"/>
        <pt x="302" y="99" on="1"/>
        <pt x="311" y="102" on="1"/>
        <pt x="324" y="108" on="0"/>
        <pt x="329" y="103" on="1"/>
        <pt x="333" y="100" on="1"/>
        <pt x="333" y="53" on="1"/>
        <pt x="333" y="6" on="1"/>
        <pt x="330" y="4" on="1"/>
        <pt x="329" y="2" on="0"/>
        <pt x="315" y="-4" on="1"/>
        <pt x="302" y="-9" on="1"/>
        <pt x="302" y="-75" on="1"/>
        <pt x="302" y="-140" on="1"/>
        <pt x="299" y="-143" on="1"/>
        <pt x="295" y="-147" on="0"/>
        <pt x="281" y="-152" on="1"/>
        <pt x="265" y="-159" on="0"/>
        <pt x="263" y="-159" on="1"/>
        <pt x="256" y="-159" on="0"/>
        <pt x="254" y="-154" on="1"/>
        <pt x="252" y="-150" on="0"/>
        <pt x="252" y="-91" on="1"/>
        <pt x="252" y="-30" on="1"/>
        <pt x="194" y="-54" on="1"/>
        <pt x="137" y="-78" on="1"/>
        <pt x="136" y="-144" on="1"/>
        <pt x="136" y="-210" on="1"/>
        <pt x="133" y="-212" on="1"/>
        <pt x="126" y="-219" on="0"/>
        <pt x="97" y="-227" on="1"/>
        <pt x="93" y="-227" on="0"/>
        <pt x="91" y="-226" on="1"/>
        <pt x="86" y="-223" on="0"/>
        <pt x="86" y="-197" on="1"/>
        <pt x="86" y="-188" on="0"/>
        <pt x="86" y="-159" on="1"/>
        <pt x="86" y="-99" on="1"/>
        <pt x="85" y="-99" on="0"/>
        <pt x="77" y="-103" on="1"/>
        <pt x="64" y="-108" on="0"/>
        <pt x="59" y="-103" on="1"/>
        <pt x="56" y="-100" on="1"/>
        <pt x="55" y="-55" on="1"/>
        <pt x="55" y="-6" on="0"/>
        <pt x="62" y="-1" on="1"/>
        <pt x="70" y="3" on="0"/>
        <pt x="76" y="5" on="1"/>
        <pt x="86" y="9" on="1"/>
        <pt x="86" y="171" on="1"/>
        <pt x="86" y="332" on="1"/>
        <pt x="77" y="329" on="1"/>
        <pt x="64" y="323" on="0"/>
        <pt x="59" y="328" on="1"/>
        <pt x="56" y="331" on="1"/>
        <pt x="55" y="376" on="1"/>
        <pt x="55" y="425" on="0"/>
        <pt x="62" y="430" on="1"/>
        <pt x="70" y="434" on="0"/>
        <pt x="76" y="436" on="1"/>
        <pt x="86" y="440" on="1"/>
        <pt x="86" y="540" on="1"/>
        <pt x="86" y="640" on="1"/>
        <pt x="89" y="643" on="1"/>
        <pt x="93" y="647" on="0"/>
        <pt x="107" y="652" on="1"/>
        <pt x="123" y="659" on="0"/>
        <pt x="125" y="659" on="1"/>
        <pt x="132" y="659" on="0"/>
        <pt x="134" y="654" on="1"/>
        <pt x="136" y="650" on="0"/>
        <pt x="136" y="556" on="1"/>
        <pt x="137" y="461" on="1"/>
        <pt x="194" y="485" on="1"/>
        <pt x="252" y="509" on="1"/>
        <pt x="252" y="609" on="1"/>
        <pt x="253" y="710" on="1"/>
        <pt x="255" y="712" on="1"/>
        <pt x="259" y="716" on="0"/>
      </contour>
      <contour>
        <pt x="251" y="78" on="1"/>
        <pt x="252" y="78" on="0"/>
        <pt x="252" y="240" on="1"/>
        <pt x="252" y="401" on="1"/>
        <pt x="194" y="377" on="1"/>
        <pt x="137" y="353" on="1"/>
        <pt x="136" y="192" on="1"/>
        <pt x="136" y="30" on="1"/>
        <pt x="138" y="31" on="1"/>
      </contour>
    </TTGlyph>
    <TTGlyph name="c" xMin="14" yMin="-12" xMax="433" yMax="441">
      <contour>
        <pt x="291" y="441" on="1"/>
        <pt x="332" y="441" on="1"/>
        <pt x="405" y="430" on="0"/>
        <pt x="423" y="380" on="1"/>
        <pt x="433" y="350" on="0"/>
        <pt x="418" y="319" on="1"/>
        <pt x="411" y="306" on="0"/>
        <pt x="405" y="300" on="1"/>
        <pt x="378" y="275" on="0"/>
        <pt x="347" y="280" on="1"/>
        <pt x="332" y="282" on="0"/>
        <pt x="321" y="291" on="1"/>
        <pt x="311" y="301" on="0"/>
        <pt x="309" y="315" on="1"/>
        <pt x="304" y="345" on="0"/>
        <pt x="329" y="372" on="1"/>
        <pt x="336" y="379" on="0"/>
        <pt x="344" y="383" on="1"/>
        <pt x="347" y="385" on="0"/>
        <pt x="348" y="386" on="1"/>
        <pt x="348" y="389" on="0"/>
        <pt x="321" y="394" on="1"/>
        <pt x="255" y="403" on="0"/>
        <pt x="202" y="349" on="1"/>
        <pt x="167" y="311" on="0"/>
        <pt x="146" y="231" on="1"/>
        <pt x="145" y="224" on="0"/>
        <pt x="143" y="217" on="1"/>
        <pt x="123" y="137" on="0"/>
        <pt x="127" y="105" on="1"/>
        <pt x="134" y="52" on="0"/>
        <pt x="184" y="39" on="1"/>
        <pt x="205" y="33" on="0"/>
        <pt x="246" y="39" on="1"/>
        <pt x="309" y="48" on="0"/>
        <pt x="353" y="82" on="1"/>
        <pt x="372" y="94" on="0"/>
        <pt x="385" y="111" on="1"/>
        <pt x="396" y="124" on="0"/>
        <pt x="403" y="119" on="1"/>
        <pt x="406" y="117" on="0"/>
        <pt x="414" y="109" on="1"/>
        <pt x="428" y="94" on="0"/>
        <pt x="427" y="90" on="1"/>
        <pt x="423" y="79" on="0"/>
        <pt x="392" y="53" on="1"/>
        <pt x="387" y="49" on="0"/>
        <pt x="383" y="46" on="1"/>
        <pt x="312" y="-8" on="0"/>
        <pt x="212" y="-11" on="1"/>
        <pt x="146" y="-12" on="0"/>
        <pt x="100" y="19" on="1"/>
        <pt x="77" y="33" on="0"/>
        <pt x="59" y="59" on="1"/>
        <pt x="40" y="87" on="0"/>
        <pt x="33" y="121" on="1"/>
        <pt x="14" y="214" on="0"/>
        <pt x="78" y="309" on="1"/>
        <pt x="85" y="320" on="0"/>
        <pt x="93" y="330" on="1"/>
        <pt x="110" y="352" on="0"/>
        <pt x="141" y="378" on="1"/>
        <pt x="212" y="435" on="0"/>
      </contour>
    </TTGlyph>
    <TTGlyph name="colon" xMin="67" yMin="-6" xMax="210" yMax="135">
      <contour>
        <pt x="123" y="129" on="1"/>
        <pt x="145" y="135" on="0"/>
        <pt x="168" y="124" on="1"/>
        <pt x="187" y="114" on="0"/>
        <pt x="197" y="95" on="1"/>
        <pt x="210" y="66" on="0"/>
        <pt x="197" y="36" on="1"/>
        <pt x="187" y="17" on="0"/>
        <pt x="168" y="7" on="1"/>
        <pt x="138" y="-6" on="0"/>
        <pt x="109" y="7" on="1"/>
        <pt x="90" y="17" on="0"/>
        <pt x="80" y="36" on="1"/>
        <pt x="67" y="66" on="0"/>
        <pt x="80" y="95" on="1"/>
        <pt x="92" y="121" on="0"/>
      </contour>
    </TTGlyph>
    <TTGlyph name="comma" xMin="47" yMin="228" xMax="228" yMax="464">
      <contour>
        <pt x="178" y="462" on="1"/>
        <pt x="188" y="464" on="0"/>
        <pt x="197" y="464" on="1"/>
        <pt x="207" y="464" on="0"/>
        <pt x="211" y="462" on="1"/>
        <pt x="227" y="454" on="0"/>
        <pt x="221" y="437" on="1"/>
        <pt x="219" y="431" on="0"/>
        <pt x="213" y="428" on="1"/>
        <pt x="209" y="425" on="0"/>
        <pt x="196" y="424" on="1"/>
        <pt x="136" y="419" on="0"/>
        <pt x="110" y="387" on="1"/>
        <pt x="90" y="362" on="0"/>
        <pt x="96" y="334" on="1"/>
        <pt x="104" y="304" on="0"/>
        <pt x="138" y="285" on="1"/>
        <pt x="161" y="273" on="0"/>
        <pt x="196" y="270" on="1"/>
        <pt x="209" y="269" on="0"/>
        <pt x="213" y="266" on="1"/>
        <pt x="228" y="257" on="0"/>
        <pt x="220" y="241" on="1"/>
        <pt x="217" y="235" on="0"/>
        <pt x="211" y="232" on="1"/>
        <pt x="202" y="228" on="0"/>
        <pt x="179" y="231" on="1"/>
        <pt x="131" y="238" on="0"/>
        <pt x="96" y="264" on="1"/>
        <pt x="47" y="303" on="0"/>
        <pt x="56" y="362" on="1"/>
        <pt x="62" y="403" on="0"/>
        <pt x="96" y="430" on="1"/>
        <pt x="131" y="456" on="0"/>
      </contour>
    </TTGlyph>
    <TTGlyph name="d" xMin="26" yMin="-26" xMax="529" yMax="694">
      <contour>
        <pt x="437" y="688" on="1"/>
        <pt x="517" y="694" on="0"/>
        <pt x="516" y="694" on="1"/>
        <pt x="525" y="694" on="0"/>
        <pt x="528" y="687" on="1"/>
        <pt x="529" y="683" on="0"/>
        <pt x="456" y="389" on="1"/>
        <pt x="381" y="91" on="0"/>
        <pt x="381" y="85" on="1"/>
        <pt x="377" y="64" on="0"/>
        <pt x="382" y="50" on="1"/>
        <pt x="388" y="34" on="0"/>
        <pt x="405" y="36" on="1"/>
        <pt x="417" y="37" on="0"/>
        <pt x="430" y="55" on="1"/>
        <pt x="444" y="76" on="0"/>
        <pt x="459" y="133" on="1"/>
        <pt x="463" y="150" on="0"/>
        <pt x="468" y="152" on="1"/>
        <pt x="471" y="153" on="0"/>
        <pt x="487" y="153" on="1"/>
        <pt x="506" y="153" on="0"/>
        <pt x="508" y="151" on="1"/>
        <pt x="514" y="147" on="0"/>
        <pt x="508" y="128" on="1"/>
        <pt x="482" y="35" on="0"/>
        <pt x="441" y="5" on="1"/>
        <pt x="425" y="-7" on="0"/>
        <pt x="409" y="-10" on="1"/>
        <pt x="388" y="-13" on="0"/>
        <pt x="364" y="-7" on="1"/>
        <pt x="319" y="3" on="0"/>
        <pt x="300" y="40" on="1"/>
        <pt x="297" y="47" on="1"/>
        <pt x="291" y="42" on="1"/>
        <pt x="212" y="-26" on="0"/>
        <pt x="135" y="-6" on="1"/>
        <pt x="113" y="0" on="0"/>
        <pt x="94" y="12" on="1"/>
        <pt x="37" y="52" on="0"/>
        <pt x="29" y="131" on="1"/>
        <pt x="26" y="167" on="0"/>
        <pt x="34" y="209" on="1"/>
        <pt x="49" y="274" on="0"/>
        <pt x="87" y="326" on="1"/>
        <pt x="148" y="412" on="0"/>
        <pt x="239" y="436" on="1"/>
        <pt x="256" y="441" on="0"/>
        <pt x="281" y="441" on="1"/>
        <pt x="300" y="441" on="0"/>
        <pt x="309" y="439" on="1"/>
        <pt x="336" y="432" on="0"/>
        <pt x="358" y="410" on="1"/>
        <pt x="366" y="402" on="1"/>
        <pt x="367" y="406" on="1"/>
        <pt x="367" y="404" on="0"/>
        <pt x="392" y="504" on="1"/>
        <pt x="419" y="612" on="0"/>
        <pt x="415" y="618" on="1"/>
        <pt x="409" y="627" on="0"/>
        <pt x="364" y="627" on="1"/>
        <pt x="346" y="627" on="0"/>
        <pt x="343" y="634" on="1"/>
        <pt x="342" y="639" on="0"/>
        <pt x="347" y="657" on="1"/>
        <pt x="351" y="676" on="0"/>
        <pt x="355" y="680" on="1"/>
        <pt x="358" y="683" on="0"/>
        <pt x="361" y="683" on="1"/>
        <pt x="370" y="683" on="0"/>
      </contour>
      <contour>
        <pt x="295" y="392" on="1"/>
        <pt x="275" y="397" on="0"/>
        <pt x="262" y="394" on="1"/>
        <pt x="231" y="388" on="0"/>
        <pt x="202" y="359" on="1"/>
        <pt x="173" y="328" on="0"/>
        <pt x="151" y="249" on="1"/>
        <pt x="146" y="231" on="0"/>
        <pt x="140" y="207" on="1"/>
        <pt x="123" y="139" on="0"/>
        <pt x="123" y="106" on="1"/>
        <pt x="123" y="75" on="0"/>
        <pt x="136" y="57" on="1"/>
        <pt x="160" y="25" on="0"/>
        <pt x="208" y="41" on="1"/>
        <pt x="249" y="55" on="0"/>
        <pt x="287" y="104" on="1"/>
        <pt x="294" y="113" on="1"/>
        <pt x="320" y="218" on="1"/>
        <pt x="346" y="323" on="1"/>
        <pt x="344" y="331" on="1"/>
        <pt x="330" y="380" on="0"/>
      </contour>
    </TTGlyph>
    <TTGlyph name="dollar" xMin="13" yMin="-14" xMax="831" yMax="431">
      <contour>
        <pt x="163" y="429" on="1"/>
        <pt x="169" y="431" on="0"/>
        <pt x="487" y="431" on="1"/>
        <pt x="803" y="431" on="1"/>
        <pt x="807" y="428" on="1"/>
        <pt x="823" y="421" on="0"/>
        <pt x="826" y="405" on="1"/>
        <pt x="831" y="383" on="0"/>
        <pt x="811" y="363" on="1"/>
        <pt x="796" y="348" on="0"/>
        <pt x="766" y="348" on="1"/>
        <pt x="750" y="348" on="0"/>
        <pt x="750" y="347" on="1"/>
        <pt x="750" y="345" on="0"/>
        <pt x="751" y="338" on="1"/>
        <pt x="758" y="301" on="0"/>
        <pt x="751" y="260" on="1"/>
        <pt x="743" y="208" on="0"/>
        <pt x="714" y="147" on="1"/>
        <pt x="685" y="87" on="0"/>
        <pt x="646" y="47" on="1"/>
        <pt x="618" y="21" on="0"/>
        <pt x="589" y="6" on="1"/>
        <pt x="559" y="-10" on="0"/>
        <pt x="526" y="-11" on="1"/>
        <pt x="443" y="-14" on="0"/>
        <pt x="417" y="65" on="1"/>
        <pt x="410" y="84" on="0"/>
        <pt x="408" y="107" on="1"/>
        <pt x="408" y="112" on="0"/>
        <pt x="407" y="116" on="1"/>
        <pt x="407" y="117" on="0"/>
        <pt x="404" y="114" on="1"/>
        <pt x="402" y="110" on="0"/>
        <pt x="399" y="106" on="1"/>
        <pt x="365" y="58" on="0"/>
        <pt x="327" y="30" on="1"/>
        <pt x="288" y="1" on="0"/>
        <pt x="243" y="-8" on="1"/>
        <pt x="233" y="-10" on="0"/>
        <pt x="213" y="-10" on="1"/>
        <pt x="187" y="-10" on="0"/>
        <pt x="168" y="-1" on="1"/>
        <pt x="155" y="6" on="0"/>
        <pt x="148" y="14" on="1"/>
        <pt x="115" y="49" on="0"/>
        <pt x="115" y="116" on="1"/>
        <pt x="115" y="142" on="0"/>
        <pt x="120" y="170" on="1"/>
        <pt x="134" y="254" on="0"/>
        <pt x="188" y="333" on="1"/>
        <pt x="198" y="348" on="1"/>
        <pt x="178" y="348" on="1"/>
        <pt x="155" y="348" on="0"/>
        <pt x="152" y="347" on="1"/>
        <pt x="97" y="339" on="0"/>
        <pt x="66" y="294" on="1"/>
        <pt x="60" y="286" on="0"/>
        <pt x="56" y="284" on="0"/>
        <pt x="39" y="284" on="1"/>
        <pt x="18" y="284" on="0"/>
        <pt x="14" y="291" on="1"/>
        <pt x="13" y="295" on="0"/>
        <pt x="15" y="299" on="1"/>
        <pt x="17" y="302" on="0"/>
        <pt x="27" y="318" on="1"/>
        <pt x="93" y="417" on="0"/>
      </contour>
      <contour>
        <pt x="701" y="338" on="1"/>
        <pt x="700" y="348" on="1"/>
        <pt x="476" y="348" on="1"/>
        <pt x="253" y="348" on="1"/>
        <pt x="246" y="339" on="1"/>
        <pt x="167" y="231" on="0"/>
        <pt x="169" y="145" on="1"/>
        <pt x="170" y="120" on="0"/>
        <pt x="179" y="102" on="1"/>
        <pt x="190" y="82" on="0"/>
        <pt x="209" y="75" on="1"/>
        <pt x="214" y="73" on="0"/>
        <pt x="229" y="73" on="1"/>
        <pt x="251" y="73" on="0"/>
        <pt x="270" y="79" on="1"/>
        <pt x="337" y="102" on="0"/>
        <pt x="388" y="188" on="1"/>
        <pt x="401" y="211" on="0"/>
        <pt x="411" y="236" on="1"/>
        <pt x="426" y="282" on="0"/>
        <pt x="427" y="285" on="1"/>
        <pt x="430" y="291" on="0"/>
        <pt x="431" y="292" on="1"/>
        <pt x="433" y="294" on="0"/>
        <pt x="452" y="294" on="1"/>
        <pt x="471" y="294" on="1"/>
        <pt x="474" y="291" on="1"/>
        <pt x="477" y="288" on="0"/>
        <pt x="477" y="286" on="1"/>
        <pt x="477" y="282" on="0"/>
        <pt x="474" y="270" on="1"/>
        <pt x="472" y="260" on="0"/>
        <pt x="464" y="215" on="1"/>
        <pt x="460" y="180" on="0"/>
        <pt x="464" y="147" on="1"/>
        <pt x="470" y="103" on="0"/>
        <pt x="496" y="83" on="1"/>
        <pt x="526" y="61" on="0"/>
        <pt x="572" y="79" on="1"/>
        <pt x="633" y="100" on="0"/>
        <pt x="673" y="180" on="1"/>
        <pt x="689" y="209" on="0"/>
        <pt x="697" y="242" on="1"/>
        <pt x="710" y="292" on="0"/>
      </contour>
    </TTGlyph>
    <TTGlyph name="e" xMin="34" yMin="-14" xMax="429" yMax="441">
      <contour>
        <pt x="291" y="441" on="1"/>
        <pt x="331" y="441" on="1"/>
        <pt x="403" y="430" on="0"/>
        <pt x="423" y="375" on="1"/>
        <pt x="429" y="355" on="0"/>
        <pt x="425" y="334" on="1"/>
        <pt x="408" y="257" on="0"/>
        <pt x="314" y="233" on="1"/>
        <pt x="272" y="221" on="0"/>
        <pt x="175" y="218" on="1"/>
        <pt x="143" y="218" on="1"/>
        <pt x="141" y="212" on="1"/>
        <pt x="137" y="195" on="0"/>
        <pt x="131" y="160" on="1"/>
        <pt x="127" y="128" on="0"/>
        <pt x="131" y="103" on="1"/>
        <pt x="137" y="74" on="0"/>
        <pt x="156" y="56" on="1"/>
        <pt x="179" y="35" on="0"/>
        <pt x="218" y="36" on="1"/>
        <pt x="298" y="41" on="0"/>
        <pt x="353" y="82" on="1"/>
        <pt x="372" y="94" on="0"/>
        <pt x="385" y="111" on="1"/>
        <pt x="396" y="124" on="0"/>
        <pt x="403" y="119" on="1"/>
        <pt x="406" y="117" on="0"/>
        <pt x="414" y="109" on="1"/>
        <pt x="428" y="94" on="0"/>
        <pt x="427" y="90" on="1"/>
        <pt x="426" y="85" on="0"/>
        <pt x="405" y="64" on="1"/>
        <pt x="342" y="4" on="0"/>
        <pt x="243" y="-8" on="1"/>
        <pt x="209" y="-14" on="0"/>
        <pt x="183" y="-10" on="1"/>
        <pt x="89" y="0" on="0"/>
        <pt x="52" y="85" on="1"/>
        <pt x="45" y="100" on="0"/>
        <pt x="41" y="117" on="1"/>
        <pt x="34" y="142" on="0"/>
        <pt x="34" y="180" on="1"/>
        <pt x="35" y="239" on="0"/>
        <pt x="60" y="288" on="1"/>
        <pt x="78" y="325" on="0"/>
        <pt x="109" y="356" on="1"/>
        <pt x="124" y="370" on="0"/>
        <pt x="146" y="387" on="1"/>
        <pt x="207" y="432" on="0"/>
        <pt x="278" y="440" on="1"/>
        <pt x="283" y="441" on="0"/>
      </contour>
      <contour>
        <pt x="318" y="394" on="1"/>
        <pt x="281" y="401" on="0"/>
        <pt x="240" y="380" on="1"/>
        <pt x="181" y="353" on="0"/>
        <pt x="158" y="276" on="1"/>
        <pt x="156" y="268" on="0"/>
        <pt x="155" y="267" on="1"/>
        <pt x="155" y="265" on="0"/>
        <pt x="188" y="265" on="1"/>
        <pt x="253" y="266" on="0"/>
        <pt x="286" y="274" on="1"/>
        <pt x="354" y="288" on="0"/>
        <pt x="366" y="332" on="1"/>
        <pt x="370" y="348" on="0"/>
        <pt x="365" y="360" on="1"/>
        <pt x="356" y="386" on="0"/>
      </contour>
    </TTGlyph>
    <TTGlyph name="eight" xMin="35" yMin="-24" xMax="463" yMax="666">
      <contour>
        <pt x="233" y="665" on="1"/>
        <pt x="234" y="666" on="0"/>
        <pt x="254" y="666" on="1"/>
        <pt x="299" y="665" on="0"/>
        <pt x="343" y="644" on="1"/>
        <pt x="402" y="613" on="0"/>
        <pt x="421" y="558" on="1"/>
        <pt x="422" y="555" on="0"/>
        <pt x="423" y="553" on="1"/>
        <pt x="429" y="534" on="0"/>
        <pt x="429" y="510" on="1"/>
        <pt x="430" y="489" on="0"/>
        <pt x="422" y="465" on="1"/>
        <pt x="404" y="410" on="0"/>
        <pt x="335" y="366" on="1"/>
        <pt x="328" y="361" on="1"/>
        <pt x="350" y="347" on="1"/>
        <pt x="374" y="332" on="0"/>
        <pt x="396" y="314" on="1"/>
        <pt x="463" y="249" on="0"/>
        <pt x="457" y="160" on="1"/>
        <pt x="456" y="147" on="0"/>
        <pt x="453" y="135" on="1"/>
        <pt x="444" y="91" on="0"/>
        <pt x="414" y="55" on="1"/>
        <pt x="404" y="41" on="0"/>
        <pt x="383" y="24" on="1"/>
        <pt x="343" y="-9" on="0"/>
        <pt x="282" y="-20" on="1"/>
        <pt x="260" y="-24" on="0"/>
        <pt x="224" y="-21" on="1"/>
        <pt x="221" y="-20" on="0"/>
        <pt x="219" y="-20" on="1"/>
        <pt x="178" y="-14" on="0"/>
        <pt x="143" y="4" on="1"/>
        <pt x="64" y="44" on="0"/>
        <pt x="46" y="122" on="1"/>
        <pt x="35" y="171" on="0"/>
        <pt x="54" y="220" on="1"/>
        <pt x="68" y="254" on="0"/>
        <pt x="96" y="283" on="1"/>
        <pt x="123" y="312" on="0"/>
        <pt x="159" y="332" on="1"/>
        <pt x="167" y="337" on="1"/>
        <pt x="154" y="345" on="1"/>
        <pt x="131" y="360" on="0"/>
        <pt x="116" y="375" on="1"/>
        <pt x="72" y="422" on="0"/>
        <pt x="69" y="486" on="1"/>
        <pt x="68" y="515" on="0"/>
        <pt x="78" y="546" on="1"/>
        <pt x="84" y="567" on="0"/>
        <pt x="101" y="591" on="1"/>
        <pt x="116" y="614" on="0"/>
        <pt x="141" y="631" on="1"/>
        <pt x="164" y="648" on="0"/>
        <pt x="186" y="655" on="1"/>
        <pt x="209" y="663" on="0"/>
      </contour>
      <contour>
        <pt x="267" y="615" on="1"/>
        <pt x="231" y="620" on="0"/>
        <pt x="196" y="606" on="1"/>
        <pt x="155" y="588" on="0"/>
        <pt x="142" y="554" on="1"/>
        <pt x="128" y="515" on="0"/>
        <pt x="153" y="482" on="1"/>
        <pt x="165" y="466" on="0"/>
        <pt x="217" y="433" on="1"/>
        <pt x="222" y="430" on="0"/>
        <pt x="228" y="426" on="1"/>
        <pt x="284" y="390" on="1"/>
        <pt x="288" y="392" on="1"/>
        <pt x="301" y="400" on="0"/>
        <pt x="321" y="418" on="1"/>
        <pt x="349" y="448" on="0"/>
        <pt x="358" y="480" on="1"/>
        <pt x="371" y="532" on="0"/>
        <pt x="342" y="570" on="1"/>
        <pt x="314" y="607" on="0"/>
      </contour>
      <contour>
        <pt x="268" y="271" on="1"/>
        <pt x="214" y="307" on="0"/>
        <pt x="212" y="307" on="1"/>
        <pt x="206" y="307" on="0"/>
        <pt x="183" y="287" on="1"/>
        <pt x="125" y="241" on="0"/>
        <pt x="117" y="174" on="1"/>
        <pt x="113" y="128" on="0"/>
        <pt x="136" y="91" on="1"/>
        <pt x="176" y="31" on="0"/>
        <pt x="250" y="31" on="1"/>
        <pt x="253" y="31" on="0"/>
        <pt x="257" y="31" on="1"/>
        <pt x="330" y="35" on="0"/>
        <pt x="365" y="86" on="1"/>
        <pt x="385" y="115" on="0"/>
        <pt x="383" y="148" on="1"/>
        <pt x="380" y="185" on="0"/>
        <pt x="351" y="214" on="1"/>
        <pt x="339" y="226" on="0"/>
        <pt x="273" y="268" on="1"/>
      </contour>
    </TTGlyph>
    <TTGlyph name="equal" xMin="56" yMin="-255" xMax="444" yMax="750">
      <contour>
        <pt x="417" y="749" on="1"/>
        <pt x="418" y="750" on="0"/>
        <pt x="425" y="750" on="1"/>
        <pt x="441" y="749" on="0"/>
        <pt x="444" y="734" on="1"/>
        <pt x="444" y="732" on="0"/>
        <pt x="444" y="730" on="1"/>
        <pt x="444" y="725" on="0"/>
        <pt x="269" y="244" on="1"/>
        <pt x="96" y="-233" on="0"/>
        <pt x="92" y="-240" on="1"/>
        <pt x="84" y="-255" on="0"/>
        <pt x="66" y="-248" on="1"/>
        <pt x="60" y="-242" on="0"/>
        <pt x="59" y="-241" on="1"/>
        <pt x="56" y="-237" on="0"/>
        <pt x="56" y="-231" on="1"/>
        <pt x="56" y="-224" on="0"/>
        <pt x="230" y="256" on="1"/>
        <pt x="403" y="733" on="0"/>
        <pt x="407" y="740" on="1"/>
        <pt x="410" y="745" on="0"/>
      </contour>
    </TTGlyph>
    <TTGlyph name="exclam" xMin="1" yMin="-20" xMax="607" yMax="443">
      <contour>
        <pt x="538" y="441" on="1"/>
        <pt x="549" y="443" on="0"/>
        <pt x="559" y="442" on="1"/>
        <pt x="607" y="428" on="0"/>
        <pt x="603" y="354" on="1"/>
        <pt x="603" y="351" on="0"/>
        <pt x="603" y="349" on="1"/>
        <pt x="601" y="316" on="0"/>
        <pt x="585" y="251" on="1"/>
        <pt x="565" y="173" on="0"/>
        <pt x="538" y="120" on="1"/>
        <pt x="505" y="53" on="0"/>
        <pt x="459" y="19" on="1"/>
        <pt x="440" y="3" on="0"/>
        <pt x="412" y="-6" on="1"/>
        <pt x="362" y="-20" on="0"/>
        <pt x="319" y="1" on="1"/>
        <pt x="287" y="16" on="0"/>
        <pt x="268" y="53" on="1"/>
        <pt x="265" y="60" on="1"/>
        <pt x="252" y="47" on="1"/>
        <pt x="224" y="19" on="0"/>
        <pt x="196" y="5" on="1"/>
        <pt x="145" y="-20" on="0"/>
        <pt x="97" y="-7" on="1"/>
        <pt x="78" y="-2" on="0"/>
        <pt x="60" y="12" on="1"/>
        <pt x="29" y="38" on="0"/>
        <pt x="20" y="89" on="1"/>
        <pt x="1" y="185" on="0"/>
        <pt x="50" y="310" on="1"/>
        <pt x="72" y="367" on="0"/>
        <pt x="103" y="411" on="1"/>
        <pt x="116" y="429" on="0"/>
        <pt x="126" y="434" on="1"/>
        <pt x="132" y="437" on="0"/>
        <pt x="150" y="437" on="0"/>
        <pt x="154" y="435" on="1"/>
        <pt x="168" y="428" on="0"/>
        <pt x="168" y="412" on="1"/>
        <pt x="169" y="400" on="0"/>
        <pt x="153" y="379" on="1"/>
        <pt x="82" y="283" on="0"/>
        <pt x="73" y="210" on="1"/>
        <pt x="72" y="202" on="0"/>
        <pt x="71" y="194" on="1"/>
        <pt x="69" y="159" on="0"/>
        <pt x="81" y="132" on="1"/>
        <pt x="86" y="116" on="0"/>
        <pt x="101" y="103" on="1"/>
        <pt x="113" y="92" on="0"/>
        <pt x="128" y="88" on="1"/>
        <pt x="145" y="84" on="0"/>
        <pt x="171" y="88" on="1"/>
        <pt x="206" y="97" on="0"/>
        <pt x="237" y="128" on="1"/>
        <pt x="248" y="138" on="1"/>
        <pt x="248" y="155" on="1"/>
        <pt x="248" y="217" on="0"/>
        <pt x="265" y="259" on="1"/>
        <pt x="281" y="297" on="0"/>
        <pt x="313" y="302" on="1"/>
        <pt x="324" y="304" on="0"/>
        <pt x="333" y="300" on="1"/>
        <pt x="355" y="291" on="0"/>
        <pt x="354" y="255" on="1"/>
        <pt x="350" y="216" on="0"/>
        <pt x="321" y="153" on="1"/>
        <pt x="320" y="151" on="0"/>
        <pt x="319" y="149" on="1"/>
        <pt x="313" y="137" on="0"/>
        <pt x="317" y="130" on="1"/>
        <pt x="318" y="128" on="0"/>
        <pt x="321" y="124" on="1"/>
        <pt x="348" y="83" on="0"/>
        <pt x="398" y="86" on="1"/>
        <pt x="434" y="89" on="0"/>
        <pt x="468" y="121" on="1"/>
        <pt x="492" y="147" on="0"/>
        <pt x="509" y="180" on="1"/>
        <pt x="529" y="220" on="0"/>
        <pt x="535" y="257" on="1"/>
        <pt x="538" y="283" on="0"/>
        <pt x="529" y="306" on="1"/>
        <pt x="523" y="322" on="0"/>
        <pt x="505" y="340" on="1"/>
        <pt x="486" y="359" on="0"/>
        <pt x="484" y="375" on="1"/>
        <pt x="484" y="390" on="0"/>
        <pt x="490" y="403" on="1"/>
        <pt x="504" y="432" on="0"/>
      </contour>
    </TTGlyph>
    <TTGlyph name="f" xMin="56" yMin="-206" xMax="549" yMax="706">
      <contour>
        <pt x="444" y="704" on="1"/>
        <pt x="461" y="706" on="0"/>
        <pt x="477" y="703" on="1"/>
        <pt x="523" y="697" on="0"/>
        <pt x="541" y="661" on="1"/>
        <pt x="549" y="645" on="0"/>
        <pt x="549" y="627" on="1"/>
        <pt x="549" y="606" on="0"/>
        <pt x="541" y="590" on="1"/>
        <pt x="536" y="581" on="0"/>
        <pt x="528" y="572" on="1"/>
        <pt x="519" y="564" on="0"/>
        <pt x="510" y="559" on="1"/>
        <pt x="470" y="540" on="0"/>
        <pt x="444" y="564" on="1"/>
        <pt x="420" y="586" on="0"/>
        <pt x="439" y="626" on="1"/>
        <pt x="448" y="643" on="0"/>
        <pt x="462" y="653" on="1"/>
        <pt x="466" y="654" on="0"/>
        <pt x="466" y="656" on="1"/>
        <pt x="457" y="658" on="1"/>
        <pt x="448" y="658" on="0"/>
        <pt x="443" y="655" on="1"/>
        <pt x="437" y="653" on="0"/>
        <pt x="432" y="646" on="1"/>
        <pt x="426" y="640" on="0"/>
        <pt x="424" y="631" on="1"/>
        <pt x="417" y="602" on="0"/>
        <pt x="398" y="499" on="1"/>
        <pt x="385" y="434" on="0"/>
        <pt x="385" y="433" on="1"/>
        <pt x="385" y="431" on="0"/>
        <pt x="442" y="431" on="1"/>
        <pt x="503" y="431" on="0"/>
        <pt x="508" y="424" on="1"/>
        <pt x="509" y="421" on="1"/>
        <pt x="505" y="401" on="1"/>
        <pt x="500" y="382" on="0"/>
        <pt x="497" y="379" on="1"/>
        <pt x="494" y="376" on="1"/>
        <pt x="434" y="375" on="1"/>
        <pt x="375" y="375" on="1"/>
        <pt x="354" y="267" on="1"/>
        <pt x="317" y="67" on="0"/>
        <pt x="307" y="28" on="1"/>
        <pt x="275" y="-111" on="0"/>
        <pt x="221" y="-166" on="1"/>
        <pt x="204" y="-184" on="0"/>
        <pt x="184" y="-195" on="1"/>
        <pt x="165" y="-204" on="0"/>
        <pt x="149" y="-205" on="1"/>
        <pt x="121" y="-206" on="0"/>
        <pt x="96" y="-193" on="1"/>
        <pt x="89" y="-190" on="0"/>
        <pt x="77" y="-180" on="1"/>
        <pt x="56" y="-158" on="0"/>
        <pt x="56" y="-127" on="1"/>
        <pt x="56" y="-106" on="0"/>
        <pt x="64" y="-90" on="1"/>
        <pt x="69" y="-81" on="0"/>
        <pt x="77" y="-72" on="1"/>
        <pt x="86" y="-64" on="0"/>
        <pt x="95" y="-59" on="1"/>
        <pt x="135" y="-40" on="0"/>
        <pt x="161" y="-64" on="1"/>
        <pt x="185" y="-86" on="0"/>
        <pt x="166" y="-126" on="1"/>
        <pt x="156" y="-144" on="0"/>
        <pt x="142" y="-153" on="1"/>
        <pt x="139" y="-155" on="0"/>
        <pt x="138" y="-156" on="1"/>
        <pt x="138" y="-158" on="0"/>
        <pt x="151" y="-158" on="1"/>
        <pt x="157" y="-157" on="1"/>
        <pt x="158" y="-157" on="1"/>
        <pt x="172" y="-150" on="0"/>
        <pt x="182" y="-127" on="1"/>
        <pt x="190" y="-107" on="0"/>
        <pt x="226" y="76" on="1"/>
        <pt x="282" y="374" on="1"/>
        <pt x="282" y="375" on="0"/>
        <pt x="232" y="375" on="1"/>
        <pt x="182" y="375" on="1"/>
        <pt x="178" y="378" on="1"/>
        <pt x="174" y="383" on="0"/>
        <pt x="184" y="427" on="0"/>
        <pt x="188" y="429" on="1"/>
        <pt x="191" y="431" on="0"/>
        <pt x="293" y="431" on="0"/>
        <pt x="293" y="432" on="1"/>
        <pt x="312" y="534" on="1"/>
        <pt x="331" y="619" on="0"/>
        <pt x="364" y="656" on="1"/>
        <pt x="397" y="696" on="0"/>
      </contour>
    </TTGlyph>
    <TTGlyph name="five" xMin="50" yMin="-227" xMax="451" yMax="455">
      <contour>
        <pt x="93" y="451" on="1"/>
        <pt x="97" y="454" on="0"/>
        <pt x="109" y="449" on="1"/>
        <pt x="207" y="409" on="0"/>
        <pt x="316" y="428" on="1"/>
        <pt x="356" y="435" on="0"/>
        <pt x="390" y="450" on="1"/>
        <pt x="402" y="455" on="0"/>
        <pt x="407" y="450" on="1"/>
        <pt x="410" y="447" on="1"/>
        <pt x="410" y="429" on="1"/>
        <pt x="410" y="412" on="1"/>
        <pt x="400" y="402" on="1"/>
        <pt x="336" y="340" on="0"/>
        <pt x="248" y="326" on="1"/>
        <pt x="206" y="318" on="0"/>
        <pt x="159" y="325" on="1"/>
        <pt x="145" y="327" on="1"/>
        <pt x="144" y="327" on="0"/>
        <pt x="144" y="249" on="1"/>
        <pt x="144" y="172" on="1"/>
        <pt x="149" y="176" on="1"/>
        <pt x="168" y="194" on="0"/>
        <pt x="195" y="203" on="1"/>
        <pt x="248" y="225" on="0"/>
        <pt x="311" y="205" on="1"/>
        <pt x="347" y="193" on="0"/>
        <pt x="377" y="167" on="1"/>
        <pt x="406" y="141" on="0"/>
        <pt x="426" y="101" on="1"/>
        <pt x="439" y="73" on="0"/>
        <pt x="447" y="35" on="1"/>
        <pt x="451" y="4" on="0"/>
        <pt x="447" y="-31" on="1"/>
        <pt x="431" y="-125" on="0"/>
        <pt x="353" y="-177" on="1"/>
        <pt x="328" y="-195" on="0"/>
        <pt x="297" y="-204" on="1"/>
        <pt x="229" y="-227" on="0"/>
        <pt x="169" y="-207" on="1"/>
        <pt x="143" y="-198" on="0"/>
        <pt x="124" y="-185" on="1"/>
        <pt x="54" y="-137" on="0"/>
        <pt x="50" y="-53" on="1"/>
        <pt x="50" y="-39" on="0"/>
        <pt x="51" y="-33" on="1"/>
        <pt x="59" y="5" on="0"/>
        <pt x="97" y="12" on="1"/>
        <pt x="103" y="13" on="0"/>
        <pt x="110" y="13" on="1"/>
        <pt x="150" y="13" on="0"/>
        <pt x="164" y="-22" on="1"/>
        <pt x="166" y="-26" on="0"/>
        <pt x="167" y="-31" on="1"/>
        <pt x="171" y="-46" on="0"/>
        <pt x="167" y="-62" on="1"/>
        <pt x="159" y="-96" on="0"/>
        <pt x="126" y="-104" on="1"/>
        <pt x="119" y="-106" on="0"/>
        <pt x="119" y="-107" on="1"/>
        <pt x="119" y="-112" on="0"/>
        <pt x="139" y="-131" on="1"/>
        <pt x="172" y="-160" on="0"/>
        <pt x="218" y="-163" on="1"/>
        <pt x="286" y="-167" on="0"/>
        <pt x="320" y="-115" on="1"/>
        <pt x="330" y="-100" on="0"/>
        <pt x="334" y="-82" on="1"/>
        <pt x="341" y="-54" on="0"/>
        <pt x="341" y="4" on="1"/>
        <pt x="341" y="86" on="0"/>
        <pt x="328" y="116" on="1"/>
        <pt x="318" y="142" on="0"/>
        <pt x="295" y="156" on="1"/>
        <pt x="272" y="168" on="0"/>
        <pt x="249" y="167" on="1"/>
        <pt x="177" y="162" on="0"/>
        <pt x="141" y="101" on="1"/>
        <pt x="135" y="92" on="0"/>
        <pt x="134" y="91" on="1"/>
        <pt x="128" y="88" on="0"/>
        <pt x="100" y="90" on="1"/>
        <pt x="95" y="90" on="0"/>
        <pt x="94" y="91" on="1"/>
        <pt x="90" y="94" on="0"/>
        <pt x="89" y="109" on="1"/>
        <pt x="88" y="128" on="0"/>
        <pt x="88" y="272" on="1"/>
        <pt x="88" y="445" on="0"/>
        <pt x="89" y="447" on="1"/>
        <pt x="91" y="451" on="0"/>
      </contour>
    </TTGlyph>
    <TTGlyph name="four" xMin="28" yMin="-194" xMax="471" yMax="464">
      <contour>
        <pt x="323" y="462" on="1"/>
        <pt x="326" y="464" on="0"/>
        <pt x="351" y="464" on="1"/>
        <pt x="376" y="464" on="1"/>
        <pt x="379" y="461" on="1"/>
        <pt x="382" y="458" on="1"/>
        <pt x="382" y="257" on="1"/>
        <pt x="382" y="56" on="1"/>
        <pt x="423" y="56" on="1"/>
        <pt x="464" y="56" on="1"/>
        <pt x="467" y="53" on="1"/>
        <pt x="471" y="50" on="1"/>
        <pt x="471" y="28" on="1"/>
        <pt x="471" y="6" on="1"/>
        <pt x="467" y="3" on="1"/>
        <pt x="464" y="0" on="1"/>
        <pt x="423" y="0" on="1"/>
        <pt x="382" y="0" on="1"/>
        <pt x="382" y="-65" on="1"/>
        <pt x="382" y="-130" on="0"/>
        <pt x="383" y="-131" on="1"/>
        <pt x="385" y="-137" on="0"/>
        <pt x="434" y="-138" on="1"/>
        <pt x="465" y="-138" on="1"/>
        <pt x="468" y="-142" on="1"/>
        <pt x="471" y="-145" on="1"/>
        <pt x="471" y="-166" on="1"/>
        <pt x="471" y="-187" on="1"/>
        <pt x="467" y="-191" on="1"/>
        <pt x="464" y="-194" on="1"/>
        <pt x="453" y="-194" on="1"/>
        <pt x="387" y="-192" on="1"/>
        <pt x="332" y="-191" on="0"/>
        <pt x="275" y="-192" on="1"/>
        <pt x="206" y="-194" on="1"/>
        <pt x="194" y="-194" on="1"/>
        <pt x="191" y="-191" on="1"/>
        <pt x="188" y="-188" on="1"/>
        <pt x="188" y="-166" on="1"/>
        <pt x="188" y="-144" on="1"/>
        <pt x="191" y="-141" on="1"/>
        <pt x="194" y="-138" on="1"/>
        <pt x="215" y="-138" on="1"/>
        <pt x="263" y="-138" on="0"/>
        <pt x="275" y="-135" on="1"/>
        <pt x="281" y="-133" on="0"/>
        <pt x="282" y="-131" on="1"/>
        <pt x="284" y="-129" on="0"/>
        <pt x="284" y="-64" on="1"/>
        <pt x="284" y="0" on="1"/>
        <pt x="160" y="0" on="1"/>
        <pt x="34" y="0" on="0"/>
        <pt x="30" y="6" on="1"/>
        <pt x="28" y="8" on="0"/>
        <pt x="28" y="32" on="1"/>
        <pt x="28" y="56" on="1"/>
        <pt x="35" y="66" on="1"/>
        <pt x="29" y="57" on="0"/>
        <pt x="181" y="269" on="1"/>
        <pt x="320" y="460" on="0"/>
      </contour>
      <contour>
        <pt x="290" y="56" on="1"/>
        <pt x="290" y="196" on="1"/>
        <pt x="290" y="336" on="1"/>
        <pt x="189" y="196" on="1"/>
        <pt x="88" y="57" on="1"/>
        <pt x="189" y="56" on="1"/>
      </contour>
    </TTGlyph>
    <TTGlyph name="g" xMin="3" yMin="-206" xMax="485" yMax="445">
      <contour>
        <pt x="289" y="440" on="1"/>
        <pt x="323" y="445" on="0"/>
        <pt x="346" y="437" on="1"/>
        <pt x="373" y="429" on="0"/>
        <pt x="396" y="403" on="1"/>
        <pt x="400" y="399" on="1"/>
        <pt x="407" y="405" on="1"/>
        <pt x="431" y="429" on="0"/>
        <pt x="462" y="419" on="1"/>
        <pt x="477" y="414" on="0"/>
        <pt x="482" y="400" on="1"/>
        <pt x="485" y="389" on="0"/>
        <pt x="469" y="317" on="0"/>
        <pt x="428" y="153" on="1"/>
        <pt x="368" y="-81" on="0"/>
        <pt x="368" y="-80" on="1"/>
        <pt x="357" y="-111" on="0"/>
        <pt x="335" y="-134" on="1"/>
        <pt x="308" y="-161" on="0"/>
        <pt x="275" y="-177" on="1"/>
        <pt x="242" y="-192" on="0"/>
        <pt x="222" y="-196" on="1"/>
        <pt x="185" y="-206" on="0"/>
        <pt x="141" y="-205" on="1"/>
        <pt x="79" y="-204" on="0"/>
        <pt x="47" y="-189" on="1"/>
        <pt x="20" y="-177" on="0"/>
        <pt x="11" y="-157" on="1"/>
        <pt x="3" y="-143" on="0"/>
        <pt x="6" y="-124" on="1"/>
        <pt x="13" y="-85" on="0"/>
        <pt x="46" y="-69" on="1"/>
        <pt x="76" y="-54" on="0"/>
        <pt x="102" y="-68" on="1"/>
        <pt x="114" y="-74" on="0"/>
        <pt x="118" y="-84" on="1"/>
        <pt x="132" y="-111" on="0"/>
        <pt x="111" y="-143" on="1"/>
        <pt x="108" y="-147" on="0"/>
        <pt x="105" y="-151" on="1"/>
        <pt x="101" y="-156" on="1"/>
        <pt x="106" y="-156" on="1"/>
        <pt x="140" y="-158" on="1"/>
        <pt x="177" y="-158" on="0"/>
        <pt x="196" y="-152" on="1"/>
        <pt x="243" y="-137" on="0"/>
        <pt x="269" y="-92" on="1"/>
        <pt x="273" y="-85" on="0"/>
        <pt x="276" y="-77" on="1"/>
        <pt x="305" y="36" on="1"/>
        <pt x="297" y="30" on="1"/>
        <pt x="272" y="14" on="0"/>
        <pt x="249" y="7" on="1"/>
        <pt x="227" y="0" on="0"/>
        <pt x="201" y="0" on="1"/>
        <pt x="178" y="3" on="0"/>
        <pt x="177" y="3" on="1"/>
        <pt x="110" y="17" on="0"/>
        <pt x="81" y="76" on="1"/>
        <pt x="61" y="115" on="0"/>
        <pt x="61" y="161" on="1"/>
        <pt x="61" y="188" on="0"/>
        <pt x="66" y="210" on="1"/>
        <pt x="87" y="319" on="0"/>
        <pt x="176" y="390" on="1"/>
        <pt x="179" y="392" on="0"/>
        <pt x="182" y="394" on="1"/>
        <pt x="234" y="434" on="0"/>
      </contour>
      <contour>
        <pt x="319" y="393" on="1"/>
        <pt x="278" y="402" on="0"/>
        <pt x="238" y="364" on="1"/>
        <pt x="206" y="334" on="0"/>
        <pt x="184" y="255" on="1"/>
        <pt x="179" y="238" on="0"/>
        <pt x="173" y="215" on="1"/>
        <pt x="155" y="142" on="0"/>
        <pt x="156" y="111" on="1"/>
        <pt x="157" y="90" on="0"/>
        <pt x="163" y="78" on="1"/>
        <pt x="175" y="56" on="0"/>
        <pt x="195" y="50" on="1"/>
        <pt x="213" y="45" on="0"/>
        <pt x="235" y="50" on="1"/>
        <pt x="257" y="56" on="0"/>
        <pt x="277" y="71" on="1"/>
        <pt x="302" y="89" on="0"/>
        <pt x="320" y="113" on="1"/>
        <pt x="327" y="122" on="1"/>
        <pt x="353" y="223" on="1"/>
        <pt x="378" y="324" on="1"/>
        <pt x="376" y="331" on="1"/>
        <pt x="360" y="385" on="0"/>
      </contour>
    </TTGlyph>
    <TTGlyph name="grave" xMin="4" yMin="-24" xMax="397" yMax="707">
      <contour>
        <pt x="325" y="704" on="1"/>
        <pt x="351" y="707" on="0"/>
        <pt x="368" y="698" on="1"/>
        <pt x="387" y="689" on="0"/>
        <pt x="395" y="660" on="1"/>
        <pt x="397" y="652" on="0"/>
        <pt x="397" y="627" on="1"/>
        <pt x="397" y="601" on="0"/>
        <pt x="395" y="587" on="1"/>
        <pt x="364" y="415" on="0"/>
        <pt x="189" y="222" on="1"/>
        <pt x="179" y="212" on="0"/>
        <pt x="177" y="208" on="1"/>
        <pt x="173" y="204" on="0"/>
        <pt x="168" y="161" on="1"/>
        <pt x="164" y="124" on="0"/>
        <pt x="168" y="84" on="1"/>
        <pt x="168" y="81" on="0"/>
        <pt x="168" y="79" on="1"/>
        <pt x="176" y="34" on="0"/>
        <pt x="196" y="25" on="1"/>
        <pt x="208" y="19" on="0"/>
        <pt x="230" y="25" on="1"/>
        <pt x="265" y="34" on="0"/>
        <pt x="326" y="91" on="1"/>
        <pt x="342" y="105" on="0"/>
        <pt x="343" y="106" on="1"/>
        <pt x="350" y="109" on="0"/>
        <pt x="363" y="93" on="1"/>
        <pt x="374" y="77" on="0"/>
        <pt x="372" y="72" on="1"/>
        <pt x="365" y="61" on="0"/>
        <pt x="318" y="23" on="1"/>
        <pt x="281" y="-6" on="0"/>
        <pt x="245" y="-18" on="1"/>
        <pt x="225" y="-24" on="0"/>
        <pt x="204" y="-24" on="1"/>
        <pt x="181" y="-24" on="0"/>
        <pt x="164" y="-16" on="1"/>
        <pt x="112" y="10" on="0"/>
        <pt x="95" y="112" on="1"/>
        <pt x="93" y="122" on="0"/>
        <pt x="93" y="123" on="1"/>
        <pt x="65" y="96" on="1"/>
        <pt x="38" y="69" on="0"/>
        <pt x="34" y="67" on="1"/>
        <pt x="27" y="65" on="0"/>
        <pt x="16" y="79" on="1"/>
        <pt x="4" y="96" on="0"/>
        <pt x="5" y="100" on="1"/>
        <pt x="9" y="107" on="0"/>
        <pt x="23" y="119" on="1"/>
        <pt x="65" y="161" on="1"/>
        <pt x="91" y="186" on="1"/>
        <pt x="91" y="202" on="1"/>
        <pt x="94" y="260" on="0"/>
        <pt x="113" y="343" on="1"/>
        <pt x="155" y="507" on="0"/>
        <pt x="232" y="623" on="1"/>
        <pt x="278" y="694" on="0"/>
      </contour>
      <contour>
        <pt x="343" y="656" on="1"/>
        <pt x="335" y="658" on="1"/>
        <pt x="328" y="658" on="0"/>
        <pt x="323" y="655" on="1"/>
        <pt x="302" y="644" on="0"/>
        <pt x="276" y="584" on="1"/>
        <pt x="257" y="539" on="0"/>
        <pt x="234" y="454" on="1"/>
        <pt x="195" y="300" on="1"/>
        <pt x="197" y="300" on="0"/>
        <pt x="232" y="346" on="1"/>
        <pt x="305" y="444" on="0"/>
        <pt x="333" y="538" on="1"/>
        <pt x="343" y="576" on="0"/>
        <pt x="348" y="602" on="1"/>
        <pt x="350" y="611" on="0"/>
        <pt x="350" y="630" on="1"/>
        <pt x="350" y="646" on="0"/>
        <pt x="348" y="650" on="1"/>
        <pt x="346" y="655" on="0"/>
      </contour>
    </TTGlyph>
    <TTGlyph name="greater" xMin="82" yMin="-40" xMax="694" yMax="541">
      <contour>
        <pt x="94" y="538" on="1"/>
        <pt x="100" y="541" on="0"/>
        <pt x="110" y="537" on="1"/>
        <pt x="126" y="531" on="0"/>
        <pt x="395" y="404" on="1"/>
        <pt x="685" y="267" on="0"/>
        <pt x="687" y="265" on="1"/>
        <pt x="694" y="260" on="0"/>
        <pt x="694" y="240" on="0"/>
        <pt x="687" y="235" on="1"/>
        <pt x="685" y="233" on="0"/>
        <pt x="395" y="96" on="1"/>
        <pt x="107" y="-40" on="1"/>
        <pt x="101" y="-40" on="1"/>
        <pt x="86" y="-39" on="0"/>
        <pt x="83" y="-23" on="1"/>
        <pt x="82" y="-16" on="0"/>
        <pt x="86" y="-9" on="1"/>
        <pt x="90" y="-4" on="0"/>
        <pt x="166" y="32" on="1"/>
        <pt x="216" y="55" on="0"/>
        <pt x="378" y="132" on="1"/>
        <pt x="626" y="250" on="1"/>
        <pt x="378" y="368" on="1"/>
        <pt x="88" y="505" on="0"/>
        <pt x="84" y="513" on="0"/>
        <pt x="84" y="527" on="0"/>
        <pt x="87" y="531" on="1"/>
        <pt x="89" y="534" on="0"/>
      </contour>
    </TTGlyph>
    <TTGlyph name="h" xMin="43" yMin="-13" xMax="559" yMax="694">
      <contour>
        <pt x="208" y="688" on="1"/>
        <pt x="288" y="694" on="0"/>
        <pt x="287" y="694" on="1"/>
        <pt x="296" y="694" on="0"/>
        <pt x="299" y="687" on="1"/>
        <pt x="301" y="682" on="0"/>
        <pt x="264" y="537" on="1"/>
        <pt x="227" y="394" on="0"/>
        <pt x="227" y="389" on="1"/>
        <pt x="235" y="396" on="1"/>
        <pt x="251" y="408" on="0"/>
        <pt x="254" y="410" on="1"/>
        <pt x="305" y="443" on="0"/>
        <pt x="366" y="442" on="1"/>
        <pt x="423" y="439" on="0"/>
        <pt x="453" y="410" on="1"/>
        <pt x="492" y="372" on="0"/>
        <pt x="480" y="299" on="1"/>
        <pt x="471" y="245" on="0"/>
        <pt x="425" y="121" on="1"/>
        <pt x="408" y="78" on="0"/>
        <pt x="408" y="57" on="1"/>
        <pt x="408" y="37" on="0"/>
        <pt x="421" y="36" on="1"/>
        <pt x="423" y="36" on="0"/>
        <pt x="426" y="36" on="1"/>
        <pt x="447" y="38" on="0"/>
        <pt x="465" y="57" on="1"/>
        <pt x="494" y="86" on="0"/>
        <pt x="507" y="136" on="1"/>
        <pt x="512" y="151" on="0"/>
        <pt x="517" y="152" on="1"/>
        <pt x="520" y="153" on="0"/>
        <pt x="535" y="153" on="1"/>
        <pt x="554" y="153" on="0"/>
        <pt x="557" y="151" on="1"/>
        <pt x="559" y="149" on="0"/>
        <pt x="559" y="143" on="1"/>
        <pt x="559" y="126" on="0"/>
        <pt x="539" y="86" on="1"/>
        <pt x="521" y="49" on="0"/>
        <pt x="495" y="25" on="1"/>
        <pt x="456" y="-12" on="0"/>
        <pt x="410" y="-11" on="1"/>
        <pt x="386" y="-10" on="0"/>
        <pt x="366" y="1" on="1"/>
        <pt x="352" y="8" on="0"/>
        <pt x="345" y="16" on="1"/>
        <pt x="336" y="25" on="0"/>
        <pt x="331" y="35" on="1"/>
        <pt x="321" y="54" on="0"/>
        <pt x="322" y="75" on="1"/>
        <pt x="322" y="95" on="0"/>
        <pt x="330" y="118" on="1"/>
        <pt x="360" y="197" on="0"/>
        <pt x="372" y="237" on="1"/>
        <pt x="400" y="330" on="0"/>
        <pt x="388" y="367" on="1"/>
        <pt x="380" y="395" on="0"/>
        <pt x="349" y="395" on="1"/>
        <pt x="265" y="395" on="0"/>
        <pt x="208" y="298" on="1"/>
        <pt x="201" y="288" on="1"/>
        <pt x="169" y="157" on="1"/>
        <pt x="136" y="27" on="0"/>
        <pt x="133" y="20" on="1"/>
        <pt x="123" y="-1" on="0"/>
        <pt x="99" y="-9" on="1"/>
        <pt x="83" y="-13" on="0"/>
        <pt x="67" y="-8" on="1"/>
        <pt x="55" y="-3" on="0"/>
        <pt x="48" y="10" on="1"/>
        <pt x="43" y="18" on="0"/>
        <pt x="46" y="31" on="1"/>
        <pt x="49" y="51" on="0"/>
        <pt x="115" y="316" on="1"/>
        <pt x="189" y="609" on="0"/>
        <pt x="186" y="618" on="1"/>
        <pt x="180" y="627" on="0"/>
        <pt x="135" y="627" on="1"/>
        <pt x="117" y="627" on="0"/>
        <pt x="114" y="634" on="1"/>
        <pt x="113" y="639" on="0"/>
        <pt x="118" y="657" on="1"/>
        <pt x="122" y="676" on="0"/>
        <pt x="126" y="680" on="1"/>
        <pt x="129" y="683" on="0"/>
        <pt x="132" y="683" on="1"/>
        <pt x="141" y="683" on="0"/>
      </contour>
    </TTGlyph>
    <TTGlyph name="hyphen" xMin="49" yMin="228" xMax="230" yMax="466">
      <contour>
        <pt x="66" y="462" on="1"/>
        <pt x="75" y="466" on="0"/>
        <pt x="98" y="463" on="1"/>
        <pt x="146" y="456" on="0"/>
        <pt x="181" y="430" on="1"/>
        <pt x="230" y="391" on="0"/>
        <pt x="221" y="332" on="1"/>
        <pt x="215" y="291" on="0"/>
        <pt x="181" y="264" on="1"/>
        <pt x="146" y="238" on="0"/>
        <pt x="98" y="231" on="1"/>
        <pt x="75" y="228" on="0"/>
        <pt x="66" y="232" on="1"/>
        <pt x="50" y="240" on="0"/>
        <pt x="56" y="257" on="1"/>
        <pt x="58" y="263" on="0"/>
        <pt x="64" y="266" on="1"/>
        <pt x="68" y="269" on="0"/>
        <pt x="81" y="270" on="1"/>
        <pt x="141" y="275" on="0"/>
        <pt x="167" y="307" on="1"/>
        <pt x="187" y="332" on="0"/>
        <pt x="181" y="360" on="1"/>
        <pt x="173" y="390" on="0"/>
        <pt x="139" y="409" on="1"/>
        <pt x="116" y="421" on="0"/>
        <pt x="81" y="424" on="1"/>
        <pt x="68" y="425" on="0"/>
        <pt x="64" y="428" on="1"/>
        <pt x="49" y="437" on="0"/>
        <pt x="57" y="453" on="1"/>
        <pt x="60" y="459" on="0"/>
      </contour>
    </TTGlyph>
    <TTGlyph name="i" xMin="14" yMin="-10" xMax="308" yMax="664">
      <contour>
        <pt x="232" y="659" on="1"/>
        <pt x="252" y="664" on="0"/>
        <pt x="270" y="656" on="1"/>
        <pt x="297" y="643" on="0"/>
        <pt x="294" y="610" on="1"/>
        <pt x="293" y="605" on="0"/>
        <pt x="292" y="601" on="1"/>
        <pt x="281" y="563" on="0"/>
        <pt x="242" y="550" on="1"/>
        <pt x="240" y="550" on="0"/>
        <pt x="238" y="549" on="1"/>
        <pt x="209" y="541" on="0"/>
        <pt x="189" y="561" on="1"/>
        <pt x="166" y="585" on="0"/>
        <pt x="184" y="619" on="1"/>
        <pt x="198" y="651" on="0"/>
      </contour>
      <contour>
        <pt x="143" y="440" on="1"/>
        <pt x="157" y="443" on="0"/>
        <pt x="179" y="441" on="1"/>
        <pt x="237" y="430" on="0"/>
        <pt x="252" y="378" on="1"/>
        <pt x="257" y="357" on="0"/>
        <pt x="252" y="334" on="1"/>
        <pt x="207" y="212" on="1"/>
        <pt x="162" y="94" on="0"/>
        <pt x="161" y="89" on="1"/>
        <pt x="149" y="50" on="0"/>
        <pt x="160" y="39" on="1"/>
        <pt x="163" y="37" on="0"/>
        <pt x="171" y="37" on="1"/>
        <pt x="182" y="37" on="0"/>
        <pt x="185" y="38" on="1"/>
        <pt x="228" y="53" on="0"/>
        <pt x="251" y="127" on="1"/>
        <pt x="253" y="131" on="0"/>
        <pt x="254" y="136" on="1"/>
        <pt x="259" y="151" on="0"/>
        <pt x="264" y="152" on="1"/>
        <pt x="267" y="153" on="0"/>
        <pt x="282" y="153" on="1"/>
        <pt x="301" y="153" on="0"/>
        <pt x="303" y="151" on="1"/>
        <pt x="308" y="147" on="0"/>
        <pt x="305" y="134" on="1"/>
        <pt x="286" y="68" on="0"/>
        <pt x="245" y="27" on="1"/>
        <pt x="217" y="1" on="0"/>
        <pt x="188" y="-8" on="1"/>
        <pt x="178" y="-10" on="0"/>
        <pt x="161" y="-10" on="1"/>
        <pt x="143" y="-10" on="0"/>
        <pt x="135" y="-8" on="1"/>
        <pt x="103" y="0" on="0"/>
        <pt x="87" y="21" on="1"/>
        <pt x="75" y="35" on="0"/>
        <pt x="71" y="53" on="1"/>
        <pt x="66" y="75" on="0"/>
        <pt x="71" y="98" on="1"/>
        <pt x="117" y="221" on="1"/>
        <pt x="163" y="344" on="0"/>
        <pt x="166" y="356" on="1"/>
        <pt x="170" y="373" on="0"/>
        <pt x="166" y="386" on="1"/>
        <pt x="161" y="398" on="0"/>
        <pt x="144" y="394" on="1"/>
        <pt x="114" y="388" on="0"/>
        <pt x="90" y="348" on="1"/>
        <pt x="75" y="323" on="0"/>
        <pt x="66" y="287" on="1"/>
        <pt x="63" y="281" on="0"/>
        <pt x="62" y="280" on="1"/>
        <pt x="60" y="278" on="0"/>
        <pt x="41" y="278" on="1"/>
        <pt x="22" y="278" on="1"/>
        <pt x="19" y="281" on="1"/>
        <pt x="14" y="285" on="0"/>
        <pt x="20" y="302" on="1"/>
        <pt x="45" y="386" on="0"/>
        <pt x="101" y="423" on="1"/>
        <pt x="106" y="426" on="0"/>
        <pt x="112" y="429" on="1"/>
        <pt x="130" y="439" on="0"/>
      </contour>
    </TTGlyph>
    <TTGlyph name="idieresis" xMin="14" yMin="-205" xMax="639" yMax="694">
      <contour>
        <pt x="451" y="691" on="1"/>
        <pt x="454" y="694" on="1"/>
        <pt x="472" y="694" on="1"/>
        <pt x="495" y="694" on="0"/>
        <pt x="497" y="688" on="1"/>
        <pt x="498" y="684" on="0"/>
        <pt x="418" y="362" on="1"/>
        <pt x="335" y="38" on="0"/>
        <pt x="336" y="38" on="1"/>
        <pt x="336" y="36" on="0"/>
        <pt x="345" y="36" on="1"/>
        <pt x="415" y="42" on="0"/>
        <pt x="479" y="106" on="1"/>
        <pt x="514" y="140" on="0"/>
        <pt x="536" y="182" on="1"/>
        <pt x="554" y="212" on="0"/>
        <pt x="564" y="252" on="1"/>
        <pt x="568" y="276" on="0"/>
        <pt x="563" y="295" on="1"/>
        <pt x="556" y="322" on="0"/>
        <pt x="528" y="346" on="1"/>
        <pt x="521" y="352" on="0"/>
        <pt x="513" y="368" on="0"/>
        <pt x="513" y="375" on="1"/>
        <pt x="513" y="390" on="0"/>
        <pt x="519" y="402" on="1"/>
        <pt x="534" y="434" on="0"/>
        <pt x="567" y="441" on="1"/>
        <pt x="576" y="443" on="0"/>
        <pt x="584" y="442" on="1"/>
        <pt x="614" y="437" on="0"/>
        <pt x="627" y="403" on="1"/>
        <pt x="639" y="366" on="0"/>
        <pt x="625" y="298" on="1"/>
        <pt x="615" y="250" on="0"/>
        <pt x="605" y="220" on="1"/>
        <pt x="567" y="111" on="0"/>
        <pt x="472" y="41" on="1"/>
        <pt x="401" y="-11" on="0"/>
        <pt x="332" y="-11" on="1"/>
        <pt x="324" y="-11" on="1"/>
        <pt x="301" y="-104" on="1"/>
        <pt x="277" y="-198" on="0"/>
        <pt x="277" y="-199" on="1"/>
        <pt x="275" y="-205" on="0"/>
        <pt x="252" y="-205" on="1"/>
        <pt x="234" y="-205" on="1"/>
        <pt x="231" y="-202" on="1"/>
        <pt x="228" y="-199" on="0"/>
        <pt x="228" y="-197" on="1"/>
        <pt x="228" y="-192" on="0"/>
        <pt x="251" y="-102" on="1"/>
        <pt x="274" y="-9" on="0"/>
        <pt x="273" y="-9" on="1"/>
        <pt x="272" y="-8" on="0"/>
        <pt x="269" y="-8" on="1"/>
        <pt x="258" y="-8" on="0"/>
        <pt x="225" y="-1" on="1"/>
        <pt x="169" y="14" on="0"/>
        <pt x="139" y="43" on="1"/>
        <pt x="123" y="59" on="0"/>
        <pt x="114" y="77" on="1"/>
        <pt x="92" y="122" on="0"/>
        <pt x="107" y="181" on="1"/>
        <pt x="118" y="223" on="0"/>
        <pt x="147" y="300" on="1"/>
        <pt x="161" y="335" on="0"/>
        <pt x="162" y="342" on="1"/>
        <pt x="174" y="376" on="0"/>
        <pt x="165" y="389" on="1"/>
        <pt x="161" y="395" on="0"/>
        <pt x="149" y="395" on="1"/>
        <pt x="107" y="391" on="0"/>
        <pt x="78" y="323" on="1"/>
        <pt x="73" y="311" on="0"/>
        <pt x="69" y="297" on="1"/>
        <pt x="65" y="285" on="0"/>
        <pt x="65" y="284" on="1"/>
        <pt x="54" y="278" on="0"/>
        <pt x="41" y="278" on="1"/>
        <pt x="22" y="278" on="1"/>
        <pt x="19" y="281" on="1"/>
        <pt x="14" y="285" on="0"/>
        <pt x="20" y="302" on="1"/>
        <pt x="28" y="329" on="0"/>
        <pt x="38" y="348" on="1"/>
        <pt x="77" y="422" on="0"/>
        <pt x="136" y="439" on="1"/>
        <pt x="145" y="441" on="0"/>
        <pt x="162" y="441" on="1"/>
        <pt x="180" y="441" on="0"/>
        <pt x="188" y="439" on="1"/>
        <pt x="247" y="423" on="0"/>
        <pt x="254" y="369" on="1"/>
        <pt x="255" y="361" on="0"/>
        <pt x="255" y="353" on="1"/>
        <pt x="254" y="338" on="0"/>
        <pt x="239" y="295" on="1"/>
        <pt x="199" y="188" on="0"/>
        <pt x="195" y="157" on="1"/>
        <pt x="189" y="112" on="0"/>
        <pt x="206" y="85" on="1"/>
        <pt x="223" y="62" on="0"/>
        <pt x="251" y="49" on="1"/>
        <pt x="278" y="40" on="0"/>
        <pt x="285" y="40" on="1"/>
        <pt x="287" y="40" on="0"/>
        <pt x="368" y="364" on="1"/>
        <pt x="448" y="688" on="0"/>
      </contour>
    </TTGlyph>
    <TTGlyph name="j" xMin="-14" yMin="-204" xMax="408" yMax="664">
      <contour>
        <pt x="346" y="659" on="1"/>
        <pt x="366" y="664" on="0"/>
        <pt x="384" y="656" on="1"/>
        <pt x="408" y="645" on="0"/>
        <pt x="408" y="616" on="1"/>
        <pt x="408" y="602" on="0"/>
        <pt x="400" y="587" on="1"/>
        <pt x="395" y="577" on="0"/>
        <pt x="387" y="569" on="1"/>
        <pt x="371" y="554" on="0"/>
        <pt x="352" y="549" on="1"/>
        <pt x="317" y="540" on="0"/>
        <pt x="299" y="567" on="1"/>
        <pt x="297" y="569" on="0"/>
        <pt x="296" y="572" on="1"/>
        <pt x="285" y="594" on="0"/>
        <pt x="298" y="620" on="1"/>
        <pt x="313" y="651" on="0"/>
      </contour>
      <contour>
        <pt x="256" y="441" on="1"/>
        <pt x="269" y="443" on="0"/>
        <pt x="295" y="440" on="1"/>
        <pt x="345" y="429" on="0"/>
        <pt x="365" y="389" on="1"/>
        <pt x="373" y="372" on="0"/>
        <pt x="373" y="348" on="1"/>
        <pt x="373" y="332" on="1"/>
        <pt x="323" y="132" on="1"/>
        <pt x="276" y="-56" on="0"/>
        <pt x="270" y="-77" on="1"/>
        <pt x="240" y="-150" on="0"/>
        <pt x="162" y="-186" on="1"/>
        <pt x="135" y="-198" on="0"/>
        <pt x="106" y="-203" on="1"/>
        <pt x="99" y="-204" on="0"/>
        <pt x="77" y="-204" on="1"/>
        <pt x="49" y="-204" on="0"/>
        <pt x="29" y="-194" on="1"/>
        <pt x="18" y="-189" on="0"/>
        <pt x="10" y="-181" on="1"/>
        <pt x="-14" y="-157" on="0"/>
        <pt x="-9" y="-126" on="1"/>
        <pt x="-3" y="-85" on="0"/>
        <pt x="30" y="-69" on="1"/>
        <pt x="62" y="-54" on="0"/>
        <pt x="87" y="-68" on="1"/>
        <pt x="110" y="-79" on="0"/>
        <pt x="108" y="-108" on="1"/>
        <pt x="106" y="-132" on="0"/>
        <pt x="89" y="-153" on="1"/>
        <pt x="84" y="-158" on="1"/>
        <pt x="90" y="-158" on="1"/>
        <pt x="104" y="-156" on="0"/>
        <pt x="118" y="-148" on="1"/>
        <pt x="162" y="-123" on="0"/>
        <pt x="181" y="-65" on="1"/>
        <pt x="283" y="344" on="1"/>
        <pt x="289" y="387" on="0"/>
        <pt x="269" y="394" on="1"/>
        <pt x="256" y="397" on="0"/>
        <pt x="233" y="389" on="1"/>
        <pt x="191" y="372" on="0"/>
        <pt x="158" y="311" on="1"/>
        <pt x="154" y="303" on="0"/>
        <pt x="150" y="294" on="1"/>
        <pt x="145" y="282" on="0"/>
        <pt x="141" y="278" on="0"/>
        <pt x="122" y="278" on="1"/>
        <pt x="103" y="278" on="1"/>
        <pt x="100" y="281" on="1"/>
        <pt x="95" y="286" on="0"/>
        <pt x="101" y="300" on="1"/>
        <pt x="134" y="379" on="0"/>
        <pt x="193" y="417" on="1"/>
        <pt x="223" y="437" on="0"/>
      </contour>
    </TTGlyph>
    <TTGlyph name="k" xMin="43" yMin="-13" xMax="506" yMax="694">
      <contour>
        <pt x="209" y="688" on="1"/>
        <pt x="289" y="694" on="0"/>
        <pt x="287" y="694" on="1"/>
        <pt x="296" y="694" on="0"/>
        <pt x="299" y="687" on="1"/>
        <pt x="300" y="683" on="0"/>
        <pt x="250" y="481" on="1"/>
        <pt x="199" y="279" on="1"/>
        <pt x="204" y="282" on="1"/>
        <pt x="232" y="299" on="0"/>
        <pt x="285" y="349" on="1"/>
        <pt x="318" y="381" on="0"/>
        <pt x="338" y="398" on="1"/>
        <pt x="393" y="444" on="0"/>
        <pt x="443" y="442" on="1"/>
        <pt x="459" y="441" on="0"/>
        <pt x="469" y="435" on="1"/>
        <pt x="490" y="424" on="0"/>
        <pt x="498" y="395" on="1"/>
        <pt x="504" y="371" on="0"/>
        <pt x="500" y="340" on="1"/>
        <pt x="491" y="292" on="0"/>
        <pt x="457" y="275" on="1"/>
        <pt x="429" y="262" on="0"/>
        <pt x="404" y="273" on="1"/>
        <pt x="375" y="287" on="0"/>
        <pt x="382" y="324" on="1"/>
        <pt x="386" y="344" on="0"/>
        <pt x="401" y="361" on="1"/>
        <pt x="421" y="379" on="0"/>
        <pt x="444" y="382" on="1"/>
        <pt x="450" y="382" on="0"/>
        <pt x="450" y="383" on="1"/>
        <pt x="450" y="386" on="0"/>
        <pt x="443" y="393" on="1"/>
        <pt x="432" y="401" on="0"/>
        <pt x="399" y="389" on="1"/>
        <pt x="384" y="384" on="0"/>
        <pt x="364" y="370" on="1"/>
        <pt x="339" y="354" on="0"/>
        <pt x="290" y="306" on="1"/>
        <pt x="259" y="276" on="0"/>
        <pt x="243" y="262" on="1"/>
        <pt x="238" y="258" on="0"/>
        <pt x="241" y="257" on="1"/>
        <pt x="244" y="257" on="0"/>
        <pt x="254" y="255" on="1"/>
        <pt x="289" y="246" on="0"/>
        <pt x="306" y="237" on="1"/>
        <pt x="347" y="218" on="0"/>
        <pt x="363" y="185" on="1"/>
        <pt x="370" y="171" on="0"/>
        <pt x="370" y="148" on="1"/>
        <pt x="370" y="132" on="0"/>
        <pt x="367" y="118" on="1"/>
        <pt x="361" y="93" on="0"/>
        <pt x="361" y="72" on="1"/>
        <pt x="361" y="49" on="0"/>
        <pt x="368" y="42" on="1"/>
        <pt x="376" y="34" on="0"/>
        <pt x="394" y="38" on="1"/>
        <pt x="405" y="41" on="0"/>
        <pt x="414" y="51" on="1"/>
        <pt x="435" y="72" on="0"/>
        <pt x="454" y="145" on="1"/>
        <pt x="456" y="152" on="0"/>
        <pt x="469" y="153" on="1"/>
        <pt x="472" y="153" on="0"/>
        <pt x="479" y="153" on="1"/>
        <pt x="498" y="153" on="0"/>
        <pt x="500" y="151" on="1"/>
        <pt x="506" y="147" on="0"/>
        <pt x="500" y="127" on="1"/>
        <pt x="485" y="73" on="0"/>
        <pt x="457" y="36" on="1"/>
        <pt x="432" y="1" on="0"/>
        <pt x="398" y="-8" on="1"/>
        <pt x="391" y="-10" on="0"/>
        <pt x="374" y="-10" on="1"/>
        <pt x="356" y="-10" on="0"/>
        <pt x="348" y="-8" on="1"/>
        <pt x="327" y="-2" on="0"/>
        <pt x="314" y="7" on="1"/>
        <pt x="278" y="31" on="0"/>
        <pt x="272" y="80" on="1"/>
        <pt x="270" y="100" on="0"/>
        <pt x="275" y="119" on="1"/>
        <pt x="280" y="145" on="0"/>
        <pt x="275" y="160" on="1"/>
        <pt x="261" y="199" on="0"/>
        <pt x="196" y="213" on="1"/>
        <pt x="184" y="215" on="1"/>
        <pt x="160" y="121" on="1"/>
        <pt x="135" y="24" on="0"/>
        <pt x="133" y="20" on="1"/>
        <pt x="123" y="-1" on="0"/>
        <pt x="99" y="-9" on="1"/>
        <pt x="83" y="-13" on="0"/>
        <pt x="67" y="-8" on="1"/>
        <pt x="55" y="-3" on="0"/>
        <pt x="48" y="10" on="1"/>
        <pt x="43" y="18" on="0"/>
        <pt x="46" y="31" on="1"/>
        <pt x="49" y="51" on="0"/>
        <pt x="115" y="316" on="1"/>
        <pt x="189" y="610" on="0"/>
        <pt x="185" y="619" on="1"/>
        <pt x="178" y="626" on="0"/>
        <pt x="142" y="627" on="1"/>
        <pt x="118" y="627" on="0"/>
        <pt x="115" y="634" on="1"/>
        <pt x="113" y="637" on="0"/>
        <pt x="118" y="657" on="1"/>
        <pt x="123" y="678" on="0"/>
        <pt x="126" y="680" on="1"/>
        <pt x="129" y="683" on="0"/>
        <pt x="132" y="683" on="1"/>
      </contour>
    </TTGlyph>
    <TTGlyph name="l" xMin="31" yMin="-10" xMax="272" yMax="694">
      <contour>
        <pt x="179" y="688" on="1"/>
        <pt x="261" y="694" on="0"/>
        <pt x="259" y="694" on="1"/>
        <pt x="268" y="694" on="0"/>
        <pt x="271" y="687" on="1"/>
        <pt x="272" y="683" on="0"/>
        <pt x="199" y="389" on="1"/>
        <pt x="124" y="87" on="1"/>
        <pt x="123" y="83" on="0"/>
        <pt x="123" y="70" on="1"/>
        <pt x="123" y="44" on="0"/>
        <pt x="135" y="38" on="1"/>
        <pt x="161" y="27" on="0"/>
        <pt x="180" y="69" on="1"/>
        <pt x="188" y="84" on="0"/>
        <pt x="200" y="129" on="1"/>
        <pt x="206" y="150" on="0"/>
        <pt x="210" y="152" on="1"/>
        <pt x="212" y="153" on="0"/>
        <pt x="229" y="153" on="1"/>
        <pt x="248" y="153" on="0"/>
        <pt x="251" y="151" on="1"/>
        <pt x="253" y="149" on="0"/>
        <pt x="253" y="143" on="1"/>
        <pt x="253" y="130" on="0"/>
        <pt x="238" y="89" on="1"/>
        <pt x="222" y="51" on="0"/>
        <pt x="211" y="34" on="1"/>
        <pt x="188" y="1" on="0"/>
        <pt x="158" y="-8" on="1"/>
        <pt x="151" y="-10" on="0"/>
        <pt x="136" y="-10" on="1"/>
        <pt x="112" y="-10" on="0"/>
        <pt x="96" y="-4" on="1"/>
        <pt x="46" y="14" on="0"/>
        <pt x="35" y="63" on="1"/>
        <pt x="31" y="86" on="0"/>
        <pt x="35" y="102" on="1"/>
        <pt x="35" y="101" on="0"/>
        <pt x="97" y="355" on="1"/>
        <pt x="161" y="611" on="0"/>
        <pt x="157" y="619" on="1"/>
        <pt x="150" y="626" on="0"/>
        <pt x="114" y="627" on="1"/>
        <pt x="93" y="627" on="1"/>
        <pt x="89" y="631" on="1"/>
        <pt x="85" y="635" on="0"/>
        <pt x="90" y="657" on="1"/>
        <pt x="96" y="680" on="0"/>
        <pt x="100" y="682" on="1"/>
        <pt x="101" y="682" on="0"/>
      </contour>
    </TTGlyph>
    <TTGlyph name="less" xMin="83" yMin="-41" xMax="700" yMax="540">
      <contour>
        <pt x="382" y="404" on="1"/>
        <pt x="669" y="539" on="0"/>
        <pt x="677" y="540" on="1"/>
        <pt x="679" y="540" on="0"/>
        <pt x="683" y="538" on="1"/>
        <pt x="699" y="530" on="0"/>
        <pt x="693" y="513" on="1"/>
        <pt x="691" y="508" on="0"/>
        <pt x="687" y="505" on="1"/>
        <pt x="686" y="504" on="0"/>
        <pt x="417" y="376" on="1"/>
        <pt x="151" y="250" on="1"/>
        <pt x="417" y="124" on="1"/>
        <pt x="686" y="-4" on="0"/>
        <pt x="687" y="-5" on="1"/>
        <pt x="700" y="-15" on="0"/>
        <pt x="691" y="-30" on="1"/>
        <pt x="688" y="-35" on="0"/>
        <pt x="683" y="-38" on="1"/>
        <pt x="677" y="-41" on="0"/>
        <pt x="667" y="-37" on="1"/>
        <pt x="651" y="-31" on="0"/>
        <pt x="382" y="96" on="1"/>
        <pt x="92" y="233" on="0"/>
        <pt x="90" y="235" on="1"/>
        <pt x="83" y="240" on="0"/>
        <pt x="83" y="250" on="1"/>
        <pt x="83" y="261" on="0"/>
        <pt x="91" y="266" on="1"/>
        <pt x="86" y="263" on="0"/>
      </contour>
    </TTGlyph>
    <TTGlyph name="m" xMin="15" yMin="-19" xMax="861" yMax="443">
      <contour>
        <pt x="118" y="441" on="1"/>
        <pt x="136" y="443" on="0"/>
        <pt x="159" y="440" on="1"/>
        <pt x="216" y="427" on="0"/>
        <pt x="233" y="378" on="1"/>
        <pt x="235" y="372" on="1"/>
        <pt x="246" y="382" on="1"/>
        <pt x="265" y="401" on="0"/>
        <pt x="281" y="411" on="1"/>
        <pt x="331" y="443" on="0"/>
        <pt x="391" y="442" on="1"/>
        <pt x="448" y="439" on="0"/>
        <pt x="478" y="410" on="1"/>
        <pt x="494" y="395" on="0"/>
        <pt x="503" y="369" on="1"/>
        <pt x="504" y="363" on="1"/>
        <pt x="517" y="376" on="1"/>
        <pt x="537" y="398" on="0"/>
        <pt x="558" y="411" on="1"/>
        <pt x="608" y="443" on="0"/>
        <pt x="668" y="442" on="1"/>
        <pt x="725" y="439" on="0"/>
        <pt x="755" y="410" on="1"/>
        <pt x="794" y="372" on="0"/>
        <pt x="782" y="299" on="1"/>
        <pt x="772" y="241" on="0"/>
        <pt x="727" y="123" on="1"/>
        <pt x="710" y="76" on="0"/>
        <pt x="710" y="57" on="1"/>
        <pt x="710" y="37" on="0"/>
        <pt x="723" y="36" on="1"/>
        <pt x="725" y="36" on="0"/>
        <pt x="728" y="36" on="1"/>
        <pt x="749" y="38" on="0"/>
        <pt x="767" y="57" on="1"/>
        <pt x="796" y="86" on="0"/>
        <pt x="809" y="136" on="1"/>
        <pt x="814" y="151" on="0"/>
        <pt x="819" y="152" on="1"/>
        <pt x="822" y="153" on="0"/>
        <pt x="837" y="153" on="1"/>
        <pt x="856" y="153" on="0"/>
        <pt x="859" y="151" on="1"/>
        <pt x="861" y="149" on="0"/>
        <pt x="861" y="143" on="1"/>
        <pt x="861" y="121" on="0"/>
        <pt x="833" y="71" on="1"/>
        <pt x="830" y="66" on="0"/>
        <pt x="827" y="61" on="1"/>
        <pt x="794" y="10" on="0"/>
        <pt x="748" y="-6" on="1"/>
        <pt x="707" y="-19" on="0"/>
        <pt x="668" y="1" on="1"/>
        <pt x="654" y="8" on="0"/>
        <pt x="647" y="16" on="1"/>
        <pt x="638" y="25" on="0"/>
        <pt x="633" y="35" on="1"/>
        <pt x="623" y="54" on="0"/>
        <pt x="624" y="75" on="1"/>
        <pt x="624" y="96" on="0"/>
        <pt x="636" y="129" on="1"/>
        <pt x="700" y="299" on="0"/>
        <pt x="694" y="349" on="1"/>
        <pt x="691" y="378" on="0"/>
        <pt x="675" y="388" on="1"/>
        <pt x="664" y="397" on="0"/>
        <pt x="636" y="394" on="1"/>
        <pt x="562" y="385" on="0"/>
        <pt x="509" y="298" on="1"/>
        <pt x="503" y="287" on="1"/>
        <pt x="470" y="157" on="1"/>
        <pt x="439" y="29" on="0"/>
        <pt x="434" y="20" on="1"/>
        <pt x="420" y="-10" on="0"/>
        <pt x="387" y="-11" on="1"/>
        <pt x="371" y="-11" on="0"/>
        <pt x="359" y="-2" on="1"/>
        <pt x="354" y="0" on="0"/>
        <pt x="350" y="9" on="1"/>
        <pt x="345" y="20" on="0"/>
        <pt x="350" y="42" on="1"/>
        <pt x="354" y="62" on="0"/>
        <pt x="379" y="163" on="1"/>
        <pt x="413" y="297" on="0"/>
        <pt x="414" y="303" on="1"/>
        <pt x="422" y="344" on="0"/>
        <pt x="413" y="367" on="1"/>
        <pt x="405" y="395" on="0"/>
        <pt x="374" y="395" on="1"/>
        <pt x="290" y="395" on="0"/>
        <pt x="232" y="298" on="1"/>
        <pt x="226" y="287" on="1"/>
        <pt x="193" y="157" on="1"/>
        <pt x="162" y="29" on="0"/>
        <pt x="157" y="20" on="1"/>
        <pt x="143" y="-10" on="0"/>
        <pt x="110" y="-11" on="1"/>
        <pt x="94" y="-11" on="0"/>
        <pt x="82" y="-2" on="1"/>
        <pt x="77" y="0" on="0"/>
        <pt x="73" y="9" on="1"/>
        <pt x="68" y="19" on="0"/>
        <pt x="72" y="39" on="1"/>
        <pt x="77" y="62" on="0"/>
        <pt x="107" y="183" on="1"/>
        <pt x="146" y="338" on="0"/>
        <pt x="147" y="344" on="1"/>
        <pt x="154" y="393" on="0"/>
        <pt x="128" y="395" on="1"/>
        <pt x="125" y="395" on="0"/>
        <pt x="122" y="395" on="1"/>
        <pt x="93" y="389" on="0"/>
        <pt x="70" y="302" on="1"/>
        <pt x="65" y="284" on="1"/>
        <pt x="54" y="278" on="0"/>
        <pt x="41" y="278" on="1"/>
        <pt x="22" y="278" on="1"/>
        <pt x="19" y="281" on="1"/>
        <pt x="15" y="285" on="0"/>
        <pt x="19" y="302" on="1"/>
        <pt x="39" y="371" on="0"/>
        <pt x="66" y="406" on="1"/>
        <pt x="87" y="433" on="0"/>
      </contour>
    </TTGlyph>
    <TTGlyph name="n" xMin="15" yMin="-12" xMax="584" yMax="444">
      <contour>
        <pt x="118" y="440" on="1"/>
        <pt x="133" y="444" on="0"/>
        <pt x="159" y="440" on="1"/>
        <pt x="216" y="426" on="0"/>
        <pt x="233" y="378" on="1"/>
        <pt x="235" y="372" on="1"/>
        <pt x="246" y="382" on="1"/>
        <pt x="265" y="401" on="0"/>
        <pt x="281" y="411" on="1"/>
        <pt x="331" y="443" on="0"/>
        <pt x="391" y="442" on="1"/>
        <pt x="448" y="439" on="0"/>
        <pt x="478" y="410" on="1"/>
        <pt x="517" y="372" on="0"/>
        <pt x="505" y="299" on="1"/>
        <pt x="495" y="241" on="0"/>
        <pt x="450" y="123" on="1"/>
        <pt x="433" y="76" on="0"/>
        <pt x="433" y="57" on="1"/>
        <pt x="433" y="41" on="0"/>
        <pt x="440" y="37" on="1"/>
        <pt x="448" y="33" on="0"/>
        <pt x="465" y="39" on="1"/>
        <pt x="504" y="54" on="0"/>
        <pt x="528" y="122" on="1"/>
        <pt x="530" y="129" on="0"/>
        <pt x="532" y="136" on="1"/>
        <pt x="537" y="151" on="0"/>
        <pt x="542" y="152" on="1"/>
        <pt x="545" y="153" on="0"/>
        <pt x="560" y="153" on="1"/>
        <pt x="579" y="153" on="0"/>
        <pt x="582" y="151" on="1"/>
        <pt x="584" y="149" on="0"/>
        <pt x="584" y="143" on="1"/>
        <pt x="584" y="126" on="0"/>
        <pt x="564" y="86" on="1"/>
        <pt x="546" y="49" on="0"/>
        <pt x="520" y="25" on="1"/>
        <pt x="481" y="-12" on="0"/>
        <pt x="435" y="-11" on="1"/>
        <pt x="378" y="-8" on="0"/>
        <pt x="355" y="36" on="1"/>
        <pt x="346" y="54" on="0"/>
        <pt x="346" y="77" on="1"/>
        <pt x="347" y="97" on="0"/>
        <pt x="358" y="124" on="1"/>
        <pt x="396" y="228" on="0"/>
        <pt x="407" y="275" on="1"/>
        <pt x="423" y="335" on="0"/>
        <pt x="413" y="367" on="1"/>
        <pt x="405" y="395" on="0"/>
        <pt x="374" y="395" on="1"/>
        <pt x="290" y="395" on="0"/>
        <pt x="232" y="298" on="1"/>
        <pt x="226" y="287" on="1"/>
        <pt x="193" y="157" on="1"/>
        <pt x="162" y="29" on="0"/>
        <pt x="157" y="20" on="1"/>
        <pt x="143" y="-10" on="0"/>
        <pt x="110" y="-11" on="1"/>
        <pt x="94" y="-11" on="0"/>
        <pt x="82" y="-2" on="1"/>
        <pt x="77" y="0" on="0"/>
        <pt x="73" y="9" on="1"/>
        <pt x="68" y="19" on="0"/>
        <pt x="72" y="39" on="1"/>
        <pt x="77" y="62" on="0"/>
        <pt x="107" y="183" on="1"/>
        <pt x="146" y="338" on="0"/>
        <pt x="147" y="344" on="1"/>
        <pt x="153" y="390" on="0"/>
        <pt x="131" y="395" on="1"/>
        <pt x="103" y="398" on="0"/>
        <pt x="84" y="349" on="1"/>
        <pt x="77" y="331" on="0"/>
        <pt x="70" y="302" on="1"/>
        <pt x="65" y="284" on="1"/>
        <pt x="54" y="278" on="0"/>
        <pt x="41" y="278" on="1"/>
        <pt x="22" y="278" on="1"/>
        <pt x="19" y="281" on="1"/>
        <pt x="15" y="285" on="0"/>
        <pt x="19" y="302" on="1"/>
        <pt x="55" y="427" on="0"/>
      </contour>
    </TTGlyph>
</ttFont>
